<svg width="508" height="647" viewBox="0 0 508 647" fill="none" xmlns="http://www.w3.org/2000/svg">
<path d="M453.021 323.528C453.021 491.023 375.885 646.821 242.847 646.821C109.809 646.821 35.9418 503.761 35.9418 336.266C35.9418 168.771 109.809 40.2678 242.847 40.2678C375.885 40.2678 453.021 156.033 453.021 323.528Z" fill="black"/>
<path d="M447.063 322.094C447.063 486.628 372.241 639.671 243.194 639.671C114.147 639.671 42.4958 499.14 42.4958 334.607C42.4958 170.073 114.147 43.8427 243.194 43.8427C372.241 43.8427 447.063 157.561 447.063 322.094Z" fill="black"/>
<ellipse cx="351.135" cy="317.328" rx="36.3455" ry="58.987" fill="#572A00"/>
<ellipse cx="197.411" cy="317.328" rx="36.3455" ry="58.987" fill="#572A00"/>
<path d="M271.294 306.603C320.854 411.155 330.94 453.88 271.294 459.731" stroke="black" stroke-width="3"/>
<path d="M355.709 127.365C369.307 104.823 398.604 97.5732 421.145 111.171C443.687 124.769 450.937 154.066 437.339 176.608C423.74 199.149 394.444 206.399 371.902 192.801C349.361 179.203 342.111 149.906 355.709 127.365Z" fill="#010101"/>
<path d="M310.691 136.684C319.473 135.372 328.448 136.54 336.602 140.055C344.756 143.57 351.767 149.292 356.843 156.578C361.919 163.864 364.859 172.422 365.332 181.289C365.805 190.156 363.791 198.979 359.519 206.763C355.246 214.547 348.884 220.983 341.15 225.345C333.415 229.708 324.616 231.823 315.744 231.452C306.872 231.081 298.28 228.24 290.937 223.248C283.593 218.256 277.79 211.312 274.181 203.199L284.5 198.609C287.254 204.8 291.682 210.099 297.286 213.908C302.89 217.717 309.446 219.885 316.216 220.168C322.985 220.451 329.7 218.837 335.601 215.508C341.503 212.18 346.358 207.269 349.618 201.329C352.878 195.389 354.415 188.657 354.054 181.891C353.693 175.125 351.45 168.594 347.576 163.034C343.703 157.475 338.353 153.108 332.131 150.426C325.909 147.744 319.061 146.853 312.36 147.854L310.691 136.684Z" fill="#010101"/>
<path d="M243.065 133.296C251.049 138.931 257.108 146.883 260.421 156.076C263.735 165.27 264.142 175.259 261.589 184.692C259.036 194.124 253.646 202.544 246.148 208.811C238.65 215.079 229.408 218.89 219.672 219.729C209.936 220.568 200.177 218.394 191.718 213.503C183.258 208.611 176.506 201.237 172.377 192.38C168.248 183.524 166.94 173.612 168.632 163.987C170.324 154.363 174.933 145.491 181.834 138.573L189.83 146.549C184.563 151.828 181.046 158.598 179.756 165.942C178.465 173.286 179.462 180.85 182.613 187.608C185.764 194.366 190.916 199.993 197.371 203.725C203.826 207.458 211.273 209.117 218.702 208.476C226.131 207.836 233.184 204.928 238.905 200.146C244.626 195.364 248.74 188.939 250.688 181.741C252.636 174.543 252.325 166.921 249.796 159.906C247.268 152.891 242.645 146.823 236.553 142.523L243.065 133.296Z" fill="#010101"/>
<circle cx="358.988" cy="63.0167" r="47.6662" transform="rotate(168.649 358.988 63.0167)" fill="#010101"/>
<circle cx="270.152" cy="119.563" r="47.6662" transform="rotate(6.94308 270.152 119.563)" fill="#010101"/>
<path d="M232.861 144.391C229.679 170.524 205.915 189.128 179.783 185.946C153.65 182.764 135.046 159 138.228 132.867C141.41 106.735 165.174 88.1304 191.307 91.3127C217.439 94.495 236.044 118.259 232.861 144.391Z" fill="#010101"/>
<path d="M187.578 102.683C184.396 128.816 160.632 147.42 134.5 144.238C108.367 141.056 89.7627 117.292 92.945 91.1593C96.1273 65.0271 119.891 46.4224 146.024 49.6047C172.156 52.787 190.761 76.5512 187.578 102.683Z" fill="#010101"/>
<circle cx="206.613" cy="73.8985" r="47.6662" transform="rotate(179.681 206.613 73.8985)" fill="#010101"/>
<path d="M415.305 109.416C418.891 102.923 423.943 97.3565 430.059 93.1592C436.175 88.9619 443.186 86.2498 450.534 85.2387C457.882 84.2276 465.365 84.9455 472.387 87.3351C479.409 89.7247 485.777 93.7202 490.983 99.0036C496.189 104.287 500.091 110.713 502.377 117.769C504.663 124.826 505.271 132.318 504.152 139.651C503.033 146.984 500.218 153.954 495.931 160.007C491.645 166.061 486.004 171.03 479.459 174.52L474.145 164.555C479.139 161.891 483.443 158.099 486.714 153.48C489.985 148.861 492.133 143.542 492.987 137.947C493.841 132.352 493.377 126.634 491.633 121.25C489.888 115.865 486.911 110.962 482.939 106.931C478.966 102.899 474.107 99.8504 468.749 98.027C463.39 96.2036 457.681 95.6558 452.073 96.4273C446.466 97.1988 441.116 99.2683 436.45 102.471C431.783 105.674 427.928 109.922 425.192 114.876L415.305 109.416Z" fill="#010101"/>
<path d="M103.689 157.605C120.748 177.656 118.322 207.739 98.2719 224.797C78.2214 241.856 48.1384 239.431 31.0796 219.38C14.0209 199.33 16.4463 169.247 36.4968 152.188C56.5473 135.129 86.6303 137.555 103.689 157.605Z" fill="#010101"/>
<circle cx="92.469" cy="131.353" r="47.6662" transform="rotate(29.2171 92.469 131.353)" fill="#010101"/>
<circle cx="409.45" cy="100.37" r="47.6662" transform="rotate(29.2171 409.45 100.37)" fill="#010101"/>
<circle cx="116.993" cy="160.644" r="47.6662" transform="rotate(-87.0346 116.993 160.644)" fill="#010101"/>
<path d="M390.374 77.5115C387.518 70.2116 386.506 62.32 387.428 54.5357C388.35 46.7513 391.177 39.3145 395.66 32.884C400.143 26.4535 406.142 21.2277 413.127 17.6696C420.111 14.1115 427.866 12.3309 435.703 12.4855C443.54 12.6401 451.218 14.7251 458.057 18.5559C464.896 22.3867 470.685 27.845 474.911 34.4473C479.136 41.0496 481.668 48.5921 482.283 56.4068C482.897 64.2214 481.574 72.067 478.432 79.2485L468.085 74.7215C470.483 69.2416 471.492 63.2549 471.023 57.2919C470.555 51.3288 468.622 45.5734 465.398 40.5355C462.174 35.4975 457.757 31.3325 452.538 28.4094C447.319 25.4863 441.461 23.8953 435.48 23.7773C429.5 23.6593 423.583 25.018 418.253 27.7331C412.923 30.4481 408.346 34.4357 404.925 39.3426C401.504 44.2495 399.347 49.9242 398.643 55.8641C397.94 61.8041 398.712 67.8258 400.891 73.396L390.374 77.5115Z" fill="#010101"/>
<path d="M395.799 144.418C403.504 140.145 412.243 138.091 421.045 138.485C429.847 138.878 438.368 141.703 445.661 146.647C452.955 151.591 458.735 158.459 462.361 166.489C465.986 174.52 467.315 183.398 466.199 192.138C465.084 200.878 461.568 209.138 456.041 216C450.515 222.862 443.195 228.059 434.894 231.012C426.593 233.965 417.635 234.56 409.016 232.73C400.398 230.9 392.455 226.717 386.07 220.645L393.853 212.461C398.725 217.094 404.786 220.286 411.362 221.682C417.939 223.079 424.774 222.625 431.108 220.371C437.442 218.118 443.028 214.153 447.245 208.916C451.462 203.68 454.145 197.377 454.996 190.708C455.847 184.039 454.834 177.264 452.067 171.137C449.301 165.009 444.89 159.768 439.325 155.996C433.759 152.223 427.257 150.067 420.541 149.767C413.824 149.467 407.156 151.034 401.276 154.295L395.799 144.418Z" fill="#010101"/>
<circle cx="277.972" cy="66.6081" r="47.6662" transform="rotate(58.0661 277.972 66.6081)" fill="#010101"/>
<circle cx="350.663" cy="88.0579" r="47.6662" transform="rotate(58.0661 350.663 88.0579)" fill="#010101"/>
<circle cx="347.088" cy="129.766" r="47.6662" transform="rotate(58.0661 347.088 129.766)" fill="#010101"/>
<path d="M206.349 539.572C206.349 539.572 261.761 581.279 340.41 543.742" stroke="black" stroke-width="3"/>
</svg>
