<svg width="698" height="513" viewBox="0 0 698 513" fill="none" xmlns="http://www.w3.org/2000/svg">
<ellipse cx="333.217" cy="226.903" rx="333.217" ry="226.903" transform="matrix(0.995962 0.0897741 -0.0733334 0.997307 33.4697 0)" fill="black"/>
<ellipse cx="327.6" cy="220.536" rx="327.6" ry="220.536" transform="matrix(0.995962 0.0897741 -0.0733334 0.997307 41.3787 3.98047)" fill="#B76301"/>
<ellipse cx="302.771" cy="197.597" rx="302.771" ry="197.597" transform="matrix(0.995962 0.0897741 -0.0733334 0.997307 71.4023 23.6304)" fill="#FDCA7D"/>
<ellipse cx="299.781" cy="195.049" rx="299.781" ry="195.049" transform="matrix(0.995962 0.0897741 -0.0733334 0.997307 66.6908 14.6802)" fill="#FDCA7D"/>
<path d="M161.92 189.864C161.002 195.872 153.471 199.563 145.1 198.107C136.729 196.652 130.687 190.601 131.605 184.593C132.523 178.585 140.054 174.895 148.425 176.35C156.796 177.806 162.838 183.856 161.92 189.864Z" fill="#AF3828"/>
<path d="M155.962 191.851C155.739 192.57 154.587 192.852 153.389 192.48C152.191 192.109 151.4 191.225 151.623 190.506C151.846 189.787 152.998 189.506 154.196 189.877C155.394 190.248 156.185 191.132 155.962 191.851Z" fill="#F88D8D"/>
<path d="M155.962 191.851C155.739 192.57 154.587 192.852 153.389 192.48C152.191 192.109 151.4 191.225 151.623 190.506C151.846 189.787 152.998 189.506 154.196 189.877C155.394 190.248 156.185 191.132 155.962 191.851Z" fill="#F88D8D"/>
<path d="M155.962 191.851C155.739 192.57 154.587 192.852 153.389 192.48C152.191 192.109 151.4 191.225 151.623 190.506C151.846 189.787 152.998 189.506 154.196 189.877C155.394 190.248 156.185 191.132 155.962 191.851Z" fill="#F88D8D"/>
<path d="M155.962 191.851C155.739 192.57 154.587 192.852 153.389 192.48C152.191 192.109 151.4 191.225 151.623 190.506C151.846 189.787 152.998 189.506 154.196 189.877C155.394 190.248 156.185 191.132 155.962 191.851Z" fill="#F88D8D"/>
<ellipse cx="146.643" cy="193.819" rx="2.27133" ry="1.3628" transform="rotate(68.7374 146.643 193.819)" fill="#F88D8D"/>
<ellipse cx="146.643" cy="193.819" rx="2.27133" ry="1.3628" transform="rotate(68.7374 146.643 193.819)" fill="#F88D8D"/>
<ellipse cx="146.643" cy="193.819" rx="2.27133" ry="1.3628" transform="rotate(68.7374 146.643 193.819)" fill="#F88D8D"/>
<ellipse cx="146.643" cy="193.819" rx="2.27133" ry="1.3628" transform="rotate(68.7374 146.643 193.819)" fill="#F88D8D"/>
<ellipse cx="138.976" cy="189.639" rx="2.27133" ry="1.3628" transform="rotate(167.357 138.976 189.639)" fill="#F88D8D"/>
<ellipse cx="138.976" cy="189.639" rx="2.27133" ry="1.3628" transform="rotate(167.357 138.976 189.639)" fill="#F88D8D"/>
<ellipse cx="138.976" cy="189.639" rx="2.27133" ry="1.3628" transform="rotate(167.357 138.976 189.639)" fill="#F88D8D"/>
<ellipse cx="138.976" cy="189.639" rx="2.27133" ry="1.3628" transform="rotate(167.357 138.976 189.639)" fill="#F88D8D"/>
<ellipse cx="140.543" cy="181.832" rx="2.27133" ry="1.3628" transform="rotate(-144.219 140.543 181.832)" fill="#F88D8D"/>
<ellipse cx="140.543" cy="181.832" rx="2.27133" ry="1.3628" transform="rotate(-144.219 140.543 181.832)" fill="#F88D8D"/>
<ellipse cx="140.543" cy="181.832" rx="2.27133" ry="1.3628" transform="rotate(-144.219 140.543 181.832)" fill="#F88D8D"/>
<ellipse cx="140.543" cy="181.832" rx="2.27133" ry="1.3628" transform="rotate(-144.219 140.543 181.832)" fill="#F88D8D"/>
<ellipse cx="146.575" cy="180.057" rx="2.27133" ry="1.3628" transform="rotate(-107.788 146.575 180.057)" fill="#F88D8D"/>
<ellipse cx="146.575" cy="180.057" rx="2.27133" ry="1.3628" transform="rotate(-107.788 146.575 180.057)" fill="#F88D8D"/>
<ellipse cx="146.575" cy="180.057" rx="2.27133" ry="1.3628" transform="rotate(-107.788 146.575 180.057)" fill="#F88D8D"/>
<ellipse cx="146.575" cy="180.057" rx="2.27133" ry="1.3628" transform="rotate(-107.788 146.575 180.057)" fill="#F88D8D"/>
<path d="M154.796 180.87C155.447 181.248 155.463 182.434 154.832 183.518C154.201 184.602 153.162 185.174 152.511 184.796C151.861 184.417 151.845 183.231 152.476 182.147C153.107 181.063 154.146 180.491 154.796 180.87Z" fill="#F88D8D"/>
<path d="M154.796 180.87C155.447 181.248 155.463 182.434 154.832 183.518C154.201 184.602 153.162 185.174 152.511 184.796C151.861 184.417 151.845 183.231 152.476 182.147C153.107 181.063 154.146 180.491 154.796 180.87Z" fill="#F88D8D"/>
<path d="M154.796 180.87C155.447 181.248 155.463 182.434 154.832 183.518C154.201 184.602 153.162 185.174 152.511 184.796C151.861 184.417 151.845 183.231 152.476 182.147C153.107 181.063 154.146 180.491 154.796 180.87Z" fill="#F88D8D"/>
<path d="M154.796 180.87C155.447 181.248 155.463 182.434 154.832 183.518C154.201 184.602 153.162 185.174 152.511 184.796C151.861 184.417 151.845 183.231 152.476 182.147C153.107 181.063 154.146 180.491 154.796 180.87Z" fill="#F88D8D"/>
<ellipse cx="141.107" cy="185.69" rx="4.81851" ry="0.908532" transform="rotate(19.5904 141.107 185.69)" fill="#F34A4A"/>
<ellipse cx="142.595" cy="191.926" rx="4.81851" ry="0.908532" transform="rotate(-45.4675 142.595 191.926)" fill="#F34A4A"/>
<ellipse cx="149.148" cy="193.015" rx="4.81851" ry="0.908532" transform="rotate(-109.953 149.148 193.015)" fill="#F34A4A"/>
<ellipse cx="144.736" cy="182.774" rx="4.81851" ry="0.908532" transform="rotate(64.9732 144.736 182.774)" fill="#F34A4A"/>
<ellipse cx="150.457" cy="182.288" rx="4.81851" ry="0.908532" transform="rotate(108.629 150.457 182.288)" fill="#F34A4A"/>
<ellipse cx="154.954" cy="186.783" rx="4.81851" ry="0.908532" transform="rotate(163.901 154.954 186.783)" fill="#F34A4A"/>
<line y1="-1.5" x2="459.041" y2="-1.5" transform="matrix(0.636551 0.771234 -0.75412 0.656737 237.431 62.4731)" stroke="#D68916" stroke-width="3"/>
<line y1="-1.5" x2="556.952" y2="-1.5" transform="matrix(0.978272 -0.207327 0.206621 0.978421 74.3043 285.515)" stroke="#D68916" stroke-width="3"/>
<line y1="-1.5" x2="395.129" y2="-1.5" transform="matrix(-0.333203 0.942855 -0.933221 -0.359302 425.94 61.2729)" stroke="#D68916" stroke-width="3"/>
<line y1="-1.5" x2="584.445" y2="-1.5" transform="matrix(0.967418 0.253186 -0.229819 0.973233 86.5215 149.306)" stroke="#D68916" stroke-width="3"/>
<path d="M208.02 136.067C206.894 142.035 199.237 145.445 190.918 143.683C182.599 141.921 176.768 135.655 177.895 129.687C179.021 123.72 186.678 120.31 194.997 122.072C203.316 123.834 209.146 130.1 208.02 136.067Z" fill="#AF3828"/>
<path d="M273.529 142.792C272.403 148.76 264.746 152.17 256.427 150.408C248.108 148.646 242.278 142.38 243.404 136.413C244.53 130.445 252.187 127.035 260.506 128.797C268.825 130.559 274.656 136.825 273.529 142.792Z" fill="#AF3828"/>
<path d="M189.042 212.959C188.124 218.967 180.593 222.658 172.222 221.202C163.851 219.747 157.809 213.696 158.727 207.688C159.645 201.68 167.176 197.99 175.547 199.446C183.918 200.901 189.96 206.952 189.042 212.959Z" fill="#AF3828"/>
<path d="M188.814 213.219C187.896 219.227 180.365 222.918 171.994 221.462C163.623 220.007 157.581 213.956 158.499 207.948C159.417 201.94 166.947 198.25 175.319 199.705C183.69 201.161 189.732 207.211 188.814 213.219Z" fill="#AF3828"/>
<path d="M182.856 215.205C182.633 215.924 181.481 216.206 180.283 215.834C179.085 215.463 178.294 214.579 178.517 213.86C178.74 213.141 179.891 212.86 181.09 213.231C182.288 213.602 183.079 214.486 182.856 215.205Z" fill="#F88D8D"/>
<path d="M182.856 215.205C182.633 215.924 181.481 216.206 180.283 215.834C179.085 215.463 178.294 214.579 178.517 213.86C178.74 213.141 179.891 212.86 181.09 213.231C182.288 213.602 183.079 214.486 182.856 215.205Z" fill="#F88D8D"/>
<path d="M182.856 215.205C182.633 215.924 181.481 216.206 180.283 215.834C179.085 215.463 178.294 214.579 178.517 213.86C178.74 213.141 179.891 212.86 181.09 213.231C182.288 213.602 183.079 214.486 182.856 215.205Z" fill="#F88D8D"/>
<path d="M182.856 215.205C182.633 215.924 181.481 216.206 180.283 215.834C179.085 215.463 178.294 214.579 178.517 213.86C178.74 213.141 179.891 212.86 181.09 213.231C182.288 213.602 183.079 214.486 182.856 215.205Z" fill="#F88D8D"/>
<ellipse cx="173.536" cy="217.173" rx="2.27133" ry="1.3628" transform="rotate(68.7374 173.536 217.173)" fill="#F88D8D"/>
<ellipse cx="173.536" cy="217.173" rx="2.27133" ry="1.3628" transform="rotate(68.7374 173.536 217.173)" fill="#F88D8D"/>
<ellipse cx="173.536" cy="217.173" rx="2.27133" ry="1.3628" transform="rotate(68.7374 173.536 217.173)" fill="#F88D8D"/>
<ellipse cx="173.536" cy="217.173" rx="2.27133" ry="1.3628" transform="rotate(68.7374 173.536 217.173)" fill="#F88D8D"/>
<ellipse cx="165.869" cy="212.993" rx="2.27133" ry="1.3628" transform="rotate(167.357 165.869 212.993)" fill="#F88D8D"/>
<ellipse cx="165.869" cy="212.993" rx="2.27133" ry="1.3628" transform="rotate(167.357 165.869 212.993)" fill="#F88D8D"/>
<ellipse cx="165.869" cy="212.993" rx="2.27133" ry="1.3628" transform="rotate(167.357 165.869 212.993)" fill="#F88D8D"/>
<ellipse cx="165.869" cy="212.993" rx="2.27133" ry="1.3628" transform="rotate(167.357 165.869 212.993)" fill="#F88D8D"/>
<ellipse cx="167.437" cy="205.186" rx="2.27133" ry="1.3628" transform="rotate(-144.219 167.437 205.186)" fill="#F88D8D"/>
<ellipse cx="167.437" cy="205.186" rx="2.27133" ry="1.3628" transform="rotate(-144.219 167.437 205.186)" fill="#F88D8D"/>
<ellipse cx="167.437" cy="205.186" rx="2.27133" ry="1.3628" transform="rotate(-144.219 167.437 205.186)" fill="#F88D8D"/>
<ellipse cx="167.437" cy="205.186" rx="2.27133" ry="1.3628" transform="rotate(-144.219 167.437 205.186)" fill="#F88D8D"/>
<ellipse cx="173.468" cy="203.412" rx="2.27133" ry="1.3628" transform="rotate(-107.788 173.468 203.412)" fill="#F88D8D"/>
<ellipse cx="173.468" cy="203.412" rx="2.27133" ry="1.3628" transform="rotate(-107.788 173.468 203.412)" fill="#F88D8D"/>
<ellipse cx="173.468" cy="203.412" rx="2.27133" ry="1.3628" transform="rotate(-107.788 173.468 203.412)" fill="#F88D8D"/>
<ellipse cx="173.468" cy="203.412" rx="2.27133" ry="1.3628" transform="rotate(-107.788 173.468 203.412)" fill="#F88D8D"/>
<path d="M181.69 204.224C182.34 204.602 182.356 205.788 181.725 206.872C181.094 207.956 180.055 208.528 179.405 208.15C178.754 207.771 178.738 206.585 179.369 205.501C180 204.417 181.039 203.845 181.69 204.224Z" fill="#F88D8D"/>
<path d="M181.69 204.224C182.34 204.602 182.356 205.788 181.725 206.872C181.094 207.956 180.055 208.528 179.405 208.15C178.754 207.771 178.738 206.585 179.369 205.501C180 204.417 181.039 203.845 181.69 204.224Z" fill="#F88D8D"/>
<path d="M181.69 204.224C182.34 204.602 182.356 205.788 181.725 206.872C181.094 207.956 180.055 208.528 179.405 208.15C178.754 207.771 178.738 206.585 179.369 205.501C180 204.417 181.039 203.845 181.69 204.224Z" fill="#F88D8D"/>
<path d="M181.69 204.224C182.34 204.602 182.356 205.788 181.725 206.872C181.094 207.956 180.055 208.528 179.405 208.15C178.754 207.771 178.738 206.585 179.369 205.501C180 204.417 181.039 203.845 181.69 204.224Z" fill="#F88D8D"/>
<ellipse cx="168.001" cy="209.044" rx="4.81851" ry="0.908532" transform="rotate(19.5904 168.001 209.044)" fill="#F34A4A"/>
<ellipse cx="169.489" cy="215.28" rx="4.81851" ry="0.908532" transform="rotate(-45.4675 169.489 215.28)" fill="#F34A4A"/>
<ellipse cx="176.042" cy="216.369" rx="4.81851" ry="0.908532" transform="rotate(-109.953 176.042 216.369)" fill="#F34A4A"/>
<ellipse cx="171.63" cy="206.129" rx="4.81851" ry="0.908532" transform="rotate(64.9732 171.63 206.129)" fill="#F34A4A"/>
<ellipse cx="177.351" cy="205.642" rx="4.81851" ry="0.908532" transform="rotate(108.629 177.351 205.642)" fill="#F34A4A"/>
<ellipse cx="181.848" cy="210.138" rx="4.81851" ry="0.908532" transform="rotate(163.901 181.848 210.138)" fill="#F34A4A"/>
<path d="M333.941 250.309C337.678 255.081 335.378 263.346 328.805 268.769C322.231 274.191 313.874 274.718 310.138 269.946C306.402 265.173 308.701 256.908 315.274 251.486C321.848 246.063 330.205 245.536 333.941 250.309Z" fill="#AF3828"/>
<path d="M315.295 305.002C319.031 309.775 316.731 318.039 310.158 323.462C303.585 328.884 295.228 329.411 291.491 324.639C287.755 319.866 290.055 311.602 296.628 306.179C303.201 300.757 311.559 300.23 315.295 305.002Z" fill="#AF3828"/>
<path d="M259.842 277.964C263.578 282.737 261.278 291.001 254.705 296.424C248.132 301.846 239.774 302.373 236.038 297.601C232.302 292.828 234.602 284.564 241.175 279.141C247.748 273.719 256.105 273.192 259.842 277.964Z" fill="#AF3828"/>
<path d="M219.451 289.41C223.187 294.182 220.888 302.447 214.314 307.87C207.741 313.292 199.384 313.819 195.648 309.047C191.911 304.274 194.211 296.009 200.784 290.587C207.358 285.164 215.715 284.637 219.451 289.41Z" fill="#AF3828"/>
<path d="M276.667 349.962C280.403 354.734 278.103 362.999 271.53 368.421C264.957 373.844 256.599 374.371 252.863 369.598C249.127 364.826 251.427 356.561 258 351.139C264.573 345.716 272.931 345.189 276.667 349.962Z" fill="#AF3828"/>
<path d="M434.919 259.287C438.386 254.39 446.764 254.629 453.633 259.82C460.503 265.011 463.261 273.189 459.794 278.085C456.327 282.982 447.949 282.743 441.08 277.552C434.21 272.361 431.452 264.183 434.919 259.287Z" fill="#AF3828"/>
<path d="M397.664 237.086C401.131 232.189 409.509 232.428 416.379 237.619C423.248 242.811 426.006 250.988 422.539 255.885C419.072 260.781 410.694 260.542 403.825 255.351C396.956 250.16 394.197 241.982 397.664 237.086Z" fill="#AF3828"/>
<path d="M459.94 298.322C463.406 293.425 471.785 293.664 478.654 298.855C485.523 304.046 488.282 312.224 484.815 317.12C481.348 322.017 472.969 321.778 466.1 316.587C459.231 311.396 456.473 303.218 459.94 298.322Z" fill="#AF3828"/>
<path d="M495.104 342.952C498.571 338.056 506.95 338.294 513.819 343.486C520.688 348.677 523.446 356.854 519.98 361.751C516.513 366.647 508.134 366.408 501.265 361.217C494.396 356.026 491.638 347.849 495.104 342.952Z" fill="#AF3828"/>
<path d="M518.831 281.724C522.297 276.828 530.676 277.066 537.545 282.258C544.414 287.449 547.173 295.626 543.706 300.523C540.239 305.419 531.86 305.18 524.991 299.989C518.122 294.798 515.364 286.621 518.831 281.724Z" fill="#AF3828"/>
<path d="M386.271 267.222C392.191 267.398 396.873 274.608 396.729 283.326C396.585 292.044 391.67 298.968 385.75 298.792C379.831 298.615 375.149 291.405 375.292 282.687C375.436 273.969 380.352 267.045 386.271 267.222Z" fill="#AF3828"/>
<path d="M357.709 347.427C363.628 347.603 368.31 354.813 368.166 363.531C368.023 372.249 363.107 379.173 357.188 378.997C351.268 378.82 346.586 371.61 346.73 362.892C346.874 354.175 351.789 347.25 357.709 347.427Z" fill="#AF3828"/>
<path d="M422.753 307.357C428.672 307.533 433.354 314.744 433.21 323.461C433.066 332.179 428.151 339.103 422.232 338.927C416.312 338.75 411.63 331.54 411.774 322.822C411.918 314.105 416.833 307.181 422.753 307.357Z" fill="#AF3828"/>
<path d="M400.201 349.501C405.287 346.445 412.926 350.085 417.263 357.63C421.6 365.175 420.993 373.769 415.907 376.825C410.821 379.881 403.182 376.242 398.845 368.696C394.507 361.151 395.115 352.557 400.201 349.501Z" fill="#AF3828"/>
<ellipse cx="15.795" cy="10.7172" rx="15.795" ry="10.7172" transform="matrix(0.360284 0.932843 -0.92889 0.370355 342.928 112.514)" fill="#AF3828"/>
<path d="M367.359 147.646C362.127 144.729 361.102 136.157 365.069 128.499C369.036 120.842 376.493 116.999 381.724 119.916C386.956 122.833 387.981 131.405 384.014 139.062C380.047 146.72 372.59 150.562 367.359 147.646Z" fill="#AF3828"/>
<ellipse cx="15.7415" cy="10.7556" rx="15.7415" ry="10.7556" transform="matrix(0.178613 -0.98392 0.979787 0.200044 348.793 192.877)" fill="#AF3828"/>
<ellipse cx="15.3968" cy="10.9965" rx="15.3968" ry="10.9965" transform="matrix(0.978302 0.207185 -0.185474 0.982649 290.293 149.644)" fill="#AF3828"/>
<ellipse cx="15.3968" cy="10.9965" rx="15.3968" ry="10.9965" transform="matrix(0.978302 0.207185 -0.185474 0.982649 238.181 155.806)" fill="#AF3828"/>
<ellipse cx="15.3968" cy="10.9965" rx="15.3968" ry="10.9965" transform="matrix(0.978302 0.207185 -0.185474 0.982649 133.965 173.577)" fill="#AF3828"/>
<path d="M451.398 121.809C447.341 117.322 449.055 108.901 455.226 103.001C461.397 97.1009 469.689 95.9556 473.746 100.443C477.803 104.93 476.09 113.351 469.918 119.251C463.747 125.151 455.456 126.297 451.398 121.809Z" fill="#AF3828"/>
<path d="M482.895 184.297C478.838 179.809 480.552 171.388 486.723 165.488C492.894 159.588 501.186 158.443 505.243 162.93C509.3 167.417 507.586 175.838 501.415 181.738C495.244 187.639 486.952 188.784 482.895 184.297Z" fill="#AF3828"/>
<path d="M492.641 137.244C488.584 132.756 490.298 124.335 496.469 118.435C502.64 112.535 510.932 111.39 514.989 115.877C519.046 120.364 517.332 128.785 511.161 134.685C504.99 140.586 496.698 141.731 492.641 137.244Z" fill="#AF3828"/>
<ellipse cx="15.4592" cy="10.9536" rx="15.4592" ry="10.9536" transform="matrix(-0.722794 0.691063 -0.670657 -0.741768 427.573 183.08)" fill="#AF3828"/>
<ellipse cx="15.4592" cy="10.9536" rx="15.4592" ry="10.9536" transform="matrix(-0.722794 0.691063 -0.670657 -0.741768 452.672 135.897)" fill="#AF3828"/>
<path d="M458.986 224.86C458.425 230.919 451.132 235.076 442.696 234.146C434.26 233.215 427.877 227.55 428.438 221.491C428.999 215.432 436.292 211.275 444.728 212.205C453.163 213.136 459.547 218.801 458.986 224.86Z" fill="#AF3828"/>
<path d="M518.77 216.36C518.209 222.419 510.916 226.576 502.481 225.646C494.045 224.716 487.661 219.05 488.222 212.991C488.783 206.933 496.077 202.775 504.512 203.706C512.948 204.636 519.331 210.302 518.77 216.36Z" fill="#AF3828"/>
<path d="M547.627 213.466C547.066 219.524 539.772 223.682 531.337 222.751C522.901 221.821 516.518 216.155 517.079 210.097C517.64 204.038 524.933 199.881 533.368 200.811C541.804 201.741 548.188 207.407 547.627 213.466Z" fill="#AF3828"/>
<ellipse cx="15.3665" cy="11.0171" rx="15.3665" ry="11.0171" transform="matrix(0.993973 0.109622 -0.0921986 0.995741 560.429 221.201)" fill="#AF3828"/>
<path d="M156.908 239.04C155.99 245.048 148.459 248.738 140.088 247.282C131.717 245.827 125.675 239.777 126.593 233.769C127.511 227.761 135.041 224.07 143.413 225.526C151.784 226.981 157.826 233.032 156.908 239.04Z" fill="#AF3828"/>
<path d="M150.95 241.025C150.727 241.744 149.575 242.026 148.377 241.655C147.179 241.283 146.388 240.4 146.611 239.681C146.833 238.962 147.985 238.68 149.184 239.051C150.382 239.422 151.173 240.306 150.95 241.025Z" fill="#F88D8D"/>
<path d="M150.95 241.025C150.727 241.744 149.575 242.026 148.377 241.655C147.179 241.283 146.388 240.4 146.611 239.681C146.833 238.962 147.985 238.68 149.184 239.051C150.382 239.422 151.173 240.306 150.95 241.025Z" fill="#F88D8D"/>
<path d="M150.95 241.025C150.727 241.744 149.575 242.026 148.377 241.655C147.179 241.283 146.388 240.4 146.611 239.681C146.833 238.962 147.985 238.68 149.184 239.051C150.382 239.422 151.173 240.306 150.95 241.025Z" fill="#F88D8D"/>
<path d="M150.95 241.025C150.727 241.744 149.575 242.026 148.377 241.655C147.179 241.283 146.388 240.4 146.611 239.681C146.833 238.962 147.985 238.68 149.184 239.051C150.382 239.422 151.173 240.306 150.95 241.025Z" fill="#F88D8D"/>
<ellipse cx="141.63" cy="242.994" rx="2.27133" ry="1.3628" transform="rotate(68.7374 141.63 242.994)" fill="#F88D8D"/>
<ellipse cx="141.63" cy="242.994" rx="2.27133" ry="1.3628" transform="rotate(68.7374 141.63 242.994)" fill="#F88D8D"/>
<ellipse cx="141.63" cy="242.994" rx="2.27133" ry="1.3628" transform="rotate(68.7374 141.63 242.994)" fill="#F88D8D"/>
<ellipse cx="141.63" cy="242.994" rx="2.27133" ry="1.3628" transform="rotate(68.7374 141.63 242.994)" fill="#F88D8D"/>
<ellipse cx="133.963" cy="238.814" rx="2.27133" ry="1.3628" transform="rotate(167.357 133.963 238.814)" fill="#F88D8D"/>
<ellipse cx="133.963" cy="238.814" rx="2.27133" ry="1.3628" transform="rotate(167.357 133.963 238.814)" fill="#F88D8D"/>
<ellipse cx="133.963" cy="238.814" rx="2.27133" ry="1.3628" transform="rotate(167.357 133.963 238.814)" fill="#F88D8D"/>
<ellipse cx="133.963" cy="238.814" rx="2.27133" ry="1.3628" transform="rotate(167.357 133.963 238.814)" fill="#F88D8D"/>
<ellipse cx="135.53" cy="231.006" rx="2.27133" ry="1.3628" transform="rotate(-144.219 135.53 231.006)" fill="#F88D8D"/>
<ellipse cx="135.53" cy="231.006" rx="2.27133" ry="1.3628" transform="rotate(-144.219 135.53 231.006)" fill="#F88D8D"/>
<ellipse cx="135.53" cy="231.006" rx="2.27133" ry="1.3628" transform="rotate(-144.219 135.53 231.006)" fill="#F88D8D"/>
<ellipse cx="135.53" cy="231.006" rx="2.27133" ry="1.3628" transform="rotate(-144.219 135.53 231.006)" fill="#F88D8D"/>
<ellipse cx="141.562" cy="229.232" rx="2.27133" ry="1.3628" transform="rotate(-107.788 141.562 229.232)" fill="#F88D8D"/>
<ellipse cx="141.562" cy="229.232" rx="2.27133" ry="1.3628" transform="rotate(-107.788 141.562 229.232)" fill="#F88D8D"/>
<ellipse cx="141.562" cy="229.232" rx="2.27133" ry="1.3628" transform="rotate(-107.788 141.562 229.232)" fill="#F88D8D"/>
<ellipse cx="141.562" cy="229.232" rx="2.27133" ry="1.3628" transform="rotate(-107.788 141.562 229.232)" fill="#F88D8D"/>
<path d="M149.783 230.044C150.434 230.423 150.45 231.609 149.819 232.693C149.188 233.777 148.149 234.349 147.498 233.971C146.848 233.592 146.832 232.406 147.463 231.322C148.094 230.238 149.133 229.666 149.783 230.044Z" fill="#F88D8D"/>
<path d="M149.783 230.044C150.434 230.423 150.45 231.609 149.819 232.693C149.188 233.777 148.149 234.349 147.498 233.971C146.848 233.592 146.832 232.406 147.463 231.322C148.094 230.238 149.133 229.666 149.783 230.044Z" fill="#F88D8D"/>
<path d="M149.783 230.044C150.434 230.423 150.45 231.609 149.819 232.693C149.188 233.777 148.149 234.349 147.498 233.971C146.848 233.592 146.832 232.406 147.463 231.322C148.094 230.238 149.133 229.666 149.783 230.044Z" fill="#F88D8D"/>
<path d="M149.783 230.044C150.434 230.423 150.45 231.609 149.819 232.693C149.188 233.777 148.149 234.349 147.498 233.971C146.848 233.592 146.832 232.406 147.463 231.322C148.094 230.238 149.133 229.666 149.783 230.044Z" fill="#F88D8D"/>
<ellipse cx="136.094" cy="234.865" rx="4.81851" ry="0.908532" transform="rotate(19.5904 136.094 234.865)" fill="#F34A4A"/>
<ellipse cx="137.582" cy="241.101" rx="4.81851" ry="0.908532" transform="rotate(-45.4675 137.582 241.101)" fill="#F34A4A"/>
<ellipse cx="144.135" cy="242.189" rx="4.81851" ry="0.908532" transform="rotate(-109.953 144.135 242.189)" fill="#F34A4A"/>
<ellipse cx="139.724" cy="231.949" rx="4.81851" ry="0.908532" transform="rotate(64.9732 139.724 231.949)" fill="#F34A4A"/>
<ellipse cx="145.445" cy="231.462" rx="4.81851" ry="0.908532" transform="rotate(108.629 145.445 231.462)" fill="#F34A4A"/>
<ellipse cx="149.941" cy="235.958" rx="4.81851" ry="0.908532" transform="rotate(163.901 149.941 235.958)" fill="#F34A4A"/>
<path d="M220.873 239.249C219.955 245.257 212.425 248.947 204.054 247.492C195.682 246.036 189.641 239.986 190.559 233.978C191.477 227.97 199.007 224.28 207.378 225.735C215.75 227.191 221.791 233.241 220.873 239.249Z" fill="#AF3828"/>
<path d="M237.279 210.035C236.361 216.043 228.831 219.734 220.46 218.278C212.089 216.822 206.047 210.772 206.965 204.764C207.883 198.756 215.413 195.066 223.784 196.521C232.156 197.977 238.198 204.027 237.279 210.035Z" fill="#AF3828"/>
<path d="M231.322 212.021C231.099 212.74 229.947 213.021 228.749 212.65C227.551 212.279 226.76 211.395 226.983 210.676C227.206 209.957 228.357 209.675 229.556 210.047C230.754 210.418 231.545 211.302 231.322 212.021Z" fill="#F88D8D"/>
<path d="M231.322 212.021C231.099 212.74 229.947 213.021 228.749 212.65C227.551 212.279 226.76 211.395 226.983 210.676C227.206 209.957 228.357 209.675 229.556 210.047C230.754 210.418 231.545 211.302 231.322 212.021Z" fill="#F88D8D"/>
<path d="M231.322 212.021C231.099 212.74 229.947 213.021 228.749 212.65C227.551 212.279 226.76 211.395 226.983 210.676C227.206 209.957 228.357 209.675 229.556 210.047C230.754 210.418 231.545 211.302 231.322 212.021Z" fill="#F88D8D"/>
<path d="M231.322 212.021C231.099 212.74 229.947 213.021 228.749 212.65C227.551 212.279 226.76 211.395 226.983 210.676C227.206 209.957 228.357 209.675 229.556 210.047C230.754 210.418 231.545 211.302 231.322 212.021Z" fill="#F88D8D"/>
<ellipse cx="222.002" cy="213.99" rx="2.27133" ry="1.3628" transform="rotate(68.7374 222.002 213.99)" fill="#F88D8D"/>
<ellipse cx="222.002" cy="213.99" rx="2.27133" ry="1.3628" transform="rotate(68.7374 222.002 213.99)" fill="#F88D8D"/>
<ellipse cx="222.002" cy="213.99" rx="2.27133" ry="1.3628" transform="rotate(68.7374 222.002 213.99)" fill="#F88D8D"/>
<ellipse cx="222.002" cy="213.99" rx="2.27133" ry="1.3628" transform="rotate(68.7374 222.002 213.99)" fill="#F88D8D"/>
<ellipse cx="214.335" cy="209.809" rx="2.27133" ry="1.3628" transform="rotate(167.357 214.335 209.809)" fill="#F88D8D"/>
<ellipse cx="214.335" cy="209.809" rx="2.27133" ry="1.3628" transform="rotate(167.357 214.335 209.809)" fill="#F88D8D"/>
<ellipse cx="214.335" cy="209.809" rx="2.27133" ry="1.3628" transform="rotate(167.357 214.335 209.809)" fill="#F88D8D"/>
<ellipse cx="214.335" cy="209.809" rx="2.27133" ry="1.3628" transform="rotate(167.357 214.335 209.809)" fill="#F88D8D"/>
<ellipse cx="215.903" cy="202.001" rx="2.27133" ry="1.3628" transform="rotate(-144.219 215.903 202.001)" fill="#F88D8D"/>
<ellipse cx="215.903" cy="202.001" rx="2.27133" ry="1.3628" transform="rotate(-144.219 215.903 202.001)" fill="#F88D8D"/>
<ellipse cx="215.903" cy="202.001" rx="2.27133" ry="1.3628" transform="rotate(-144.219 215.903 202.001)" fill="#F88D8D"/>
<ellipse cx="215.903" cy="202.001" rx="2.27133" ry="1.3628" transform="rotate(-144.219 215.903 202.001)" fill="#F88D8D"/>
<ellipse cx="221.935" cy="200.226" rx="2.27133" ry="1.3628" transform="rotate(-107.788 221.935 200.226)" fill="#F88D8D"/>
<ellipse cx="221.935" cy="200.226" rx="2.27133" ry="1.3628" transform="rotate(-107.788 221.935 200.226)" fill="#F88D8D"/>
<ellipse cx="221.935" cy="200.226" rx="2.27133" ry="1.3628" transform="rotate(-107.788 221.935 200.226)" fill="#F88D8D"/>
<ellipse cx="221.935" cy="200.226" rx="2.27133" ry="1.3628" transform="rotate(-107.788 221.935 200.226)" fill="#F88D8D"/>
<path d="M230.155 201.04C230.806 201.419 230.822 202.604 230.191 203.689C229.56 204.773 228.521 205.345 227.871 204.966C227.22 204.588 227.204 203.402 227.835 202.318C228.466 201.233 229.505 200.661 230.155 201.04Z" fill="#F88D8D"/>
<path d="M230.155 201.04C230.806 201.419 230.822 202.604 230.191 203.689C229.56 204.773 228.521 205.345 227.871 204.966C227.22 204.588 227.204 203.402 227.835 202.318C228.466 201.233 229.505 200.661 230.155 201.04Z" fill="#F88D8D"/>
<path d="M230.155 201.04C230.806 201.419 230.822 202.604 230.191 203.689C229.56 204.773 228.521 205.345 227.871 204.966C227.22 204.588 227.204 203.402 227.835 202.318C228.466 201.233 229.505 200.661 230.155 201.04Z" fill="#F88D8D"/>
<path d="M230.155 201.04C230.806 201.419 230.822 202.604 230.191 203.689C229.56 204.773 228.521 205.345 227.871 204.966C227.22 204.588 227.204 203.402 227.835 202.318C228.466 201.233 229.505 200.661 230.155 201.04Z" fill="#F88D8D"/>
<ellipse cx="216.466" cy="205.86" rx="4.81851" ry="0.908532" transform="rotate(19.5904 216.466 205.86)" fill="#F34A4A"/>
<ellipse cx="217.955" cy="212.097" rx="4.81851" ry="0.908532" transform="rotate(-45.4675 217.955 212.097)" fill="#F34A4A"/>
<ellipse cx="224.508" cy="213.186" rx="4.81851" ry="0.908532" transform="rotate(-109.953 224.508 213.186)" fill="#F34A4A"/>
<ellipse cx="220.096" cy="202.944" rx="4.81851" ry="0.908532" transform="rotate(64.9732 220.096 202.944)" fill="#F34A4A"/>
<ellipse cx="225.817" cy="202.458" rx="4.81851" ry="0.908532" transform="rotate(108.629 225.817 202.458)" fill="#F34A4A"/>
<ellipse cx="230.314" cy="206.954" rx="4.81851" ry="0.908532" transform="rotate(163.901 230.314 206.954)" fill="#F34A4A"/>
<path d="M282.173 226.093C281.255 232.101 273.724 235.791 265.353 234.336C256.982 232.88 250.94 226.83 251.858 220.822C252.776 214.814 260.306 211.123 268.678 212.579C277.049 214.034 283.091 220.085 282.173 226.093Z" fill="#AF3828"/>
<path d="M276.215 228.078C275.992 228.797 274.84 229.079 273.642 228.708C272.444 228.337 271.653 227.453 271.876 226.734C272.099 226.015 273.251 225.733 274.449 226.104C275.647 226.476 276.438 227.359 276.215 228.078Z" fill="#F88D8D"/>
<path d="M276.215 228.078C275.992 228.797 274.84 229.079 273.642 228.708C272.444 228.337 271.653 227.453 271.876 226.734C272.099 226.015 273.251 225.733 274.449 226.104C275.647 226.476 276.438 227.359 276.215 228.078Z" fill="#F88D8D"/>
<path d="M276.215 228.078C275.992 228.797 274.84 229.079 273.642 228.708C272.444 228.337 271.653 227.453 271.876 226.734C272.099 226.015 273.251 225.733 274.449 226.104C275.647 226.476 276.438 227.359 276.215 228.078Z" fill="#F88D8D"/>
<path d="M276.215 228.078C275.992 228.797 274.84 229.079 273.642 228.708C272.444 228.337 271.653 227.453 271.876 226.734C272.099 226.015 273.251 225.733 274.449 226.104C275.647 226.476 276.438 227.359 276.215 228.078Z" fill="#F88D8D"/>
<ellipse cx="266.895" cy="230.047" rx="2.27133" ry="1.3628" transform="rotate(68.7374 266.895 230.047)" fill="#F88D8D"/>
<ellipse cx="266.895" cy="230.047" rx="2.27133" ry="1.3628" transform="rotate(68.7374 266.895 230.047)" fill="#F88D8D"/>
<ellipse cx="266.895" cy="230.047" rx="2.27133" ry="1.3628" transform="rotate(68.7374 266.895 230.047)" fill="#F88D8D"/>
<ellipse cx="266.895" cy="230.047" rx="2.27133" ry="1.3628" transform="rotate(68.7374 266.895 230.047)" fill="#F88D8D"/>
<ellipse cx="259.228" cy="225.867" rx="2.27133" ry="1.3628" transform="rotate(167.357 259.228 225.867)" fill="#F88D8D"/>
<ellipse cx="259.228" cy="225.867" rx="2.27133" ry="1.3628" transform="rotate(167.357 259.228 225.867)" fill="#F88D8D"/>
<ellipse cx="259.228" cy="225.867" rx="2.27133" ry="1.3628" transform="rotate(167.357 259.228 225.867)" fill="#F88D8D"/>
<ellipse cx="259.228" cy="225.867" rx="2.27133" ry="1.3628" transform="rotate(167.357 259.228 225.867)" fill="#F88D8D"/>
<ellipse cx="260.796" cy="218.059" rx="2.27133" ry="1.3628" transform="rotate(-144.219 260.796 218.059)" fill="#F88D8D"/>
<ellipse cx="260.796" cy="218.059" rx="2.27133" ry="1.3628" transform="rotate(-144.219 260.796 218.059)" fill="#F88D8D"/>
<ellipse cx="260.796" cy="218.059" rx="2.27133" ry="1.3628" transform="rotate(-144.219 260.796 218.059)" fill="#F88D8D"/>
<ellipse cx="260.796" cy="218.059" rx="2.27133" ry="1.3628" transform="rotate(-144.219 260.796 218.059)" fill="#F88D8D"/>
<ellipse cx="266.828" cy="216.284" rx="2.27133" ry="1.3628" transform="rotate(-107.788 266.828 216.284)" fill="#F88D8D"/>
<ellipse cx="266.828" cy="216.284" rx="2.27133" ry="1.3628" transform="rotate(-107.788 266.828 216.284)" fill="#F88D8D"/>
<ellipse cx="266.828" cy="216.284" rx="2.27133" ry="1.3628" transform="rotate(-107.788 266.828 216.284)" fill="#F88D8D"/>
<ellipse cx="266.828" cy="216.284" rx="2.27133" ry="1.3628" transform="rotate(-107.788 266.828 216.284)" fill="#F88D8D"/>
<path d="M275.049 217.098C275.699 217.476 275.715 218.662 275.084 219.746C274.453 220.83 273.414 221.402 272.764 221.024C272.113 220.645 272.097 219.459 272.728 218.375C273.359 217.291 274.398 216.719 275.049 217.098Z" fill="#F88D8D"/>
<path d="M275.049 217.098C275.699 217.476 275.715 218.662 275.084 219.746C274.453 220.83 273.414 221.402 272.764 221.024C272.113 220.645 272.097 219.459 272.728 218.375C273.359 217.291 274.398 216.719 275.049 217.098Z" fill="#F88D8D"/>
<path d="M275.049 217.098C275.699 217.476 275.715 218.662 275.084 219.746C274.453 220.83 273.414 221.402 272.764 221.024C272.113 220.645 272.097 219.459 272.728 218.375C273.359 217.291 274.398 216.719 275.049 217.098Z" fill="#F88D8D"/>
<path d="M275.049 217.098C275.699 217.476 275.715 218.662 275.084 219.746C274.453 220.83 273.414 221.402 272.764 221.024C272.113 220.645 272.097 219.459 272.728 218.375C273.359 217.291 274.398 216.719 275.049 217.098Z" fill="#F88D8D"/>
<ellipse cx="261.359" cy="221.918" rx="4.81851" ry="0.908532" transform="rotate(19.5904 261.359 221.918)" fill="#F34A4A"/>
<ellipse cx="262.848" cy="228.154" rx="4.81851" ry="0.908532" transform="rotate(-45.4675 262.848 228.154)" fill="#F34A4A"/>
<ellipse cx="269.401" cy="229.243" rx="4.81851" ry="0.908532" transform="rotate(-109.953 269.401 229.243)" fill="#F34A4A"/>
<ellipse cx="264.989" cy="219.001" rx="4.81851" ry="0.908532" transform="rotate(64.9732 264.989 219.001)" fill="#F34A4A"/>
<ellipse cx="270.71" cy="218.515" rx="4.81851" ry="0.908532" transform="rotate(108.629 270.71 218.515)" fill="#F34A4A"/>
<ellipse cx="275.207" cy="223.012" rx="4.81851" ry="0.908532" transform="rotate(163.901 275.207 223.012)" fill="#F34A4A"/>
<ellipse cx="15.3968" cy="10.9965" rx="15.3968" ry="10.9965" transform="matrix(0.978302 0.207185 -0.185474 0.982649 128.953 222.751)" fill="#AF3828"/>
<ellipse cx="15.3968" cy="10.9965" rx="15.3968" ry="10.9965" transform="matrix(0.978302 0.207185 -0.185474 0.982649 209.325 193.746)" fill="#AF3828"/>
<path d="M275.866 305.981C279.887 310.538 277.889 318.683 271.403 324.172C264.918 329.661 256.401 330.416 252.38 325.859C248.359 321.301 250.357 313.157 256.843 307.667C263.329 302.178 271.846 301.423 275.866 305.981Z" fill="#AF3828"/>
<path d="M273.569 311.826C273.978 312.458 273.455 313.522 272.402 314.204C271.348 314.885 270.163 314.925 269.754 314.293C269.346 313.661 269.868 312.596 270.922 311.915C271.975 311.234 273.16 311.194 273.569 311.826Z" fill="#F88D8D"/>
<path d="M273.569 311.826C273.978 312.458 273.455 313.522 272.402 314.204C271.348 314.885 270.163 314.925 269.754 314.293C269.346 313.661 269.868 312.596 270.922 311.915C271.975 311.234 273.16 311.194 273.569 311.826Z" fill="#F88D8D"/>
<path d="M273.569 311.826C273.978 312.458 273.455 313.522 272.402 314.204C271.348 314.885 270.163 314.925 269.754 314.293C269.346 313.661 269.868 312.596 270.922 311.915C271.975 311.234 273.16 311.194 273.569 311.826Z" fill="#F88D8D"/>
<path d="M273.569 311.826C273.978 312.458 273.455 313.522 272.402 314.204C271.348 314.885 270.163 314.925 269.754 314.293C269.346 313.661 269.868 312.596 270.922 311.915C271.975 311.234 273.16 311.194 273.569 311.826Z" fill="#F88D8D"/>
<ellipse cx="269.102" cy="320.239" rx="2.27133" ry="1.3628" transform="rotate(18.6302 269.102 320.239)" fill="#F88D8D"/>
<ellipse cx="269.102" cy="320.239" rx="2.27133" ry="1.3628" transform="rotate(18.6302 269.102 320.239)" fill="#F88D8D"/>
<ellipse cx="269.102" cy="320.239" rx="2.27133" ry="1.3628" transform="rotate(18.6302 269.102 320.239)" fill="#F88D8D"/>
<ellipse cx="269.102" cy="320.239" rx="2.27133" ry="1.3628" transform="rotate(18.6302 269.102 320.239)" fill="#F88D8D"/>
<ellipse cx="260.978" cy="323.44" rx="2.27133" ry="1.3628" transform="rotate(117.249 260.978 323.44)" fill="#F88D8D"/>
<ellipse cx="260.978" cy="323.44" rx="2.27133" ry="1.3628" transform="rotate(117.249 260.978 323.44)" fill="#F88D8D"/>
<ellipse cx="260.978" cy="323.44" rx="2.27133" ry="1.3628" transform="rotate(117.249 260.978 323.44)" fill="#F88D8D"/>
<ellipse cx="260.978" cy="323.44" rx="2.27133" ry="1.3628" transform="rotate(117.249 260.978 323.44)" fill="#F88D8D"/>
<ellipse cx="255.992" cy="317.229" rx="2.27133" ry="1.3628" transform="rotate(165.674 255.992 317.229)" fill="#F88D8D"/>
<ellipse cx="255.992" cy="317.229" rx="2.27133" ry="1.3628" transform="rotate(165.674 255.992 317.229)" fill="#F88D8D"/>
<ellipse cx="255.992" cy="317.229" rx="2.27133" ry="1.3628" transform="rotate(165.674 255.992 317.229)" fill="#F88D8D"/>
<ellipse cx="255.992" cy="317.229" rx="2.27133" ry="1.3628" transform="rotate(165.674 255.992 317.229)" fill="#F88D8D"/>
<ellipse cx="258.5" cy="311.464" rx="2.27133" ry="1.3628" transform="rotate(-157.896 258.5 311.464)" fill="#F88D8D"/>
<ellipse cx="258.5" cy="311.464" rx="2.27133" ry="1.3628" transform="rotate(-157.896 258.5 311.464)" fill="#F88D8D"/>
<ellipse cx="258.5" cy="311.464" rx="2.27133" ry="1.3628" transform="rotate(-157.896 258.5 311.464)" fill="#F88D8D"/>
<ellipse cx="258.5" cy="311.464" rx="2.27133" ry="1.3628" transform="rotate(-157.896 258.5 311.464)" fill="#F88D8D"/>
<path d="M264.396 305.678C265.104 305.422 266.024 306.17 266.451 307.349C266.878 308.529 266.65 309.693 265.943 309.949C265.235 310.205 264.315 309.457 263.888 308.277C263.461 307.098 263.688 305.934 264.396 305.678Z" fill="#F88D8D"/>
<path d="M264.396 305.678C265.104 305.422 266.024 306.17 266.451 307.349C266.878 308.529 266.65 309.693 265.943 309.949C265.235 310.205 264.315 309.457 263.888 308.277C263.461 307.098 263.688 305.934 264.396 305.678Z" fill="#F88D8D"/>
<path d="M264.396 305.678C265.104 305.422 266.024 306.17 266.451 307.349C266.878 308.529 266.65 309.693 265.943 309.949C265.235 310.205 264.315 309.457 263.888 308.277C263.461 307.098 263.688 305.934 264.396 305.678Z" fill="#F88D8D"/>
<path d="M264.396 305.678C265.104 305.422 266.024 306.17 266.451 307.349C266.878 308.529 266.65 309.693 265.943 309.949C265.235 310.205 264.315 309.457 263.888 308.277C263.461 307.098 263.688 305.934 264.396 305.678Z" fill="#F88D8D"/>
<ellipse cx="259.315" cy="319.272" rx="4.81851" ry="0.908532" transform="rotate(-30.5168 259.315 319.272)" fill="#F34A4A"/>
<ellipse cx="265.054" cy="322.13" rx="4.81851" ry="0.908532" transform="rotate(-95.5746 265.054 322.13)" fill="#F34A4A"/>
<ellipse cx="270.092" cy="317.8" rx="4.81851" ry="0.908532" transform="rotate(-160.06 270.092 317.8)" fill="#F34A4A"/>
<ellipse cx="259.405" cy="314.617" rx="4.81851" ry="0.908532" transform="rotate(14.8661 259.405 314.617)" fill="#F34A4A"/>
<ellipse cx="262.701" cy="309.915" rx="4.81851" ry="0.908532" transform="rotate(58.5218 262.701 309.915)" fill="#F34A4A"/>
<ellipse cx="269.034" cy="309.349" rx="4.81851" ry="0.908532" transform="rotate(113.794 269.034 309.349)" fill="#F34A4A"/>
<path d="M373.77 310.189C379.846 310.051 384.786 316.828 384.804 325.324C384.822 333.821 379.911 340.821 373.835 340.958C367.759 341.096 362.818 334.319 362.801 325.822C362.783 317.326 367.694 310.326 373.77 310.189Z" fill="#AF3828"/>
<path d="M376.759 315.712C377.506 315.807 377.983 316.893 377.825 318.137C377.667 319.382 376.934 320.314 376.187 320.219C375.44 320.124 374.963 319.039 375.121 317.794C375.279 316.55 376.012 315.618 376.759 315.712Z" fill="#F88D8D"/>
<path d="M376.759 315.712C377.506 315.807 377.983 316.893 377.825 318.137C377.667 319.382 376.934 320.314 376.187 320.219C375.44 320.124 374.963 319.039 375.121 317.794C375.279 316.55 376.012 315.618 376.759 315.712Z" fill="#F88D8D"/>
<path d="M376.759 315.712C377.506 315.807 377.983 316.893 377.825 318.137C377.667 319.382 376.934 320.314 376.187 320.219C375.44 320.124 374.963 319.039 375.121 317.794C375.279 316.55 376.012 315.618 376.759 315.712Z" fill="#F88D8D"/>
<path d="M376.759 315.712C377.506 315.807 377.983 316.893 377.825 318.137C377.667 319.382 376.934 320.314 376.187 320.219C375.44 320.124 374.963 319.039 375.121 317.794C375.279 316.55 376.012 315.618 376.759 315.712Z" fill="#F88D8D"/>
<ellipse cx="380.314" cy="324.549" rx="2.27133" ry="1.3628" transform="rotate(-31.2468 380.314 324.549)" fill="#F88D8D"/>
<ellipse cx="380.314" cy="324.549" rx="2.27133" ry="1.3628" transform="rotate(-31.2468 380.314 324.549)" fill="#F88D8D"/>
<ellipse cx="380.314" cy="324.549" rx="2.27133" ry="1.3628" transform="rotate(-31.2468 380.314 324.549)" fill="#F88D8D"/>
<ellipse cx="380.314" cy="324.549" rx="2.27133" ry="1.3628" transform="rotate(-31.2468 380.314 324.549)" fill="#F88D8D"/>
<ellipse cx="377.526" cy="332.824" rx="2.27133" ry="1.3628" transform="rotate(67.3723 377.526 332.824)" fill="#F88D8D"/>
<ellipse cx="377.526" cy="332.824" rx="2.27133" ry="1.3628" transform="rotate(67.3723 377.526 332.824)" fill="#F88D8D"/>
<ellipse cx="377.526" cy="332.824" rx="2.27133" ry="1.3628" transform="rotate(67.3723 377.526 332.824)" fill="#F88D8D"/>
<ellipse cx="377.526" cy="332.824" rx="2.27133" ry="1.3628" transform="rotate(67.3723 377.526 332.824)" fill="#F88D8D"/>
<ellipse cx="369.564" cy="332.636" rx="2.27133" ry="1.3628" transform="rotate(115.797 369.564 332.636)" fill="#F88D8D"/>
<ellipse cx="369.564" cy="332.636" rx="2.27133" ry="1.3628" transform="rotate(115.797 369.564 332.636)" fill="#F88D8D"/>
<ellipse cx="369.564" cy="332.636" rx="2.27133" ry="1.3628" transform="rotate(115.797 369.564 332.636)" fill="#F88D8D"/>
<ellipse cx="369.564" cy="332.636" rx="2.27133" ry="1.3628" transform="rotate(115.797 369.564 332.636)" fill="#F88D8D"/>
<ellipse cx="366.771" cy="327.002" rx="2.27133" ry="1.3628" transform="rotate(152.227 366.771 327.002)" fill="#F88D8D"/>
<ellipse cx="366.771" cy="327.002" rx="2.27133" ry="1.3628" transform="rotate(152.227 366.771 327.002)" fill="#F88D8D"/>
<ellipse cx="366.771" cy="327.002" rx="2.27133" ry="1.3628" transform="rotate(152.227 366.771 327.002)" fill="#F88D8D"/>
<ellipse cx="366.771" cy="327.002" rx="2.27133" ry="1.3628" transform="rotate(152.227 366.771 327.002)" fill="#F88D8D"/>
<path d="M366.146 318.764C366.407 318.058 367.572 317.837 368.749 318.27C369.926 318.704 370.669 319.628 370.409 320.334C370.149 321.04 368.984 321.261 367.807 320.828C366.63 320.394 365.886 319.471 366.146 318.764Z" fill="#F88D8D"/>
<path d="M366.146 318.764C366.407 318.058 367.572 317.837 368.749 318.27C369.926 318.704 370.669 319.628 370.409 320.334C370.149 321.04 368.984 321.261 367.807 320.828C366.63 320.394 365.886 319.471 366.146 318.764Z" fill="#F88D8D"/>
<path d="M366.146 318.764C366.407 318.058 367.572 317.837 368.749 318.27C369.926 318.704 370.669 319.628 370.409 320.334C370.149 321.04 368.984 321.261 367.807 320.828C366.63 320.394 365.886 319.471 366.146 318.764Z" fill="#F88D8D"/>
<path d="M366.146 318.764C366.407 318.058 367.572 317.837 368.749 318.27C369.926 318.704 370.669 319.628 370.409 320.334C370.149 321.04 368.984 321.261 367.807 320.828C366.63 320.394 365.886 319.471 366.146 318.764Z" fill="#F88D8D"/>
<ellipse cx="373.267" cy="331.41" rx="4.81851" ry="0.908532" transform="rotate(-80.3938 373.267 331.41)" fill="#F34A4A"/>
<ellipse cx="379.151" cy="328.863" rx="4.81851" ry="0.908532" transform="rotate(-145.452 379.151 328.863)" fill="#F34A4A"/>
<ellipse cx="379.088" cy="322.221" rx="4.81851" ry="0.908532" transform="rotate(150.063 379.088 322.221)" fill="#F34A4A"/>
<ellipse cx="369.766" cy="328.341" rx="4.81851" ry="0.908532" transform="rotate(-35.011 369.766 328.341)" fill="#F34A4A"/>
<ellipse cx="368.295" cy="322.791" rx="4.81851" ry="0.908532" transform="rotate(8.64473 368.295 322.791)" fill="#F34A4A"/>
<ellipse cx="371.943" cy="317.583" rx="4.81851" ry="0.908532" transform="rotate(63.9169 371.943 317.583)" fill="#F34A4A"/>
<path d="M441.984 368.842C448.06 368.705 453.001 375.482 453.018 383.978C453.036 392.475 448.125 399.474 442.049 399.612C435.973 399.749 431.033 392.973 431.015 384.476C430.997 375.979 435.908 368.98 441.984 368.842Z" fill="#AF3828"/>
<path d="M444.973 374.366C445.719 374.46 446.197 375.546 446.039 376.79C445.881 378.035 445.148 378.967 444.401 378.872C443.654 378.778 443.177 377.692 443.335 376.447C443.493 375.203 444.226 374.271 444.973 374.366Z" fill="#F88D8D"/>
<path d="M444.973 374.366C445.719 374.46 446.197 375.546 446.039 376.79C445.881 378.035 445.148 378.967 444.401 378.872C443.654 378.778 443.177 377.692 443.335 376.447C443.493 375.203 444.226 374.271 444.973 374.366Z" fill="#F88D8D"/>
<path d="M444.973 374.366C445.719 374.46 446.197 375.546 446.039 376.79C445.881 378.035 445.148 378.967 444.401 378.872C443.654 378.778 443.177 377.692 443.335 376.447C443.493 375.203 444.226 374.271 444.973 374.366Z" fill="#F88D8D"/>
<path d="M444.973 374.366C445.719 374.46 446.197 375.546 446.039 376.79C445.881 378.035 445.148 378.967 444.401 378.872C443.654 378.778 443.177 377.692 443.335 376.447C443.493 375.203 444.226 374.271 444.973 374.366Z" fill="#F88D8D"/>
<ellipse cx="448.528" cy="383.203" rx="2.27133" ry="1.3628" transform="rotate(-31.2468 448.528 383.203)" fill="#F88D8D"/>
<ellipse cx="448.528" cy="383.203" rx="2.27133" ry="1.3628" transform="rotate(-31.2468 448.528 383.203)" fill="#F88D8D"/>
<ellipse cx="448.528" cy="383.203" rx="2.27133" ry="1.3628" transform="rotate(-31.2468 448.528 383.203)" fill="#F88D8D"/>
<ellipse cx="448.528" cy="383.203" rx="2.27133" ry="1.3628" transform="rotate(-31.2468 448.528 383.203)" fill="#F88D8D"/>
<ellipse cx="445.74" cy="391.478" rx="2.27133" ry="1.3628" transform="rotate(67.3723 445.74 391.478)" fill="#F88D8D"/>
<ellipse cx="445.74" cy="391.478" rx="2.27133" ry="1.3628" transform="rotate(67.3723 445.74 391.478)" fill="#F88D8D"/>
<ellipse cx="445.74" cy="391.478" rx="2.27133" ry="1.3628" transform="rotate(67.3723 445.74 391.478)" fill="#F88D8D"/>
<ellipse cx="445.74" cy="391.478" rx="2.27133" ry="1.3628" transform="rotate(67.3723 445.74 391.478)" fill="#F88D8D"/>
<ellipse cx="437.778" cy="391.288" rx="2.27133" ry="1.3628" transform="rotate(115.797 437.778 391.288)" fill="#F88D8D"/>
<ellipse cx="437.778" cy="391.288" rx="2.27133" ry="1.3628" transform="rotate(115.797 437.778 391.288)" fill="#F88D8D"/>
<ellipse cx="437.778" cy="391.288" rx="2.27133" ry="1.3628" transform="rotate(115.797 437.778 391.288)" fill="#F88D8D"/>
<ellipse cx="437.778" cy="391.288" rx="2.27133" ry="1.3628" transform="rotate(115.797 437.778 391.288)" fill="#F88D8D"/>
<ellipse cx="434.985" cy="385.655" rx="2.27133" ry="1.3628" transform="rotate(152.227 434.985 385.655)" fill="#F88D8D"/>
<ellipse cx="434.985" cy="385.655" rx="2.27133" ry="1.3628" transform="rotate(152.227 434.985 385.655)" fill="#F88D8D"/>
<ellipse cx="434.985" cy="385.655" rx="2.27133" ry="1.3628" transform="rotate(152.227 434.985 385.655)" fill="#F88D8D"/>
<ellipse cx="434.985" cy="385.655" rx="2.27133" ry="1.3628" transform="rotate(152.227 434.985 385.655)" fill="#F88D8D"/>
<path d="M434.36 377.418C434.62 376.712 435.786 376.491 436.963 376.924C438.14 377.357 438.883 378.281 438.623 378.988C438.363 379.694 437.198 379.915 436.021 379.482C434.844 379.048 434.1 378.124 434.36 377.418Z" fill="#F88D8D"/>
<path d="M434.36 377.418C434.62 376.712 435.786 376.491 436.963 376.924C438.14 377.357 438.883 378.281 438.623 378.988C438.363 379.694 437.198 379.915 436.021 379.482C434.844 379.048 434.1 378.124 434.36 377.418Z" fill="#F88D8D"/>
<path d="M434.36 377.418C434.62 376.712 435.786 376.491 436.963 376.924C438.14 377.357 438.883 378.281 438.623 378.988C438.363 379.694 437.198 379.915 436.021 379.482C434.844 379.048 434.1 378.124 434.36 377.418Z" fill="#F88D8D"/>
<path d="M434.36 377.418C434.62 376.712 435.786 376.491 436.963 376.924C438.14 377.357 438.883 378.281 438.623 378.988C438.363 379.694 437.198 379.915 436.021 379.482C434.844 379.048 434.1 378.124 434.36 377.418Z" fill="#F88D8D"/>
<ellipse cx="441.481" cy="390.064" rx="4.81851" ry="0.908532" transform="rotate(-80.3938 441.481 390.064)" fill="#F34A4A"/>
<ellipse cx="447.365" cy="387.517" rx="4.81851" ry="0.908532" transform="rotate(-145.452 447.365 387.517)" fill="#F34A4A"/>
<ellipse cx="447.301" cy="380.875" rx="4.81851" ry="0.908532" transform="rotate(150.063 447.301 380.875)" fill="#F34A4A"/>
<ellipse cx="437.98" cy="386.995" rx="4.81851" ry="0.908532" transform="rotate(-35.011 437.98 386.995)" fill="#F34A4A"/>
<ellipse cx="436.509" cy="381.445" rx="4.81851" ry="0.908532" transform="rotate(8.64473 436.509 381.445)" fill="#F34A4A"/>
<ellipse cx="440.157" cy="376.237" rx="4.81851" ry="0.908532" transform="rotate(63.9169 440.157 376.237)" fill="#F34A4A"/>
<path d="M282.85 269.132C286.215 274.193 283.13 281.991 275.959 286.549C268.788 291.107 260.247 290.699 256.882 285.637C253.518 280.576 256.603 272.778 263.774 268.22C270.945 263.662 279.485 264.07 282.85 269.132Z" fill="#AF3828"/>
<path d="M444.107 366.347C454.967 365.645 463.217 374.583 462.533 386.309C461.85 398.034 452.492 408.109 441.632 408.81C430.772 409.511 422.523 400.574 423.206 388.848C423.889 377.122 433.247 367.048 444.107 366.347Z" fill="#F54A33"/>
<path d="M448.978 373.718C450.303 373.786 451.064 375.244 450.677 376.975C450.29 378.706 448.903 380.054 447.578 379.986C446.252 379.918 445.492 378.46 445.878 376.729C446.265 374.998 447.653 373.65 448.978 373.718Z" fill="#F88D8D"/>
<path d="M448.978 373.718C450.303 373.786 451.064 375.244 450.677 376.975C450.29 378.706 448.903 380.054 447.578 379.986C446.252 379.918 445.492 378.46 445.878 376.729C446.265 374.998 447.653 373.65 448.978 373.718Z" fill="#F88D8D"/>
<path d="M448.978 373.718C450.303 373.786 451.064 375.244 450.677 376.975C450.29 378.706 448.903 380.054 447.578 379.986C446.252 379.918 445.492 378.46 445.878 376.729C446.265 374.998 447.653 373.65 448.978 373.718Z" fill="#F88D8D"/>
<path d="M448.978 373.718C450.303 373.786 451.064 375.244 450.677 376.975C450.29 378.706 448.903 380.054 447.578 379.986C446.252 379.918 445.492 378.46 445.878 376.729C446.265 374.998 447.653 373.65 448.978 373.718Z" fill="#F88D8D"/>
<ellipse cx="3.99002" cy="1.93731" rx="3.99002" ry="1.93731" transform="matrix(0.893768 -0.44853 0.600857 0.799357 449.85 385.857)" fill="#F88D8D"/>
<ellipse cx="3.99002" cy="1.93731" rx="3.99002" ry="1.93731" transform="matrix(0.893768 -0.44853 0.600857 0.799357 449.85 385.857)" fill="#F88D8D"/>
<ellipse cx="3.99002" cy="1.93731" rx="3.99002" ry="1.93731" transform="matrix(0.893768 -0.44853 0.600857 0.799357 449.85 385.857)" fill="#F88D8D"/>
<ellipse cx="3.99002" cy="1.93731" rx="3.99002" ry="1.93731" transform="matrix(0.893768 -0.44853 0.600857 0.799357 449.85 385.857)" fill="#F88D8D"/>
<ellipse cx="3.14125" cy="2.43561" rx="3.14125" ry="2.43561" transform="matrix(0.4405 0.897752 -0.940207 0.340603 449.813 393.624)" fill="#F88D8D"/>
<ellipse cx="3.14125" cy="2.43561" rx="3.14125" ry="2.43561" transform="matrix(0.4405 0.897752 -0.940207 0.340603 449.813 393.624)" fill="#F88D8D"/>
<ellipse cx="3.14125" cy="2.43561" rx="3.14125" ry="2.43561" transform="matrix(0.4405 0.897752 -0.940207 0.340603 449.813 393.624)" fill="#F88D8D"/>
<ellipse cx="3.14125" cy="2.43561" rx="3.14125" ry="2.43561" transform="matrix(0.4405 0.897752 -0.940207 0.340603 449.813 393.624)" fill="#F88D8D"/>
<ellipse cx="3.49211" cy="2.25706" rx="3.49211" ry="2.25706" transform="matrix(-0.554646 0.832086 -0.948459 -0.316899 438.786 395.492)" fill="#F88D8D"/>
<ellipse cx="3.49211" cy="2.25706" rx="3.49211" ry="2.25706" transform="matrix(-0.554646 0.832086 -0.948459 -0.316899 438.786 395.492)" fill="#F88D8D"/>
<ellipse cx="3.49211" cy="2.25706" rx="3.49211" ry="2.25706" transform="matrix(-0.554646 0.832086 -0.948459 -0.316899 438.786 395.492)" fill="#F88D8D"/>
<ellipse cx="3.49211" cy="2.25706" rx="3.49211" ry="2.25706" transform="matrix(-0.554646 0.832086 -0.948459 -0.316899 438.786 395.492)" fill="#F88D8D"/>
<ellipse cx="4.02222" cy="1.91319" rx="4.02222" ry="1.91319" transform="matrix(-0.914212 0.405236 -0.539541 -0.841959 434.905 390.124)" fill="#F88D8D"/>
<ellipse cx="4.02222" cy="1.91319" rx="4.02222" ry="1.91319" transform="matrix(-0.914212 0.405236 -0.539541 -0.841959 434.905 390.124)" fill="#F88D8D"/>
<ellipse cx="4.02222" cy="1.91319" rx="4.02222" ry="1.91319" transform="matrix(-0.914212 0.405236 -0.539541 -0.841959 434.905 390.124)" fill="#F88D8D"/>
<ellipse cx="4.02222" cy="1.91319" rx="4.02222" ry="1.91319" transform="matrix(-0.914212 0.405236 -0.539541 -0.841959 434.905 390.124)" fill="#F88D8D"/>
<path d="M429.773 378.824C430.297 377.827 432.396 377.424 434.461 377.923C436.526 378.422 437.776 379.635 437.252 380.632C436.728 381.628 434.63 382.032 432.564 381.533C430.499 381.034 429.25 379.821 429.773 378.824Z" fill="#F88D8D"/>
<path d="M429.773 378.824C430.297 377.827 432.396 377.424 434.461 377.923C436.526 378.422 437.776 379.635 437.252 380.632C436.728 381.628 434.63 382.032 432.564 381.533C430.499 381.034 429.25 379.821 429.773 378.824Z" fill="#F88D8D"/>
<path d="M429.773 378.824C430.297 377.827 432.396 377.424 434.461 377.923C436.526 378.422 437.776 379.635 437.252 380.632C436.728 381.628 434.63 382.032 432.564 381.533C430.499 381.034 429.25 379.821 429.773 378.824Z" fill="#F88D8D"/>
<path d="M429.773 378.824C430.297 377.827 432.396 377.424 434.461 377.923C436.526 378.422 437.776 379.635 437.252 380.632C436.728 381.628 434.63 382.032 432.564 381.533C430.499 381.034 429.25 379.821 429.773 378.824Z" fill="#F88D8D"/>
<ellipse cx="6.87463" cy="1.59222" rx="6.87463" ry="1.59222" transform="matrix(0.267004 -0.963695 0.99646 0.0840633 438 402.171)" fill="#FBE3E3"/>
<ellipse cx="7.66927" cy="1.45749" rx="7.66927" ry="1.45749" transform="matrix(-0.893927 -0.448213 0.674365 -0.738398 458.015 396.183)" fill="#FFF3F3"/>
<ellipse cx="8.49176" cy="1.28519" rx="8.49176" ry="1.28519" transform="matrix(-0.901758 0.432242 -0.578297 -0.815826 460.988 379.884)" fill="#FFFDFD"/>
<ellipse cx="8.3778" cy="1.31152" rx="8.3778" ry="1.31152" transform="matrix(0.868831 -0.495108 0.661833 0.749651 427.283 394.903)" fill="#FFF2F2"/>
<ellipse cx="8.46542" cy="1.29136" rx="8.46542" ry="1.29136" transform="matrix(0.997497 0.0707124 -0.247356 0.968925 425.145 382.353)" fill="#FCEBEB"/>
<ellipse cx="6.72795" cy="1.61434" rx="6.72795" ry="1.61434" transform="matrix(0.508054 0.861325 -0.9233 0.384079 438.295 370.292)" fill="#FFF8F8"/>
<path d="M358.269 111.429C347.899 114.729 337.737 108.045 335.573 96.5001C333.408 84.9555 340.06 72.9219 350.43 69.6223C360.8 66.3228 370.962 73.0067 373.127 84.5514C375.291 96.096 368.639 108.13 358.269 111.429Z" fill="#F54A33"/>
<path d="M351.764 105.449C350.462 105.703 349.372 104.471 349.33 102.698C349.287 100.925 350.309 99.2818 351.611 99.0281C352.914 98.7745 354.004 100.006 354.046 101.779C354.088 103.552 353.067 105.195 351.764 105.449Z" fill="#F88D8D"/>
<path d="M351.764 105.449C350.462 105.703 349.372 104.471 349.33 102.698C349.287 100.925 350.309 99.2818 351.611 99.0281C352.914 98.7745 354.004 100.006 354.046 101.779C354.088 103.552 353.067 105.195 351.764 105.449Z" fill="#F88D8D"/>
<path d="M351.764 105.449C350.462 105.703 349.372 104.471 349.33 102.698C349.287 100.925 350.309 99.2818 351.611 99.0281C352.914 98.7745 354.004 100.006 354.046 101.779C354.088 103.552 353.067 105.195 351.764 105.449Z" fill="#F88D8D"/>
<path d="M351.764 105.449C350.462 105.703 349.372 104.471 349.33 102.698C349.287 100.925 350.309 99.2818 351.611 99.0281C352.914 98.7745 354.004 100.006 354.046 101.779C354.088 103.552 353.067 105.195 351.764 105.449Z" fill="#F88D8D"/>
<ellipse cx="3.99002" cy="1.93731" rx="3.99002" ry="1.93731" transform="matrix(-0.759218 0.650836 -0.775898 -0.630858 347.99 93.8794)" fill="#F88D8D"/>
<ellipse cx="3.99002" cy="1.93731" rx="3.99002" ry="1.93731" transform="matrix(-0.759218 0.650836 -0.775898 -0.630858 347.99 93.8794)" fill="#F88D8D"/>
<ellipse cx="3.99002" cy="1.93731" rx="3.99002" ry="1.93731" transform="matrix(-0.759218 0.650836 -0.775898 -0.630858 347.99 93.8794)" fill="#F88D8D"/>
<ellipse cx="3.99002" cy="1.93731" rx="3.99002" ry="1.93731" transform="matrix(-0.759218 0.650836 -0.775898 -0.630858 347.99 93.8794)" fill="#F88D8D"/>
<ellipse cx="3.14125" cy="2.43561" rx="3.14125" ry="2.43561" transform="matrix(-0.644004 -0.765022 0.830315 -0.557294 346.153 86.3335)" fill="#F88D8D"/>
<ellipse cx="3.14125" cy="2.43561" rx="3.14125" ry="2.43561" transform="matrix(-0.644004 -0.765022 0.830315 -0.557294 346.153 86.3335)" fill="#F88D8D"/>
<ellipse cx="3.14125" cy="2.43561" rx="3.14125" ry="2.43561" transform="matrix(-0.644004 -0.765022 0.830315 -0.557294 346.153 86.3335)" fill="#F88D8D"/>
<ellipse cx="3.14125" cy="2.43561" rx="3.14125" ry="2.43561" transform="matrix(-0.644004 -0.765022 0.830315 -0.557294 346.153 86.3335)" fill="#F88D8D"/>
<ellipse cx="3.49211" cy="2.25706" rx="3.49211" ry="2.25706" transform="matrix(0.337606 -0.941287 0.99689 0.0788108 356.405 81.8613)" fill="#F88D8D"/>
<ellipse cx="3.49211" cy="2.25706" rx="3.49211" ry="2.25706" transform="matrix(0.337606 -0.941287 0.99689 0.0788108 356.405 81.8613)" fill="#F88D8D"/>
<ellipse cx="3.49211" cy="2.25706" rx="3.49211" ry="2.25706" transform="matrix(0.337606 -0.941287 0.99689 0.0788108 356.405 81.8613)" fill="#F88D8D"/>
<ellipse cx="3.49211" cy="2.25706" rx="3.49211" ry="2.25706" transform="matrix(0.337606 -0.941287 0.99689 0.0788108 356.405 81.8613)" fill="#F88D8D"/>
<ellipse cx="4.02222" cy="1.91319" rx="4.02222" ry="1.91319" transform="matrix(0.7895 -0.61375 0.726667 0.68699 361.466 86.1357)" fill="#F88D8D"/>
<ellipse cx="4.02222" cy="1.91319" rx="4.02222" ry="1.91319" transform="matrix(0.7895 -0.61375 0.726667 0.68699 361.466 86.1357)" fill="#F88D8D"/>
<ellipse cx="4.02222" cy="1.91319" rx="4.02222" ry="1.91319" transform="matrix(0.7895 -0.61375 0.726667 0.68699 361.466 86.1357)" fill="#F88D8D"/>
<ellipse cx="4.02222" cy="1.91319" rx="4.02222" ry="1.91319" transform="matrix(0.7895 -0.61375 0.726667 0.68699 361.466 86.1357)" fill="#F88D8D"/>
<path d="M369.17 95.862C368.902 96.9557 366.963 97.8533 364.838 97.8669C362.714 97.8806 361.208 97.005 361.476 95.9114C361.744 94.8178 363.684 93.9202 365.808 93.9065C367.933 93.8929 369.438 94.7684 369.17 95.862Z" fill="#F88D8D"/>
<path d="M369.17 95.862C368.902 96.9557 366.963 97.8533 364.838 97.8669C362.714 97.8806 361.208 97.005 361.476 95.9114C361.744 94.8178 363.684 93.9202 365.808 93.9065C367.933 93.8929 369.438 94.7684 369.17 95.862Z" fill="#F88D8D"/>
<path d="M369.17 95.862C368.902 96.9557 366.963 97.8533 364.838 97.8669C362.714 97.8806 361.208 97.005 361.476 95.9114C361.744 94.8178 363.684 93.9202 365.808 93.9065C367.933 93.8929 369.438 94.7684 369.17 95.862Z" fill="#F88D8D"/>
<path d="M369.17 95.862C368.902 96.9557 366.963 97.8533 364.838 97.8669C362.714 97.8806 361.208 97.005 361.476 95.9114C361.744 94.8178 363.684 93.9202 365.808 93.9065C367.933 93.8929 369.438 94.7684 369.17 95.862Z" fill="#F88D8D"/>
<ellipse cx="6.87463" cy="1.59222" rx="6.87463" ry="1.59222" transform="matrix(-0.026715 0.999643 -0.987322 0.158728 355.556 75.189)" fill="#FBE3E3"/>
<ellipse cx="7.66927" cy="1.45749" rx="7.66927" ry="1.45749" transform="matrix(0.975635 0.219401 -0.476385 0.879237 337.577 85.8271)" fill="#FFF3F3"/>
<ellipse cx="8.49176" cy="1.28519" rx="8.49176" ry="1.28519" transform="matrix(0.7709 -0.636956 0.757976 0.652282 338.622 102.362)" fill="#FFFDFD"/>
<ellipse cx="8.3778" cy="1.31152" rx="8.3778" ry="1.31152" transform="matrix(-0.723785 0.690026 -0.823088 -0.567914 367.71 79.6577)" fill="#FFF2F2"/>
<ellipse cx="8.46542" cy="1.29136" rx="8.46542" ry="1.29136" transform="matrix(-0.985108 0.171935 0.00638569 -0.99998 372.811 91.3223)" fill="#FCEBEB"/>
<ellipse cx="6.72795" cy="1.61434" rx="6.72795" ry="1.61434" transform="matrix(-0.700779 -0.713379 0.803422 -0.59541 362.958 106.198)" fill="#FFF8F8"/>
<path d="M586.189 202.437C588.52 213.067 580.928 222.57 569.233 223.662C557.538 224.754 546.169 217.022 543.838 206.392C541.508 195.761 549.1 186.259 560.795 185.167C572.489 184.075 583.859 191.807 586.189 202.437Z" fill="#F54A33"/>
<path d="M579.636 208.364C579.769 209.685 578.442 210.657 576.673 210.535C574.903 210.414 573.361 209.245 573.229 207.925C573.096 206.605 574.423 205.633 576.192 205.754C577.962 205.876 579.504 207.044 579.636 208.364Z" fill="#F88D8D"/>
<path d="M579.636 208.364C579.769 209.685 578.442 210.657 576.673 210.535C574.903 210.414 573.361 209.245 573.229 207.925C573.096 206.605 574.423 205.633 576.192 205.754C577.962 205.876 579.504 207.044 579.636 208.364Z" fill="#F88D8D"/>
<path d="M579.636 208.364C579.769 209.685 578.442 210.657 576.673 210.535C574.903 210.414 573.361 209.245 573.229 207.925C573.096 206.605 574.423 205.633 576.192 205.754C577.962 205.876 579.504 207.044 579.636 208.364Z" fill="#F88D8D"/>
<path d="M579.636 208.364C579.769 209.685 578.442 210.657 576.673 210.535C574.903 210.414 573.361 209.245 573.229 207.925C573.096 206.605 574.423 205.633 576.192 205.754C577.962 205.876 579.504 207.044 579.636 208.364Z" fill="#F88D8D"/>
<ellipse cx="3.99002" cy="1.93731" rx="3.99002" ry="1.93731" transform="matrix(0.578134 0.815942 -0.699647 0.714489 567.768 211.057)" fill="#F88D8D"/>
<ellipse cx="3.99002" cy="1.93731" rx="3.99002" ry="1.93731" transform="matrix(0.578134 0.815942 -0.699647 0.714489 567.768 211.057)" fill="#F88D8D"/>
<ellipse cx="3.99002" cy="1.93731" rx="3.99002" ry="1.93731" transform="matrix(0.578134 0.815942 -0.699647 0.714489 567.768 211.057)" fill="#F88D8D"/>
<ellipse cx="3.99002" cy="1.93731" rx="3.99002" ry="1.93731" transform="matrix(0.578134 0.815942 -0.699647 0.714489 567.768 211.057)" fill="#F88D8D"/>
<ellipse cx="3.14125" cy="2.43561" rx="3.14125" ry="2.43561" transform="matrix(-0.821091 0.570797 -0.478441 -0.87812 560.085 212.19)" fill="#F88D8D"/>
<ellipse cx="3.14125" cy="2.43561" rx="3.14125" ry="2.43561" transform="matrix(-0.821091 0.570797 -0.478441 -0.87812 560.085 212.19)" fill="#F88D8D"/>
<ellipse cx="3.14125" cy="2.43561" rx="3.14125" ry="2.43561" transform="matrix(-0.821091 0.570797 -0.478441 -0.87812 560.085 212.19)" fill="#F88D8D"/>
<ellipse cx="3.14125" cy="2.43561" rx="3.14125" ry="2.43561" transform="matrix(-0.821091 0.570797 -0.478441 -0.87812 560.085 212.19)" fill="#F88D8D"/>
<ellipse cx="3.49211" cy="2.25706" rx="3.49211" ry="2.25706" transform="matrix(-0.906187 -0.422876 0.170303 -0.985392 556.576 201.571)" fill="#F88D8D"/>
<ellipse cx="3.49211" cy="2.25706" rx="3.49211" ry="2.25706" transform="matrix(-0.906187 -0.422876 0.170303 -0.985392 556.576 201.571)" fill="#F88D8D"/>
<ellipse cx="3.49211" cy="2.25706" rx="3.49211" ry="2.25706" transform="matrix(-0.906187 -0.422876 0.170303 -0.985392 556.576 201.571)" fill="#F88D8D"/>
<ellipse cx="3.49211" cy="2.25706" rx="3.49211" ry="2.25706" transform="matrix(-0.906187 -0.422876 0.170303 -0.985392 556.576 201.571)" fill="#F88D8D"/>
<ellipse cx="4.02222" cy="1.91319" rx="4.02222" ry="1.91319" transform="matrix(-0.538417 -0.842679 0.751006 -0.660296 561.298 196.924)" fill="#F88D8D"/>
<ellipse cx="4.02222" cy="1.91319" rx="4.02222" ry="1.91319" transform="matrix(-0.538417 -0.842679 0.751006 -0.660296 561.298 196.924)" fill="#F88D8D"/>
<ellipse cx="4.02222" cy="1.91319" rx="4.02222" ry="1.91319" transform="matrix(-0.538417 -0.842679 0.751006 -0.660296 561.298 196.924)" fill="#F88D8D"/>
<ellipse cx="4.02222" cy="1.91319" rx="4.02222" ry="1.91319" transform="matrix(-0.538417 -0.842679 0.751006 -0.660296 561.298 196.924)" fill="#F88D8D"/>
<path d="M571.693 190.149C572.758 190.516 573.473 192.53 573.291 194.647C573.108 196.764 572.098 198.182 571.034 197.814C569.969 197.447 569.254 195.433 569.436 193.316C569.619 191.199 570.629 189.781 571.693 190.149Z" fill="#F88D8D"/>
<path d="M571.693 190.149C572.758 190.516 573.473 192.53 573.291 194.647C573.108 196.764 572.098 198.182 571.034 197.814C569.969 197.447 569.254 195.433 569.436 193.316C569.619 191.199 570.629 189.781 571.693 190.149Z" fill="#F88D8D"/>
<path d="M571.693 190.149C572.758 190.516 573.473 192.53 573.291 194.647C573.108 196.764 572.098 198.182 571.034 197.814C569.969 197.447 569.254 195.433 569.436 193.316C569.619 191.199 570.629 189.781 571.693 190.149Z" fill="#F88D8D"/>
<path d="M571.693 190.149C572.758 190.516 573.473 192.53 573.291 194.647C573.108 196.764 572.098 198.182 571.034 197.814C569.969 197.447 569.254 195.433 569.436 193.316C569.619 191.199 570.629 189.781 571.693 190.149Z" fill="#F88D8D"/>
<ellipse cx="6.87463" cy="1.59222" rx="6.87463" ry="1.59222" transform="matrix(0.992932 0.118682 0.0671072 0.997746 549.854 201.801)" fill="#FBE3E3"/>
<ellipse cx="7.66927" cy="1.45749" rx="7.66927" ry="1.45749" transform="matrix(0.308338 -0.951277 0.831617 0.55535 558.791 220.684)" fill="#FFF3F3"/>
<ellipse cx="8.49176" cy="1.28519" rx="8.49176" ry="1.28519" transform="matrix(-0.563237 -0.826295 0.719329 -0.69467 575.351 221.167)" fill="#FFFDFD"/>
<ellipse cx="8.3778" cy="1.31152" rx="8.3778" ry="1.31152" transform="matrix(0.620421 0.784269 -0.641318 0.767276 555.423 190.111)" fill="#FFF2F2"/>
<ellipse cx="8.46542" cy="1.29136" rx="8.46542" ry="1.29136" transform="matrix(0.0804618 0.996758 -0.99514 -0.0984705 567.508 186.105)" fill="#FCEBEB"/>
<ellipse cx="6.72795" cy="1.61434" rx="6.72795" ry="1.61434" transform="matrix(-0.774897 0.632087 -0.518872 -0.854852 581.413 197.286)" fill="#FFF8F8"/>
<path d="M513.994 290.358C512.271 301.103 501.728 307.167 490.445 303.902C479.162 300.637 471.412 289.279 473.135 278.534C474.858 267.788 485.402 261.725 496.685 264.99C507.968 268.255 515.717 279.613 513.994 290.358Z" fill="#F54A33"/>
<path d="M505.726 293.474C505.366 294.751 503.776 295.169 502.174 294.409C500.571 293.648 499.564 291.996 499.924 290.719C500.284 289.442 501.875 289.023 503.477 289.784C505.079 290.545 506.086 292.197 505.726 293.474Z" fill="#F88D8D"/>
<path d="M505.726 293.474C505.366 294.751 503.776 295.169 502.174 294.409C500.571 293.648 499.564 291.996 499.924 290.719C500.284 289.442 501.875 289.023 503.477 289.784C505.079 290.545 506.086 292.197 505.726 293.474Z" fill="#F88D8D"/>
<path d="M505.726 293.474C505.366 294.751 503.776 295.169 502.174 294.409C500.571 293.648 499.564 291.996 499.924 290.719C500.284 289.442 501.875 289.023 503.477 289.784C505.079 290.545 506.086 292.197 505.726 293.474Z" fill="#F88D8D"/>
<path d="M505.726 293.474C505.366 294.751 503.776 295.169 502.174 294.409C500.571 293.648 499.564 291.996 499.924 290.719C500.284 289.442 501.875 289.023 503.477 289.784C505.079 290.545 506.086 292.197 505.726 293.474Z" fill="#F88D8D"/>
<ellipse cx="3.99002" cy="1.93731" rx="3.99002" ry="1.93731" transform="matrix(0.239291 0.970948 -0.912644 0.408754 493.696 291.634)" fill="#F88D8D"/>
<ellipse cx="3.99002" cy="1.93731" rx="3.99002" ry="1.93731" transform="matrix(0.239291 0.970948 -0.912644 0.408754 493.696 291.634)" fill="#F88D8D"/>
<ellipse cx="3.99002" cy="1.93731" rx="3.99002" ry="1.93731" transform="matrix(0.239291 0.970948 -0.912644 0.408754 493.696 291.634)" fill="#F88D8D"/>
<ellipse cx="3.99002" cy="1.93731" rx="3.99002" ry="1.93731" transform="matrix(0.239291 0.970948 -0.912644 0.408754 493.696 291.634)" fill="#F88D8D"/>
<ellipse cx="3.14125" cy="2.43561" rx="3.14125" ry="2.43561" transform="matrix(-0.973054 0.230578 -0.123756 -0.992313 486.131 289.877)" fill="#F88D8D"/>
<ellipse cx="3.14125" cy="2.43561" rx="3.14125" ry="2.43561" transform="matrix(-0.973054 0.230578 -0.123756 -0.992313 486.131 289.877)" fill="#F88D8D"/>
<ellipse cx="3.14125" cy="2.43561" rx="3.14125" ry="2.43561" transform="matrix(-0.973054 0.230578 -0.123756 -0.992313 486.131 289.877)" fill="#F88D8D"/>
<ellipse cx="3.14125" cy="2.43561" rx="3.14125" ry="2.43561" transform="matrix(-0.973054 0.230578 -0.123756 -0.992313 486.131 289.877)" fill="#F88D8D"/>
<ellipse cx="3.49211" cy="2.25706" rx="3.49211" ry="2.25706" transform="matrix(-0.688468 -0.725267 0.519223 -0.854639 486.754 278.709)" fill="#F88D8D"/>
<ellipse cx="3.49211" cy="2.25706" rx="3.49211" ry="2.25706" transform="matrix(-0.688468 -0.725267 0.519223 -0.854639 486.754 278.709)" fill="#F88D8D"/>
<ellipse cx="3.49211" cy="2.25706" rx="3.49211" ry="2.25706" transform="matrix(-0.688468 -0.725267 0.519223 -0.854639 486.754 278.709)" fill="#F88D8D"/>
<ellipse cx="3.49211" cy="2.25706" rx="3.49211" ry="2.25706" transform="matrix(-0.688468 -0.725267 0.519223 -0.854639 486.754 278.709)" fill="#F88D8D"/>
<ellipse cx="4.02222" cy="1.91319" rx="4.02222" ry="1.91319" transform="matrix(-0.192543 -0.981289 0.940598 -0.339522 492.849 276.115)" fill="#F88D8D"/>
<ellipse cx="4.02222" cy="1.91319" rx="4.02222" ry="1.91319" transform="matrix(-0.192543 -0.981289 0.940598 -0.339522 492.849 276.115)" fill="#F88D8D"/>
<ellipse cx="4.02222" cy="1.91319" rx="4.02222" ry="1.91319" transform="matrix(-0.192543 -0.981289 0.940598 -0.339522 492.849 276.115)" fill="#F88D8D"/>
<ellipse cx="4.02222" cy="1.91319" rx="4.02222" ry="1.91319" transform="matrix(-0.192543 -0.981289 0.940598 -0.339522 492.849 276.115)" fill="#F88D8D"/>
<path d="M505.003 273.615C505.859 274.347 505.787 276.483 504.843 278.386C503.898 280.289 502.439 281.239 501.583 280.507C500.727 279.776 500.799 277.64 501.744 275.737C502.688 273.833 504.147 272.884 505.003 273.615Z" fill="#F88D8D"/>
<path d="M505.003 273.615C505.859 274.347 505.787 276.483 504.843 278.386C503.898 280.289 502.439 281.239 501.583 280.507C500.727 279.776 500.799 277.64 501.744 275.737C502.688 273.833 504.147 272.884 505.003 273.615Z" fill="#F88D8D"/>
<path d="M505.003 273.615C505.859 274.347 505.787 276.483 504.843 278.386C503.898 280.289 502.439 281.239 501.583 280.507C500.727 279.776 500.799 277.64 501.744 275.737C502.688 273.833 504.147 272.884 505.003 273.615Z" fill="#F88D8D"/>
<path d="M505.003 273.615C505.859 274.347 505.787 276.483 504.843 278.386C503.898 280.289 502.439 281.239 501.583 280.507C500.727 279.776 500.799 277.64 501.744 275.737C502.688 273.833 504.147 272.884 505.003 273.615Z" fill="#F88D8D"/>
<ellipse cx="6.87463" cy="1.59222" rx="6.87463" ry="1.59222" transform="matrix(0.880554 0.473947 -0.302817 0.953049 480.414 276.462)" fill="#FBE3E3"/>
<ellipse cx="7.66927" cy="1.45749" rx="7.66927" ry="1.45749" transform="matrix(0.635186 -0.772359 0.570577 0.821244 481.818 297.307)" fill="#FFF3F3"/>
<ellipse cx="8.49176" cy="1.28519" rx="8.49176" ry="1.28519" transform="matrix(-0.221638 -0.975129 0.923705 -0.383106 497.052 303.819)" fill="#FFFDFD"/>
<ellipse cx="8.3778" cy="1.31152" rx="8.3778" ry="1.31152" transform="matrix(0.290238 0.956955 -0.877689 0.47923 489.876 267.624)" fill="#FFF2F2"/>
<ellipse cx="8.46542" cy="1.29136" rx="8.46542" ry="1.29136" transform="matrix(-0.290028 0.957018 -0.890007 -0.455946 502.589 268.321)" fill="#FCEBEB"/>
<ellipse cx="6.72795" cy="1.61434" rx="6.72795" ry="1.61434" transform="matrix(-0.952504 0.304525 -0.169898 -0.985462 511.435 283.816)" fill="#FFF8F8"/>
<path d="M247.028 115.124C243.022 125.242 231.417 128.882 221.107 123.254C210.798 117.625 205.688 104.86 209.694 94.742C213.701 84.6238 225.306 80.9841 235.616 86.6124C245.925 92.2407 251.035 105.006 247.028 115.124Z" fill="#F54A33"/>
<path d="M238.282 116.377C237.655 117.546 236.011 117.611 234.611 116.522C233.212 115.433 232.586 113.602 233.213 112.433C233.841 111.264 235.484 111.199 236.884 112.289C238.284 113.378 238.91 115.208 238.282 116.377Z" fill="#F88D8D"/>
<path d="M238.282 116.377C237.655 117.546 236.011 117.611 234.611 116.522C233.212 115.433 232.586 113.602 233.213 112.433C233.841 111.264 235.484 111.199 236.884 112.289C238.284 113.378 238.91 115.208 238.282 116.377Z" fill="#F88D8D"/>
<path d="M238.282 116.377C237.655 117.546 236.011 117.611 234.611 116.522C233.212 115.433 232.586 113.602 233.213 112.433C233.841 111.264 235.484 111.199 236.884 112.289C238.284 113.378 238.91 115.208 238.282 116.377Z" fill="#F88D8D"/>
<path d="M238.282 116.377C237.655 117.546 236.011 117.611 234.611 116.522C233.212 115.433 232.586 113.602 233.213 112.433C233.841 111.264 235.484 111.199 236.884 112.289C238.284 113.378 238.91 115.208 238.282 116.377Z" fill="#F88D8D"/>
<ellipse cx="3.99002" cy="1.93731" rx="3.99002" ry="1.93731" transform="matrix(0.0236158 0.999721 -0.979452 0.201678 226.934 111.979)" fill="#F88D8D"/>
<ellipse cx="3.99002" cy="1.93731" rx="3.99002" ry="1.93731" transform="matrix(0.0236158 0.999721 -0.979452 0.201678 226.934 111.979)" fill="#F88D8D"/>
<ellipse cx="3.99002" cy="1.93731" rx="3.99002" ry="1.93731" transform="matrix(0.0236158 0.999721 -0.979452 0.201678 226.934 111.979)" fill="#F88D8D"/>
<ellipse cx="3.99002" cy="1.93731" rx="3.99002" ry="1.93731" transform="matrix(0.0236158 0.999721 -0.979452 0.201678 226.934 111.979)" fill="#F88D8D"/>
<ellipse cx="3.14125" cy="2.43561" rx="3.14125" ry="2.43561" transform="matrix(-0.999893 0.0146533 0.0938056 -0.99559 219.929 108.627)" fill="#F88D8D"/>
<ellipse cx="3.14125" cy="2.43561" rx="3.14125" ry="2.43561" transform="matrix(-0.999893 0.0146533 0.0938056 -0.99559 219.929 108.627)" fill="#F88D8D"/>
<ellipse cx="3.14125" cy="2.43561" rx="3.14125" ry="2.43561" transform="matrix(-0.999893 0.0146533 0.0938056 -0.99559 219.929 108.627)" fill="#F88D8D"/>
<ellipse cx="3.14125" cy="2.43561" rx="3.14125" ry="2.43561" transform="matrix(-0.999893 0.0146533 0.0938056 -0.99559 219.929 108.627)" fill="#F88D8D"/>
<ellipse cx="3.49211" cy="2.25706" rx="3.49211" ry="2.25706" transform="matrix(-0.515299 -0.85701 0.691786 -0.722102 222.952 97.8594)" fill="#F88D8D"/>
<ellipse cx="3.49211" cy="2.25706" rx="3.49211" ry="2.25706" transform="matrix(-0.515299 -0.85701 0.691786 -0.722102 222.952 97.8594)" fill="#F88D8D"/>
<ellipse cx="3.49211" cy="2.25706" rx="3.49211" ry="2.25706" transform="matrix(-0.515299 -0.85701 0.691786 -0.722102 222.952 97.8594)" fill="#F88D8D"/>
<ellipse cx="3.49211" cy="2.25706" rx="3.49211" ry="2.25706" transform="matrix(-0.515299 -0.85701 0.691786 -0.722102 222.952 97.8594)" fill="#F88D8D"/>
<ellipse cx="4.02222" cy="1.91319" rx="4.02222" ry="1.91319" transform="matrix(0.0242627 -0.999706 0.991769 -0.128038 229.464 96.6445)" fill="#F88D8D"/>
<ellipse cx="4.02222" cy="1.91319" rx="4.02222" ry="1.91319" transform="matrix(0.0242627 -0.999706 0.991769 -0.128038 229.464 96.6445)" fill="#F88D8D"/>
<ellipse cx="4.02222" cy="1.91319" rx="4.02222" ry="1.91319" transform="matrix(0.0242627 -0.999706 0.991769 -0.128038 229.464 96.6445)" fill="#F88D8D"/>
<ellipse cx="4.02222" cy="1.91319" rx="4.02222" ry="1.91319" transform="matrix(0.0242627 -0.999706 0.991769 -0.128038 229.464 96.6445)" fill="#F88D8D"/>
<path d="M241.871 96.8327C242.549 97.7322 242.017 99.8021 240.683 101.456C239.349 103.11 237.719 103.721 237.041 102.822C236.364 101.923 236.896 99.8526 238.23 98.1987C239.564 96.5449 241.194 95.9333 241.871 96.8327Z" fill="#F88D8D"/>
<path d="M241.871 96.8327C242.549 97.7322 242.017 99.8021 240.683 101.456C239.349 103.11 237.719 103.721 237.041 102.822C236.364 101.923 236.896 99.8526 238.23 98.1987C239.564 96.5449 241.194 95.9333 241.871 96.8327Z" fill="#F88D8D"/>
<path d="M241.871 96.8327C242.549 97.7322 242.017 99.8021 240.683 101.456C239.349 103.11 237.719 103.721 237.041 102.822C236.364 101.923 236.896 99.8526 238.23 98.1987C239.564 96.5449 241.194 95.9333 241.871 96.8327Z" fill="#F88D8D"/>
<path d="M241.871 96.8327C242.549 97.7322 242.017 99.8021 240.683 101.456C239.349 103.11 237.719 103.721 237.041 102.822C236.364 101.923 236.896 99.8526 238.23 98.1987C239.564 96.5449 241.194 95.9333 241.871 96.8327Z" fill="#F88D8D"/>
<ellipse cx="6.87463" cy="1.59222" rx="6.87463" ry="1.59222" transform="matrix(0.757197 0.653187 -0.501788 0.864991 217.248 94.2944)" fill="#FBE3E3"/>
<ellipse cx="7.66927" cy="1.45749" rx="7.66927" ry="1.45749" transform="matrix(0.787207 -0.616688 0.379439 0.925217 214.11 114.949)" fill="#FFF3F3"/>
<ellipse cx="8.49176" cy="1.28519" rx="8.49176" ry="1.28519" transform="matrix(-0.00547563 -0.999985 0.984702 -0.174244 227.575 124.602)" fill="#FFFDFD"/>
<ellipse cx="8.3778" cy="1.31152" rx="8.3778" ry="1.31152" transform="matrix(0.0763828 0.997079 -0.960568 0.278046 228.399 87.7104)" fill="#FFF2F2"/>
<ellipse cx="8.46542" cy="1.29136" rx="8.46542" ry="1.29136" transform="matrix(-0.49016 0.871632 -0.77032 -0.637657 240.659 91.1411)" fill="#FCEBEB"/>
<ellipse cx="6.72795" cy="1.61434" rx="6.72795" ry="1.61434" transform="matrix(-0.995824 0.0912943 0.047274 -0.998882 245.945 108.183)" fill="#FFF8F8"/>
<path d="M188.856 194.579C195.45 203.237 192.571 215.054 182.425 220.973C172.28 226.893 158.711 224.673 152.117 216.016C145.524 207.358 148.403 195.541 158.548 189.622C168.693 183.702 182.262 185.922 188.856 194.579Z" fill="#F54A33"/>
<path d="M185.411 202.716C186.088 203.857 185.294 205.298 183.639 205.934C181.983 206.569 180.092 206.16 179.415 205.018C178.739 203.877 179.532 202.436 181.188 201.8C182.844 201.165 184.734 201.575 185.411 202.716Z" fill="#F88D8D"/>
<path d="M185.411 202.716C186.088 203.857 185.294 205.298 183.639 205.934C181.983 206.569 180.092 206.16 179.415 205.018C178.739 203.877 179.532 202.436 181.188 201.8C182.844 201.165 184.734 201.575 185.411 202.716Z" fill="#F88D8D"/>
<path d="M185.411 202.716C186.088 203.857 185.294 205.298 183.639 205.934C181.983 206.569 180.092 206.16 179.415 205.018C178.739 203.877 179.532 202.436 181.188 201.8C182.844 201.165 184.734 201.575 185.411 202.716Z" fill="#F88D8D"/>
<path d="M185.411 202.716C186.088 203.857 185.294 205.298 183.639 205.934C181.983 206.569 180.092 206.16 179.415 205.018C178.739 203.877 179.532 202.436 181.188 201.8C182.844 201.165 184.734 201.575 185.411 202.716Z" fill="#F88D8D"/>
<ellipse cx="3.99002" cy="1.93731" rx="3.99002" ry="1.93731" transform="matrix(0.86818 0.49625 -0.333319 0.942814 175.783 210.161)" fill="#F88D8D"/>
<ellipse cx="3.99002" cy="1.93731" rx="3.99002" ry="1.93731" transform="matrix(0.86818 0.49625 -0.333319 0.942814 175.783 210.161)" fill="#F88D8D"/>
<ellipse cx="3.99002" cy="1.93731" rx="3.99002" ry="1.93731" transform="matrix(0.86818 0.49625 -0.333319 0.942814 175.783 210.161)" fill="#F88D8D"/>
<ellipse cx="3.99002" cy="1.93731" rx="3.99002" ry="1.93731" transform="matrix(0.86818 0.49625 -0.333319 0.942814 175.783 210.161)" fill="#F88D8D"/>
<ellipse cx="3.14125" cy="2.43561" rx="3.14125" ry="2.43561" transform="matrix(-0.504013 0.863696 -0.803981 -0.594655 169.294 214.427)" fill="#F88D8D"/>
<ellipse cx="3.14125" cy="2.43561" rx="3.14125" ry="2.43561" transform="matrix(-0.504013 0.863696 -0.803981 -0.594655 169.294 214.427)" fill="#F88D8D"/>
<ellipse cx="3.14125" cy="2.43561" rx="3.14125" ry="2.43561" transform="matrix(-0.504013 0.863696 -0.803981 -0.594655 169.294 214.427)" fill="#F88D8D"/>
<ellipse cx="3.14125" cy="2.43561" rx="3.14125" ry="2.43561" transform="matrix(-0.504013 0.863696 -0.803981 -0.594655 169.294 214.427)" fill="#F88D8D"/>
<ellipse cx="3.49211" cy="2.25706" rx="3.49211" ry="2.25706" transform="matrix(-0.999999 -0.00153542 -0.26089 -0.965368 161.636 206.275)" fill="#F88D8D"/>
<ellipse cx="3.49211" cy="2.25706" rx="3.49211" ry="2.25706" transform="matrix(-0.999999 -0.00153542 -0.26089 -0.965368 161.636 206.275)" fill="#F88D8D"/>
<ellipse cx="3.49211" cy="2.25706" rx="3.49211" ry="2.25706" transform="matrix(-0.999999 -0.00153542 -0.26089 -0.965368 161.636 206.275)" fill="#F88D8D"/>
<ellipse cx="3.49211" cy="2.25706" rx="3.49211" ry="2.25706" transform="matrix(-0.999999 -0.00153542 -0.26089 -0.965368 161.636 206.275)" fill="#F88D8D"/>
<ellipse cx="4.02222" cy="1.91319" rx="4.02222" ry="1.91319" transform="matrix(-0.843432 -0.537236 0.402734 -0.915317 163.96 200.072)" fill="#F88D8D"/>
<ellipse cx="4.02222" cy="1.91319" rx="4.02222" ry="1.91319" transform="matrix(-0.843432 -0.537236 0.402734 -0.915317 163.96 200.072)" fill="#F88D8D"/>
<ellipse cx="4.02222" cy="1.91319" rx="4.02222" ry="1.91319" transform="matrix(-0.843432 -0.537236 0.402734 -0.915317 163.96 200.072)" fill="#F88D8D"/>
<ellipse cx="4.02222" cy="1.91319" rx="4.02222" ry="1.91319" transform="matrix(-0.843432 -0.537236 0.402734 -0.915317 163.96 200.072)" fill="#F88D8D"/>
<path d="M170.531 189.546C171.651 189.431 173.148 190.956 173.875 192.952C174.602 194.948 174.284 196.66 173.164 196.776C172.044 196.891 170.546 195.366 169.819 193.37C169.092 191.373 169.411 189.661 170.531 189.546Z" fill="#F88D8D"/>
<path d="M170.531 189.546C171.651 189.431 173.148 190.956 173.875 192.952C174.602 194.948 174.284 196.66 173.164 196.776C172.044 196.891 170.546 195.366 169.819 193.37C169.092 191.373 169.411 189.661 170.531 189.546Z" fill="#F88D8D"/>
<path d="M170.531 189.546C171.651 189.431 173.148 190.956 173.875 192.952C174.602 194.948 174.284 196.66 173.164 196.776C172.044 196.891 170.546 195.366 169.819 193.37C169.092 191.373 169.411 189.661 170.531 189.546Z" fill="#F88D8D"/>
<path d="M170.531 189.546C171.651 189.431 173.148 190.956 173.875 192.952C174.602 194.948 174.284 196.66 173.164 196.776C172.044 196.891 170.546 195.366 169.819 193.37C169.092 191.373 169.411 189.661 170.531 189.546Z" fill="#F88D8D"/>
<ellipse cx="6.87463" cy="1.59222" rx="6.87463" ry="1.59222" transform="matrix(0.950449 -0.31088 0.48139 0.876507 155.637 209.317)" fill="#FBE3E3"/>
<ellipse cx="7.66927" cy="1.45749" rx="7.66927" ry="1.45749" transform="matrix(-0.121337 -0.992611 0.988211 0.153097 171.7 222.674)" fill="#FFF3F3"/>
<ellipse cx="8.49176" cy="1.28519" rx="8.49176" ry="1.28519" transform="matrix(-0.859034 -0.511918 0.35952 -0.933137 186.922 216.132)" fill="#FFFDFD"/>
<ellipse cx="8.3778" cy="1.31152" rx="8.3778" ry="1.31152" transform="matrix(0.893177 0.449705 -0.258175 0.966098 155.76 196.369)" fill="#FFF2F2"/>
<ellipse cx="8.46542" cy="1.29136" rx="8.46542" ry="1.29136" transform="matrix(0.493084 0.869982 -0.943932 0.33014 165.031 187.643)" fill="#FCEBEB"/>
<ellipse cx="6.72795" cy="1.61434" rx="6.72795" ry="1.61434" transform="matrix(-0.436289 0.899806 -0.830838 -0.556514 182.354 191.922)" fill="#FFF8F8"/>
<path d="M287.917 208.169C294.51 216.826 291.631 228.643 281.486 234.563C271.341 240.482 257.771 238.263 251.178 229.605C244.584 220.948 247.463 209.13 257.608 203.211C267.754 197.291 281.323 199.511 287.917 208.169Z" fill="#F54A33"/>
<path d="M284.472 216.306C285.148 217.447 284.355 218.888 282.699 219.523C281.043 220.159 279.153 219.749 278.476 218.608C277.799 217.467 278.593 216.026 280.248 215.39C281.904 214.755 283.795 215.164 284.472 216.306Z" fill="#F88D8D"/>
<path d="M284.472 216.306C285.148 217.447 284.355 218.888 282.699 219.523C281.043 220.159 279.153 219.749 278.476 218.608C277.799 217.467 278.593 216.026 280.248 215.39C281.904 214.755 283.795 215.164 284.472 216.306Z" fill="#F88D8D"/>
<path d="M284.472 216.306C285.148 217.447 284.355 218.888 282.699 219.523C281.043 220.159 279.153 219.749 278.476 218.608C277.799 217.467 278.593 216.026 280.248 215.39C281.904 214.755 283.795 215.164 284.472 216.306Z" fill="#F88D8D"/>
<path d="M284.472 216.306C285.148 217.447 284.355 218.888 282.699 219.523C281.043 220.159 279.153 219.749 278.476 218.608C277.799 217.467 278.593 216.026 280.248 215.39C281.904 214.755 283.795 215.164 284.472 216.306Z" fill="#F88D8D"/>
<ellipse cx="3.99002" cy="1.93731" rx="3.99002" ry="1.93731" transform="matrix(0.86818 0.49625 -0.333319 0.942814 274.843 223.749)" fill="#F88D8D"/>
<ellipse cx="3.99002" cy="1.93731" rx="3.99002" ry="1.93731" transform="matrix(0.86818 0.49625 -0.333319 0.942814 274.843 223.749)" fill="#F88D8D"/>
<ellipse cx="3.99002" cy="1.93731" rx="3.99002" ry="1.93731" transform="matrix(0.86818 0.49625 -0.333319 0.942814 274.843 223.749)" fill="#F88D8D"/>
<ellipse cx="3.99002" cy="1.93731" rx="3.99002" ry="1.93731" transform="matrix(0.86818 0.49625 -0.333319 0.942814 274.843 223.749)" fill="#F88D8D"/>
<ellipse cx="3.14125" cy="2.43561" rx="3.14125" ry="2.43561" transform="matrix(-0.504013 0.863696 -0.803981 -0.594655 268.354 228.015)" fill="#F88D8D"/>
<ellipse cx="3.14125" cy="2.43561" rx="3.14125" ry="2.43561" transform="matrix(-0.504013 0.863696 -0.803981 -0.594655 268.354 228.015)" fill="#F88D8D"/>
<ellipse cx="3.14125" cy="2.43561" rx="3.14125" ry="2.43561" transform="matrix(-0.504013 0.863696 -0.803981 -0.594655 268.354 228.015)" fill="#F88D8D"/>
<ellipse cx="3.14125" cy="2.43561" rx="3.14125" ry="2.43561" transform="matrix(-0.504013 0.863696 -0.803981 -0.594655 268.354 228.015)" fill="#F88D8D"/>
<ellipse cx="3.49211" cy="2.25706" rx="3.49211" ry="2.25706" transform="matrix(-0.999999 -0.00153542 -0.26089 -0.965368 260.697 219.864)" fill="#F88D8D"/>
<ellipse cx="3.49211" cy="2.25706" rx="3.49211" ry="2.25706" transform="matrix(-0.999999 -0.00153542 -0.26089 -0.965368 260.697 219.864)" fill="#F88D8D"/>
<ellipse cx="3.49211" cy="2.25706" rx="3.49211" ry="2.25706" transform="matrix(-0.999999 -0.00153542 -0.26089 -0.965368 260.697 219.864)" fill="#F88D8D"/>
<ellipse cx="3.49211" cy="2.25706" rx="3.49211" ry="2.25706" transform="matrix(-0.999999 -0.00153542 -0.26089 -0.965368 260.697 219.864)" fill="#F88D8D"/>
<ellipse cx="4.02222" cy="1.91319" rx="4.02222" ry="1.91319" transform="matrix(-0.843432 -0.537236 0.402734 -0.915317 263.02 213.661)" fill="#F88D8D"/>
<ellipse cx="4.02222" cy="1.91319" rx="4.02222" ry="1.91319" transform="matrix(-0.843432 -0.537236 0.402734 -0.915317 263.02 213.661)" fill="#F88D8D"/>
<ellipse cx="4.02222" cy="1.91319" rx="4.02222" ry="1.91319" transform="matrix(-0.843432 -0.537236 0.402734 -0.915317 263.02 213.661)" fill="#F88D8D"/>
<ellipse cx="4.02222" cy="1.91319" rx="4.02222" ry="1.91319" transform="matrix(-0.843432 -0.537236 0.402734 -0.915317 263.02 213.661)" fill="#F88D8D"/>
<path d="M269.591 203.135C270.712 203.02 272.209 204.545 272.936 206.541C273.663 208.537 273.344 210.249 272.224 210.364C271.104 210.48 269.607 208.955 268.88 206.958C268.153 204.962 268.471 203.25 269.591 203.135Z" fill="#F88D8D"/>
<path d="M269.591 203.135C270.712 203.02 272.209 204.545 272.936 206.541C273.663 208.537 273.344 210.249 272.224 210.364C271.104 210.48 269.607 208.955 268.88 206.958C268.153 204.962 268.471 203.25 269.591 203.135Z" fill="#F88D8D"/>
<path d="M269.591 203.135C270.712 203.02 272.209 204.545 272.936 206.541C273.663 208.537 273.344 210.249 272.224 210.364C271.104 210.48 269.607 208.955 268.88 206.958C268.153 204.962 268.471 203.25 269.591 203.135Z" fill="#F88D8D"/>
<path d="M269.591 203.135C270.712 203.02 272.209 204.545 272.936 206.541C273.663 208.537 273.344 210.249 272.224 210.364C271.104 210.48 269.607 208.955 268.88 206.958C268.153 204.962 268.471 203.25 269.591 203.135Z" fill="#F88D8D"/>
<ellipse cx="6.87463" cy="1.59222" rx="6.87463" ry="1.59222" transform="matrix(0.950449 -0.31088 0.48139 0.876507 254.697 222.906)" fill="#FBE3E3"/>
<ellipse cx="7.66927" cy="1.45749" rx="7.66927" ry="1.45749" transform="matrix(-0.121337 -0.992611 0.988211 0.153097 270.761 236.264)" fill="#FFF3F3"/>
<ellipse cx="8.49176" cy="1.28519" rx="8.49176" ry="1.28519" transform="matrix(-0.859034 -0.511918 0.35952 -0.933137 285.982 229.721)" fill="#FFFDFD"/>
<ellipse cx="8.3778" cy="1.31152" rx="8.3778" ry="1.31152" transform="matrix(0.893177 0.449705 -0.258175 0.966098 254.821 209.958)" fill="#FFF2F2"/>
<ellipse cx="8.46542" cy="1.29136" rx="8.46542" ry="1.29136" transform="matrix(0.493084 0.869982 -0.943932 0.33014 264.092 201.233)" fill="#FCEBEB"/>
<ellipse cx="6.72795" cy="1.61434" rx="6.72795" ry="1.61434" transform="matrix(-0.436289 0.899806 -0.830838 -0.556514 281.414 205.511)" fill="#FFF8F8"/>
<path d="M268.456 298.555C279.316 297.854 287.566 306.791 286.882 318.517C286.199 330.243 276.841 340.317 265.981 341.018C255.121 341.72 246.872 332.782 247.555 321.056C248.239 309.33 257.596 299.256 268.456 298.555Z" fill="#F54A33"/>
<path d="M273.327 305.927C274.652 305.994 275.413 307.453 275.026 309.184C274.639 310.915 273.252 312.263 271.927 312.195C270.602 312.127 269.841 310.669 270.227 308.938C270.614 307.207 272.002 305.859 273.327 305.927Z" fill="#F88D8D"/>
<path d="M273.327 305.927C274.652 305.994 275.413 307.453 275.026 309.184C274.639 310.915 273.252 312.263 271.927 312.195C270.602 312.127 269.841 310.669 270.227 308.938C270.614 307.207 272.002 305.859 273.327 305.927Z" fill="#F88D8D"/>
<path d="M273.327 305.927C274.652 305.994 275.413 307.453 275.026 309.184C274.639 310.915 273.252 312.263 271.927 312.195C270.602 312.127 269.841 310.669 270.227 308.938C270.614 307.207 272.002 305.859 273.327 305.927Z" fill="#F88D8D"/>
<path d="M273.327 305.927C274.652 305.994 275.413 307.453 275.026 309.184C274.639 310.915 273.252 312.263 271.927 312.195C270.602 312.127 269.841 310.669 270.227 308.938C270.614 307.207 272.002 305.859 273.327 305.927Z" fill="#F88D8D"/>
<ellipse cx="3.99002" cy="1.93731" rx="3.99002" ry="1.93731" transform="matrix(0.893768 -0.44853 0.600857 0.799357 274.199 318.065)" fill="#F88D8D"/>
<ellipse cx="3.99002" cy="1.93731" rx="3.99002" ry="1.93731" transform="matrix(0.893768 -0.44853 0.600857 0.799357 274.199 318.065)" fill="#F88D8D"/>
<ellipse cx="3.99002" cy="1.93731" rx="3.99002" ry="1.93731" transform="matrix(0.893768 -0.44853 0.600857 0.799357 274.199 318.065)" fill="#F88D8D"/>
<ellipse cx="3.99002" cy="1.93731" rx="3.99002" ry="1.93731" transform="matrix(0.893768 -0.44853 0.600857 0.799357 274.199 318.065)" fill="#F88D8D"/>
<ellipse cx="3.14125" cy="2.43561" rx="3.14125" ry="2.43561" transform="matrix(0.4405 0.897752 -0.940207 0.340603 274.162 325.832)" fill="#F88D8D"/>
<ellipse cx="3.14125" cy="2.43561" rx="3.14125" ry="2.43561" transform="matrix(0.4405 0.897752 -0.940207 0.340603 274.162 325.832)" fill="#F88D8D"/>
<ellipse cx="3.14125" cy="2.43561" rx="3.14125" ry="2.43561" transform="matrix(0.4405 0.897752 -0.940207 0.340603 274.162 325.832)" fill="#F88D8D"/>
<ellipse cx="3.14125" cy="2.43561" rx="3.14125" ry="2.43561" transform="matrix(0.4405 0.897752 -0.940207 0.340603 274.162 325.832)" fill="#F88D8D"/>
<ellipse cx="3.49211" cy="2.25706" rx="3.49211" ry="2.25706" transform="matrix(-0.554646 0.832086 -0.948459 -0.316899 263.135 327.698)" fill="#F88D8D"/>
<ellipse cx="3.49211" cy="2.25706" rx="3.49211" ry="2.25706" transform="matrix(-0.554646 0.832086 -0.948459 -0.316899 263.135 327.698)" fill="#F88D8D"/>
<ellipse cx="3.49211" cy="2.25706" rx="3.49211" ry="2.25706" transform="matrix(-0.554646 0.832086 -0.948459 -0.316899 263.135 327.698)" fill="#F88D8D"/>
<ellipse cx="3.49211" cy="2.25706" rx="3.49211" ry="2.25706" transform="matrix(-0.554646 0.832086 -0.948459 -0.316899 263.135 327.698)" fill="#F88D8D"/>
<ellipse cx="4.02222" cy="1.91319" rx="4.02222" ry="1.91319" transform="matrix(-0.914212 0.405236 -0.539541 -0.841959 259.254 322.331)" fill="#F88D8D"/>
<ellipse cx="4.02222" cy="1.91319" rx="4.02222" ry="1.91319" transform="matrix(-0.914212 0.405236 -0.539541 -0.841959 259.254 322.331)" fill="#F88D8D"/>
<ellipse cx="4.02222" cy="1.91319" rx="4.02222" ry="1.91319" transform="matrix(-0.914212 0.405236 -0.539541 -0.841959 259.254 322.331)" fill="#F88D8D"/>
<ellipse cx="4.02222" cy="1.91319" rx="4.02222" ry="1.91319" transform="matrix(-0.914212 0.405236 -0.539541 -0.841959 259.254 322.331)" fill="#F88D8D"/>
<path d="M254.123 311.032C254.647 310.035 256.745 309.632 258.811 310.131C260.876 310.63 262.125 311.843 261.602 312.84C261.078 313.836 258.979 314.24 256.914 313.741C254.849 313.242 253.599 312.029 254.123 311.032Z" fill="#F88D8D"/>
<path d="M254.123 311.032C254.647 310.035 256.745 309.632 258.811 310.131C260.876 310.63 262.125 311.843 261.602 312.84C261.078 313.836 258.979 314.24 256.914 313.741C254.849 313.242 253.599 312.029 254.123 311.032Z" fill="#F88D8D"/>
<path d="M254.123 311.032C254.647 310.035 256.745 309.632 258.811 310.131C260.876 310.63 262.125 311.843 261.602 312.84C261.078 313.836 258.979 314.24 256.914 313.741C254.849 313.242 253.599 312.029 254.123 311.032Z" fill="#F88D8D"/>
<path d="M254.123 311.032C254.647 310.035 256.745 309.632 258.811 310.131C260.876 310.63 262.125 311.843 261.602 312.84C261.078 313.836 258.979 314.24 256.914 313.741C254.849 313.242 253.599 312.029 254.123 311.032Z" fill="#F88D8D"/>
<ellipse cx="6.87463" cy="1.59222" rx="6.87463" ry="1.59222" transform="matrix(0.267004 -0.963695 0.99646 0.0840633 262.349 334.379)" fill="#FBE3E3"/>
<ellipse cx="7.66927" cy="1.45749" rx="7.66927" ry="1.45749" transform="matrix(-0.893927 -0.448213 0.674365 -0.738398 282.364 328.391)" fill="#FFF3F3"/>
<ellipse cx="8.49176" cy="1.28519" rx="8.49176" ry="1.28519" transform="matrix(-0.901758 0.432242 -0.578297 -0.815826 285.337 312.093)" fill="#FFFDFD"/>
<ellipse cx="8.3778" cy="1.31152" rx="8.3778" ry="1.31152" transform="matrix(0.868831 -0.495108 0.661833 0.749651 251.632 327.111)" fill="#FFF2F2"/>
<ellipse cx="8.46542" cy="1.29136" rx="8.46542" ry="1.29136" transform="matrix(0.997497 0.0707124 -0.247356 0.968925 249.495 314.561)" fill="#FCEBEB"/>
<ellipse cx="6.72795" cy="1.61434" rx="6.72795" ry="1.61434" transform="matrix(0.508054 0.861325 -0.9233 0.384079 262.644 302.5)" fill="#FFF8F8"/>
<path d="M376.428 305.733C387.288 305.032 395.538 313.969 394.855 325.695C394.171 337.421 384.814 347.495 373.954 348.197C363.094 348.898 354.844 339.961 355.527 328.235C356.211 316.509 365.568 306.435 376.428 305.733Z" fill="#F54A33"/>
<path d="M381.299 313.105C382.624 313.173 383.385 314.631 382.999 316.362C382.612 318.093 381.224 319.441 379.899 319.373C378.574 319.306 377.813 317.847 378.2 316.116C378.586 314.386 379.974 313.037 381.299 313.105Z" fill="#F88D8D"/>
<path d="M381.299 313.105C382.624 313.173 383.385 314.631 382.999 316.362C382.612 318.093 381.224 319.441 379.899 319.373C378.574 319.306 377.813 317.847 378.2 316.116C378.586 314.386 379.974 313.037 381.299 313.105Z" fill="#F88D8D"/>
<path d="M381.299 313.105C382.624 313.173 383.385 314.631 382.999 316.362C382.612 318.093 381.224 319.441 379.899 319.373C378.574 319.306 377.813 317.847 378.2 316.116C378.586 314.386 379.974 313.037 381.299 313.105Z" fill="#F88D8D"/>
<path d="M381.299 313.105C382.624 313.173 383.385 314.631 382.999 316.362C382.612 318.093 381.224 319.441 379.899 319.373C378.574 319.306 377.813 317.847 378.2 316.116C378.586 314.386 379.974 313.037 381.299 313.105Z" fill="#F88D8D"/>
<ellipse cx="3.99002" cy="1.93731" rx="3.99002" ry="1.93731" transform="matrix(0.893768 -0.44853 0.600857 0.799357 382.172 325.244)" fill="#F88D8D"/>
<ellipse cx="3.99002" cy="1.93731" rx="3.99002" ry="1.93731" transform="matrix(0.893768 -0.44853 0.600857 0.799357 382.172 325.244)" fill="#F88D8D"/>
<ellipse cx="3.99002" cy="1.93731" rx="3.99002" ry="1.93731" transform="matrix(0.893768 -0.44853 0.600857 0.799357 382.172 325.244)" fill="#F88D8D"/>
<ellipse cx="3.99002" cy="1.93731" rx="3.99002" ry="1.93731" transform="matrix(0.893768 -0.44853 0.600857 0.799357 382.172 325.244)" fill="#F88D8D"/>
<ellipse cx="3.14125" cy="2.43561" rx="3.14125" ry="2.43561" transform="matrix(0.4405 0.897752 -0.940207 0.340603 382.135 333.011)" fill="#F88D8D"/>
<ellipse cx="3.14125" cy="2.43561" rx="3.14125" ry="2.43561" transform="matrix(0.4405 0.897752 -0.940207 0.340603 382.135 333.011)" fill="#F88D8D"/>
<ellipse cx="3.14125" cy="2.43561" rx="3.14125" ry="2.43561" transform="matrix(0.4405 0.897752 -0.940207 0.340603 382.135 333.011)" fill="#F88D8D"/>
<ellipse cx="3.14125" cy="2.43561" rx="3.14125" ry="2.43561" transform="matrix(0.4405 0.897752 -0.940207 0.340603 382.135 333.011)" fill="#F88D8D"/>
<ellipse cx="3.49211" cy="2.25706" rx="3.49211" ry="2.25706" transform="matrix(-0.554646 0.832086 -0.948459 -0.316899 371.108 334.877)" fill="#F88D8D"/>
<ellipse cx="3.49211" cy="2.25706" rx="3.49211" ry="2.25706" transform="matrix(-0.554646 0.832086 -0.948459 -0.316899 371.108 334.877)" fill="#F88D8D"/>
<ellipse cx="3.49211" cy="2.25706" rx="3.49211" ry="2.25706" transform="matrix(-0.554646 0.832086 -0.948459 -0.316899 371.108 334.877)" fill="#F88D8D"/>
<ellipse cx="3.49211" cy="2.25706" rx="3.49211" ry="2.25706" transform="matrix(-0.554646 0.832086 -0.948459 -0.316899 371.108 334.877)" fill="#F88D8D"/>
<ellipse cx="4.02222" cy="1.91319" rx="4.02222" ry="1.91319" transform="matrix(-0.914212 0.405236 -0.539541 -0.841959 367.226 329.51)" fill="#F88D8D"/>
<ellipse cx="4.02222" cy="1.91319" rx="4.02222" ry="1.91319" transform="matrix(-0.914212 0.405236 -0.539541 -0.841959 367.226 329.51)" fill="#F88D8D"/>
<ellipse cx="4.02222" cy="1.91319" rx="4.02222" ry="1.91319" transform="matrix(-0.914212 0.405236 -0.539541 -0.841959 367.226 329.51)" fill="#F88D8D"/>
<ellipse cx="4.02222" cy="1.91319" rx="4.02222" ry="1.91319" transform="matrix(-0.914212 0.405236 -0.539541 -0.841959 367.226 329.51)" fill="#F88D8D"/>
<path d="M362.095 318.211C362.619 317.215 364.718 316.811 366.783 317.31C368.848 317.81 370.098 319.022 369.574 320.019C369.05 321.016 366.951 321.419 364.886 320.92C362.821 320.421 361.571 319.208 362.095 318.211Z" fill="#F88D8D"/>
<path d="M362.095 318.211C362.619 317.215 364.718 316.811 366.783 317.31C368.848 317.81 370.098 319.022 369.574 320.019C369.05 321.016 366.951 321.419 364.886 320.92C362.821 320.421 361.571 319.208 362.095 318.211Z" fill="#F88D8D"/>
<path d="M362.095 318.211C362.619 317.215 364.718 316.811 366.783 317.31C368.848 317.81 370.098 319.022 369.574 320.019C369.05 321.016 366.951 321.419 364.886 320.92C362.821 320.421 361.571 319.208 362.095 318.211Z" fill="#F88D8D"/>
<path d="M362.095 318.211C362.619 317.215 364.718 316.811 366.783 317.31C368.848 317.81 370.098 319.022 369.574 320.019C369.05 321.016 366.951 321.419 364.886 320.92C362.821 320.421 361.571 319.208 362.095 318.211Z" fill="#F88D8D"/>
<ellipse cx="6.87463" cy="1.59222" rx="6.87463" ry="1.59222" transform="matrix(0.267004 -0.963695 0.99646 0.0840633 370.321 341.558)" fill="#FBE3E3"/>
<ellipse cx="7.66927" cy="1.45749" rx="7.66927" ry="1.45749" transform="matrix(-0.893927 -0.448213 0.674365 -0.738398 390.336 335.569)" fill="#FFF3F3"/>
<ellipse cx="8.49176" cy="1.28519" rx="8.49176" ry="1.28519" transform="matrix(-0.901758 0.432242 -0.578297 -0.815826 393.31 319.271)" fill="#FFFDFD"/>
<ellipse cx="8.3778" cy="1.31152" rx="8.3778" ry="1.31152" transform="matrix(0.868831 -0.495108 0.661833 0.749651 359.604 334.291)" fill="#FFF2F2"/>
<ellipse cx="8.46542" cy="1.29136" rx="8.46542" ry="1.29136" transform="matrix(0.997497 0.0707124 -0.247356 0.968925 357.467 321.739)" fill="#FCEBEB"/>
<ellipse cx="6.72795" cy="1.61434" rx="6.72795" ry="1.61434" transform="matrix(0.508054 0.861325 -0.9233 0.384079 370.616 309.679)" fill="#FFF8F8"/>
<ellipse cx="517.965" cy="240.119" rx="5.36245" ry="4.1708" fill="#216D29"/>
<circle cx="548.353" cy="239.523" r="4.76662" fill="#216D29"/>
<circle cx="468.512" cy="160.874" r="4.76662" fill="#216D29"/>
<circle cx="422.037" cy="165.64" r="4.76662" fill="#216D29"/>
<ellipse cx="426.208" cy="109.633" rx="5.36245" ry="4.76662" fill="#216D29"/>
<ellipse cx="442.891" cy="112.612" rx="5.36245" ry="4.1708" fill="#216D29"/>
<ellipse cx="395.225" cy="207.348" rx="5.36245" ry="4.76662" fill="#216D29"/>
<circle cx="345.771" cy="165.64" r="4.76662" fill="#216D29"/>
<circle cx="356.496" cy="148.957" r="4.76662" fill="#216D29"/>
<circle cx="376.754" cy="179.94" r="4.76662" fill="#216D29"/>
<ellipse cx="388.075" cy="107.845" rx="5.36245" ry="4.1708" fill="#216D29"/>
<ellipse cx="308.234" cy="91.7578" rx="5.36245" ry="4.76662" fill="#216D29"/>
<circle cx="282.613" cy="78.6494" r="4.76662" fill="#216D29"/>
<circle cx="226.605" cy="142.999" r="4.76662" fill="#216D29"/>
<ellipse cx="274.867" cy="163.257" rx="5.36245" ry="4.76662" fill="#216D29"/>
<ellipse cx="292.742" cy="150.745" rx="5.36245" ry="4.1708" fill="#216D29"/>
<circle cx="313.596" cy="169.215" r="4.76662" fill="#216D29"/>
<circle cx="311.213" cy="193.048" r="4.76662" fill="#216D29"/>
<ellipse cx="245.672" cy="204.369" rx="4.76662" ry="4.1708" fill="#216D29"/>
<ellipse cx="267.717" cy="219.861" rx="5.36245" ry="4.1708" fill="#216D29"/>
<ellipse cx="229.585" cy="229.99" rx="5.36245" ry="4.76662" fill="#216D29"/>
<circle cx="190.856" cy="219.265" r="4.76662" fill="#216D29"/>
<ellipse cx="211.114" cy="192.453" rx="4.76662" ry="4.1708" fill="#216D29"/>
<ellipse cx="137.827" cy="207.348" rx="5.36245" ry="4.76662" fill="#216D29"/>
<circle cx="225.414" cy="313.406" r="4.76662" fill="#216D29"/>
<circle cx="226.605" cy="277.656" r="4.76662" fill="#216D29"/>
<ellipse cx="267.717" cy="274.677" rx="5.36245" ry="4.1708" fill="#216D29"/>
<ellipse cx="311.213" cy="247.268" rx="4.76662" ry="4.1708" fill="#216D29"/>
<ellipse cx="303.467" cy="285.998" rx="5.36245" ry="4.76662" fill="#216D29"/>
<circle cx="333.854" cy="280.039" r="4.76662" fill="#216D29"/>
<ellipse cx="283.209" cy="324.131" rx="5.36245" ry="4.76662" fill="#216D29"/>
<circle cx="302.871" cy="364.647" r="4.76662" fill="#216D29"/>
<circle cx="342.196" cy="347.963" r="4.76662" fill="#216D29"/>
<ellipse cx="358.283" cy="288.381" rx="4.1708" ry="4.76662" fill="#216D29"/>
<ellipse cx="376.158" cy="305.064" rx="5.36245" ry="4.76662" fill="#216D29"/>
<circle cx="373.179" cy="250.248" r="4.76662" fill="#216D29"/>
<ellipse cx="442.891" cy="330.685" rx="5.36245" ry="4.1708" fill="#216D29"/>
<ellipse cx="419.058" cy="362.859" rx="5.36245" ry="4.1708" fill="#216D29"/>
<circle cx="497.111" cy="313.406" r="4.76662" fill="#216D29"/>
<ellipse cx="526.307" cy="315.789" rx="5.36245" ry="4.76662" fill="#216D29"/>
<ellipse cx="470.299" cy="265.739" rx="5.36245" ry="4.76662" fill="#216D29"/>
<ellipse cx="435.741" cy="275.272" rx="5.36245" ry="4.76662" fill="#216D29"/>
<ellipse cx="471.491" cy="218.073" rx="5.36245" ry="4.76662" fill="#216D29"/>
<circle cx="520.944" cy="200.198" r="4.76662" fill="#216D29"/>
<circle cx="221.839" cy="166.832" r="4.76662" fill="#216D29"/>
<ellipse cx="172.385" cy="144.786" rx="5.36245" ry="4.1708" fill="#216D29"/>
</svg>
