<svg width="359" height="283" viewBox="0 0 359 283" fill="none" xmlns="http://www.w3.org/2000/svg">
<circle cx="133.536" cy="141.61" r="132.62" fill="#252525"/>
<ellipse cx="133.987" cy="141.61" rx="123.147" ry="124.5" fill="#434343"/>
<ellipse cx="137.144" cy="142.062" rx="115.479" ry="117.734" fill="#252525"/>
<ellipse cx="78.4172" cy="121.771" rx="78.4172" ry="121.771" transform="matrix(0.946913 -0.321489 0.312725 0.949844 23.9803 51.0234)" fill="#434343"/>
<ellipse cx="94.5804" cy="114.574" rx="94.5804" ry="114.574" transform="matrix(0.96823 -0.250061 0.242946 0.97004 39.3644 47.4683)" fill="#434343"/>
<ellipse cx="22.0444" cy="29.1633" rx="22.0444" ry="29.1633" transform="matrix(0.621087 -0.783742 0.774332 0.632779 159.385 122.725)" fill="#FFFCFC"/>
<ellipse cx="22.0444" cy="29.1633" rx="22.0444" ry="29.1633" transform="matrix(0.621087 -0.783742 0.774332 0.632779 159.385 122.725)" fill="#FFFCFC"/>
<ellipse cx="16.9797" cy="23.2944" rx="16.9797" ry="23.2944" transform="matrix(0.354295 -0.935134 0.931436 0.363907 183.005 181.915)" fill="#FFFCFC"/>
<ellipse cx="16.9797" cy="23.2944" rx="16.9797" ry="23.2944" transform="matrix(0.354295 -0.935134 0.931436 0.363907 183.005 181.915)" fill="#FFFCFC"/>
<ellipse cx="27.5518" cy="42.804" rx="27.5518" ry="42.804" transform="matrix(0.454442 -0.890777 0.875443 0.483322 147.971 67.7427)" fill="#706F6F"/>
<ellipse cx="27.5518" cy="42.804" rx="27.5518" ry="42.804" transform="matrix(0.454442 -0.890777 0.875443 0.483322 147.971 67.7427)" fill="#706F6F"/>
<ellipse cx="27.5518" cy="42.804" rx="27.5518" ry="42.804" transform="matrix(0.454442 -0.890777 0.875443 0.483322 147.971 67.7427)" fill="#706F6F"/>
<path d="M218.892 46.3136C234.8 60.7562 240.712 80.7216 232.098 90.9076C223.485 101.093 203.606 97.6427 187.699 83.2001C171.791 68.7574 165.879 48.792 174.493 38.6061C183.107 28.4202 202.985 31.8709 218.892 46.3136Z" fill="#252525"/>
<rect width="76.9345" height="32.7912" transform="matrix(0.747399 0.664375 -0.626121 0.779726 193.705 15.8647)" fill="#252525"/>
<ellipse cx="19.9261" cy="38.7687" rx="19.9261" ry="38.7687" transform="matrix(0.645725 -0.76357 0.74037 0.6722 181.001 30.5957)" fill="#434343"/>
<rect x="204.21" y="50.2139" width="15.0776" height="34.6751" transform="rotate(43.7641 204.21 50.2139)" fill="#434343"/>
<circle cx="228.093" cy="36.3072" r="4.96197" fill="#D9D9D9"/>
<circle cx="228.093" cy="36.3072" r="4.96197" fill="#FFCD83"/>
<rect x="231.386" y="30.2202" width="11.4215" height="9.11539" transform="rotate(-16.1341 231.386 30.2202)" fill="#D9D9D9"/>
<rect x="231.386" y="30.2202" width="11.4215" height="9.11539" transform="rotate(-16.1341 231.386 30.2202)" fill="#FFCD83"/>
<rect x="241.174" y="27.3027" width="11.4215" height="9.11539" transform="rotate(-16.1341 241.174 27.3027)" fill="#D9D9D9"/>
<rect x="241.174" y="27.3027" width="11.4215" height="9.11539" transform="rotate(-16.1341 241.174 27.3027)" fill="#FFCD83"/>
<rect x="251.098" y="25.498" width="11.4215" height="9.11539" transform="rotate(-16.1341 251.098 25.498)" fill="#FFCD83"/>
<rect x="251.098" y="25.498" width="11.4215" height="9.11539" transform="rotate(-16.1341 251.098 25.498)" fill="#FFCD83"/>
<rect x="270.17" y="20.3872" width="51.5717" height="9.58908" transform="rotate(1.52519 270.17 20.3872)" fill="#FFCD83"/>
<rect x="319.664" y="21.4219" width="30.4227" height="9.44141" transform="rotate(21.6189 319.664 21.4219)" fill="#FFCD83"/>
<rect x="345.729" y="31.3452" width="17.5969" height="10.4849" transform="rotate(49.9151 345.729 31.3452)" fill="#FFCD83"/>
<rect x="356.511" y="45.9521" width="17.9468" height="11.809" transform="rotate(95.2142 356.511 45.9521)" fill="#FFCD83"/>
<rect x="353.382" y="63.439" width="31.0357" height="10.1767" transform="rotate(124.276 353.382 63.439)" fill="#FFCD83"/>
<rect x="341.316" y="82.769" width="49.9513" height="12.7406" transform="rotate(132.835 341.316 82.769)" fill="#FFCD83"/>
<rect x="311.277" y="115.59" width="18.6102" height="13.6503" transform="rotate(121.65 311.277 115.59)" fill="#FFCD83"/>
<rect x="302.425" y="126.119" width="23.4743" height="13.0186" transform="rotate(94.1697 302.425 126.119)" fill="#FFCD83"/>
<rect x="298.585" y="142.313" width="23.4743" height="13.0186" transform="rotate(53.7428 298.585 142.313)" fill="#FFCD83"/>
<rect x="309.486" y="158.552" width="32.006" height="12.3834" transform="rotate(39.4353 309.486 158.552)" fill="#FFCD83"/>
<rect x="324.953" y="172.987" width="32.2702" height="10.5371" transform="rotate(30.0011 324.953 172.987)" fill="#FFCD83"/>
<rect x="261.925" y="23.4341" width="11.4215" height="9.11539" transform="rotate(-10.1494 261.925 23.4341)" fill="#FFCD83"/>
<path d="M227.642 41.6538C295.125 16.3929 362.517 33.9853 341.316 63.7571C320.115 93.5289 227.642 144.953 348.984 198.181" stroke="black" stroke-width="3"/>
<path d="M224.937 32.2484C276.359 9.24292 390.962 16.4133 347.631 73.2974C304.3 130.182 266.435 136.45 353.046 189.678" stroke="black" stroke-width="3"/>
<path d="M225.613 31.9827C219.522 33.6011 222.68 43.9762 228.544 41.2696" stroke="black" stroke-width="3"/>
<path d="M229.897 30.4438C229.897 30.4438 236.212 33.6014 232.604 39.9167M241.625 26.384C241.625 26.384 248.392 29.9927 244.332 36.308M251.098 24.1286C251.098 24.1286 257.414 27.7373 253.354 33.6014M261.022 22.3242C261.022 22.3242 265.984 25.0307 262.827 31.7971" stroke="black" stroke-width="3"/>
<path d="M269.593 21.4222C269.593 21.4222 274.555 25.0309 270.946 30.444M279.968 20.52C279.968 20.52 284.479 24.1287 280.419 29.9929M289.441 20.52C289.441 20.52 293.5 25.0309 289.441 29.9929M298.011 20.52C298.011 20.52 302.522 24.1287 298.011 29.9929M307.033 20.52C307.033 20.52 311.995 25.482 307.033 30.444M315.604 21.8733C315.604 21.8733 319.212 25.9331 315.604 30.895M325.979 24.1287C325.979 24.1287 330.49 29.0907 324.625 34.5038M336.805 27.7374C336.805 27.7374 339.06 33.6016 334.098 37.6614M348.533 34.5038C348.533 34.5038 348.533 40.819 341.767 43.0744M355.751 43.9766C353.168 45.649 352.81 48.7655 344.924 48.9386M356.202 55.2538C352.269 57.0775 350.049 57.8546 345.827 55.2538M353.044 65.1778C348.991 64.996 346.718 65.8149 342.669 61.118M347.631 73.2973C344.157 72.4124 341.767 72.3952 338.609 67.8843M339.511 82.7702C335.781 81.2161 333.642 80.4022 331.392 75.5528M334.098 89.0854C329.041 89.3402 326.656 88.2632 323.723 82.7702M325.528 99.0094C321.069 97.5149 318.314 97.1343 316.506 90.8898M317.408 108.031C312.511 106.277 310.34 104.48 308.386 98.5583M310.642 116.151C305.718 115.06 303.513 113.505 301.169 108.031M305.229 124.27C299.529 124.34 296.819 123.626 293.952 119.308M301.169 133.743C296.108 134.999 292.757 134.337 288.99 131.037M301.169 142.765C296.627 145.88 293.794 146.583 288.087 145.471M305.229 151.336C301.784 155.711 299.23 157.118 293.5 157.651M310.642 158.553C308.786 164.178 306.859 166.401 301.62 168.477M317.859 165.77C316.875 171.289 315.253 173.63 310.642 176.597M326.881 172.537C326.031 177.936 324.496 180.239 319.664 182.912M335.452 178.401C335.019 183.871 333.759 186.14 329.136 188.325M344.022 184.716C343.682 189.191 342.256 190.874 338.158 192.836" stroke="black" stroke-width="3"/>
</svg>
