<svg width="633" height="1135" viewBox="0 0 633 1135" fill="none" xmlns="http://www.w3.org/2000/svg">
<path d="M628.372 1030.78L617.246 1015.55L613.099 1030.78L605.463 1048.84L593.056 1066.42L581.603 1075.93L568.288 1082.03L579.415 1093.72L589.429 1107.35L603.077 1133.44L623.598 1097.79L631.233 1071.65L631.71 1050.74L628.372 1030.78Z" fill="#FBDAB8"/>
<ellipse cx="56.2727" cy="29.2073" rx="56.2727" ry="29.2073" transform="matrix(0.412043 0.911164 0.911172 -0.412027 497.051 990.229)" fill="#FBDAB8"/>
<ellipse cx="56.2727" cy="29.2073" rx="56.2727" ry="29.2073" transform="matrix(0.412043 0.911164 0.911172 -0.412027 497.051 990.229)" fill="#FBDAB8"/>
<ellipse cx="56.2727" cy="29.2073" rx="56.2727" ry="29.2073" transform="matrix(0.412043 0.911164 0.911172 -0.412027 497.051 990.229)" fill="#FBDAB8"/>
<ellipse cx="56.2727" cy="29.2073" rx="56.2727" ry="29.2073" transform="matrix(0.412043 0.911164 0.911172 -0.412027 497.051 990.229)" fill="#FBDAB8"/>
<ellipse cx="22.4295" cy="31.422" rx="22.4295" ry="31.422" transform="matrix(-0.841466 -0.540311 -0.540329 0.841454 620.931 1025.96)" fill="#FBDAB8"/>
<ellipse cx="22.4295" cy="31.422" rx="22.4295" ry="31.422" transform="matrix(-0.841466 -0.540311 -0.540329 0.841454 620.931 1025.96)" fill="#FBDAB8"/>
<ellipse cx="22.4295" cy="31.422" rx="22.4295" ry="31.422" transform="matrix(-0.841466 -0.540311 -0.540329 0.841454 620.931 1025.96)" fill="#FBDAB8"/>
<ellipse cx="22.4295" cy="31.422" rx="22.4295" ry="31.422" transform="matrix(-0.841466 -0.540311 -0.540329 0.841454 620.931 1025.96)" fill="#FBDAB8"/>
<ellipse cx="8.1964" cy="17.9068" rx="8.1964" ry="17.9068" transform="matrix(-0.626224 -0.779643 -0.779657 0.626207 598.024 1063.18)" fill="#FBDAB8"/>
<ellipse cx="8.1964" cy="17.9068" rx="8.1964" ry="17.9068" transform="matrix(-0.626224 -0.779643 -0.779657 0.626207 598.024 1063.18)" fill="#FBDAB8"/>
<ellipse cx="8.1964" cy="17.9068" rx="8.1964" ry="17.9068" transform="matrix(-0.626224 -0.779643 -0.779657 0.626207 598.024 1063.18)" fill="#FBDAB8"/>
<ellipse cx="8.1964" cy="17.9068" rx="8.1964" ry="17.9068" transform="matrix(-0.626224 -0.779643 -0.779657 0.626207 598.024 1063.18)" fill="#FBDAB8"/>
<rect width="20.9979" height="1201.64" transform="matrix(-0.878118 0.478444 0.478461 0.878109 19.2699 0.526123)" fill="#5F3900"/>
<rect width="12.4572" height="1194.02" transform="matrix(-0.878118 0.478444 0.478461 0.878109 17.531 6.19995)" fill="#AB6700"/>
<path d="M522.948 968.542L512.889 973.582L515.159 975.218L524.531 971.809L522.948 968.542Z" fill="#FBDAB8"/>
<ellipse cx="19.7497" cy="15.0209" rx="19.7497" ry="15.0209" transform="matrix(-1 0 0 1 527.12 944.619)" fill="black"/>
<ellipse cx="18.6114" cy="13.8393" rx="18.6114" ry="13.8393" transform="matrix(-1 0 0 1 525.768 945.414)" fill="#FBDAB8"/>
<path d="M628.847 1031.31L617.394 1015.09" stroke="black" stroke-width="2"/>
<path d="M567.763 1081.9C585.518 1098.54 594.508 1113.59 603.059 1133.77" stroke="black" stroke-width="2"/>
<ellipse cx="22.4296" cy="31.4219" rx="22.4296" ry="31.4219" transform="matrix(-0.899683 0.436544 0.436561 0.899675 600.176 964.502)" fill="#FBDAB8"/>
<ellipse cx="22.4296" cy="31.4219" rx="22.4296" ry="31.4219" transform="matrix(-0.899683 0.436544 0.436561 0.899675 600.176 964.502)" fill="#FBDAB8"/>
<ellipse cx="22.4296" cy="31.4219" rx="22.4296" ry="31.4219" transform="matrix(-0.899683 0.436544 0.436561 0.899675 600.176 964.502)" fill="#FBDAB8"/>
<ellipse cx="22.4296" cy="31.4219" rx="22.4296" ry="31.4219" transform="matrix(-0.899683 0.436544 0.436561 0.899675 600.176 964.502)" fill="#FBDAB8"/>
<ellipse cx="8.19646" cy="15.0404" rx="8.19646" ry="15.0404" transform="matrix(-0.841466 -0.540311 -0.540329 0.841454 618.068 1023.94)" fill="#FBDAB8"/>
<ellipse cx="8.19646" cy="15.0404" rx="8.19646" ry="15.0404" transform="matrix(-0.841466 -0.540311 -0.540329 0.841454 618.068 1023.94)" fill="#FBDAB8"/>
<ellipse cx="8.19646" cy="15.0404" rx="8.19646" ry="15.0404" transform="matrix(-0.841466 -0.540311 -0.540329 0.841454 618.068 1023.94)" fill="#FBDAB8"/>
<ellipse cx="8.19646" cy="15.0404" rx="8.19646" ry="15.0404" transform="matrix(-0.841466 -0.540311 -0.540329 0.841454 618.068 1023.94)" fill="#FBDAB8"/>
<path d="M562.345 1017.8C567.409 1026.29 573.302 1029.83 577.19 1027.51C581.079 1025.19 581.49 1017.9 576.426 1009.41C571.362 1000.91 564.105 995.904 560.216 998.222C556.328 1000.54 557.281 1009.3 562.345 1017.8Z" fill="#FBDAB8"/>
<path d="M562.345 1017.8C567.409 1026.29 573.302 1029.83 577.19 1027.51C581.079 1025.19 581.49 1017.9 576.426 1009.41C571.362 1000.91 564.105 995.904 560.216 998.222C556.328 1000.54 557.281 1009.3 562.345 1017.8Z" fill="#FBDAB8"/>
<path d="M562.345 1017.8C567.409 1026.29 573.302 1029.83 577.19 1027.51C581.079 1025.19 581.49 1017.9 576.426 1009.41C571.362 1000.91 564.105 995.904 560.216 998.222C556.328 1000.54 557.281 1009.3 562.345 1017.8Z" fill="#FBDAB8"/>
<path d="M562.345 1017.8C567.409 1026.29 573.302 1029.83 577.19 1027.51C581.079 1025.19 581.49 1017.9 576.426 1009.41C571.362 1000.91 564.105 995.904 560.216 998.222C556.328 1000.54 557.281 1009.3 562.345 1017.8Z" fill="#FBDAB8"/>
<path d="M564.395 1041.7C573.654 1038.22 579.963 1031.75 577.746 1025.84C575.53 1019.94 566.266 1015.95 557.007 1019.42C547.748 1022.9 542.039 1030.5 544.256 1036.41C546.472 1042.31 555.136 1045.17 564.395 1041.7Z" fill="#FBDAB8"/>
<path d="M564.395 1041.7C573.654 1038.22 579.963 1031.75 577.746 1025.84C575.53 1019.94 566.266 1015.95 557.007 1019.42C547.748 1022.9 542.039 1030.5 544.256 1036.41C546.472 1042.31 555.136 1045.17 564.395 1041.7Z" fill="#FBDAB8"/>
<path d="M564.395 1041.7C573.654 1038.22 579.963 1031.75 577.746 1025.84C575.53 1019.94 566.266 1015.95 557.007 1019.42C547.748 1022.9 542.039 1030.5 544.256 1036.41C546.472 1042.31 555.136 1045.17 564.395 1041.7Z" fill="#FBDAB8"/>
<path d="M564.395 1041.7C573.654 1038.22 579.963 1031.75 577.746 1025.84C575.53 1019.94 566.266 1015.95 557.007 1019.42C547.748 1022.9 542.039 1030.5 544.256 1036.41C546.472 1042.31 555.136 1045.17 564.395 1041.7Z" fill="#FBDAB8"/>
<ellipse cx="11.4202" cy="19.3328" rx="11.4202" ry="19.3328" transform="matrix(-0.924032 0.382315 0.38233 0.924026 554.092 984.663)" fill="#FBDAB8"/>
<ellipse cx="11.4202" cy="19.3328" rx="11.4202" ry="19.3328" transform="matrix(-0.924032 0.382315 0.38233 0.924026 554.092 984.663)" fill="#FBDAB8"/>
<ellipse cx="11.4202" cy="19.3328" rx="11.4202" ry="19.3328" transform="matrix(-0.924032 0.382315 0.38233 0.924026 554.092 984.663)" fill="#FBDAB8"/>
<ellipse cx="11.4202" cy="19.3328" rx="11.4202" ry="19.3328" transform="matrix(-0.924032 0.382315 0.38233 0.924026 554.092 984.663)" fill="#FBDAB8"/>
<ellipse cx="22.4293" cy="31.4223" rx="22.4293" ry="31.4223" transform="matrix(-0.523314 0.85214 0.852151 0.523297 561.65 951.141)" fill="#FBDAB8"/>
<ellipse cx="22.4293" cy="31.4223" rx="22.4293" ry="31.4223" transform="matrix(-0.523314 0.85214 0.852151 0.523297 561.65 951.141)" fill="#FBDAB8"/>
<ellipse cx="22.4293" cy="31.4223" rx="22.4293" ry="31.4223" transform="matrix(-0.523314 0.85214 0.852151 0.523297 561.65 951.141)" fill="#FBDAB8"/>
<ellipse cx="22.4293" cy="31.4223" rx="22.4293" ry="31.4223" transform="matrix(-0.523314 0.85214 0.852151 0.523297 561.65 951.141)" fill="#FBDAB8"/>
<path d="M542.698 1002.76C559.822 995.013 550.955 978.848 547.426 971.045C543.898 963.243 539.516 964.167 522.391 971.911C505.267 979.655 493.272 988.834 496.8 996.636C500.329 1004.44 525.573 1010.5 542.698 1002.76Z" fill="#FBDAB8"/>
<path d="M542.698 1002.76C559.822 995.013 550.955 978.848 547.426 971.045C543.898 963.243 539.516 964.167 522.391 971.911C505.267 979.655 493.272 988.834 496.8 996.636C500.329 1004.44 525.573 1010.5 542.698 1002.76Z" fill="#FBDAB8"/>
<path d="M542.698 1002.76C559.822 995.013 550.955 978.848 547.426 971.045C543.898 963.243 539.516 964.167 522.391 971.911C505.267 979.655 493.272 988.834 496.8 996.636C500.329 1004.44 525.573 1010.5 542.698 1002.76Z" fill="#FBDAB8"/>
<path d="M542.698 1002.76C559.822 995.013 550.955 978.848 547.426 971.045C543.898 963.243 539.516 964.167 522.391 971.911C505.267 979.655 493.272 988.834 496.8 996.636C500.329 1004.44 525.573 1010.5 542.698 1002.76Z" fill="#FBDAB8"/>
<ellipse cx="12.1947" cy="20.334" rx="12.1947" ry="20.334" transform="matrix(-0.954676 0.297647 0.29766 0.954672 554.421 929.189)" fill="#FBDAB8"/>
<ellipse cx="12.1947" cy="20.334" rx="12.1947" ry="20.334" transform="matrix(-0.954676 0.297647 0.29766 0.954672 554.421 929.189)" fill="#FBDAB8"/>
<ellipse cx="12.1947" cy="20.334" rx="12.1947" ry="20.334" transform="matrix(-0.954676 0.297647 0.29766 0.954672 554.421 929.189)" fill="#FBDAB8"/>
<ellipse cx="12.1947" cy="20.334" rx="12.1947" ry="20.334" transform="matrix(-0.954676 0.297647 0.29766 0.954672 554.421 929.189)" fill="#FBDAB8"/>
<path d="M538.394 963.544C539.198 966.122 541.976 967.549 544.598 966.731C547.221 965.914 548.695 963.161 547.892 960.583C547.088 958.005 539.757 951.034 537.134 951.852C534.511 952.67 537.591 960.966 538.394 963.544Z" fill="#FBDAB8"/>
<path d="M538.394 963.544C539.198 966.122 541.976 967.549 544.598 966.731C547.221 965.914 548.695 963.161 547.892 960.583C547.088 958.005 539.757 951.034 537.134 951.852C534.511 952.67 537.591 960.966 538.394 963.544Z" fill="#FBDAB8"/>
<path d="M538.394 963.544C539.198 966.122 541.976 967.549 544.598 966.731C547.221 965.914 548.695 963.161 547.892 960.583C547.088 958.005 539.757 951.034 537.134 951.852C534.511 952.67 537.591 960.966 538.394 963.544Z" fill="#FBDAB8"/>
<path d="M538.394 963.544C539.198 966.122 541.976 967.549 544.598 966.731C547.221 965.914 548.695 963.161 547.892 960.583C547.088 958.005 539.757 951.034 537.134 951.852C534.511 952.67 537.591 960.966 538.394 963.544Z" fill="#FBDAB8"/>
<ellipse cx="12.1947" cy="20.334" rx="12.1947" ry="20.334" transform="matrix(-0.986782 0.162055 0.162062 0.986781 564.709 940.642)" fill="#FBDAB8"/>
<ellipse cx="12.1947" cy="20.334" rx="12.1947" ry="20.334" transform="matrix(-0.986782 0.162055 0.162062 0.986781 564.709 940.642)" fill="#FBDAB8"/>
<ellipse cx="12.1947" cy="20.334" rx="12.1947" ry="20.334" transform="matrix(-0.986782 0.162055 0.162062 0.986781 564.709 940.642)" fill="#FBDAB8"/>
<ellipse cx="12.1947" cy="20.334" rx="12.1947" ry="20.334" transform="matrix(-0.986782 0.162055 0.162062 0.986781 564.709 940.642)" fill="#FBDAB8"/>
<ellipse cx="12.1945" cy="20.3343" rx="12.1945" ry="20.3343" transform="matrix(-0.592166 0.805816 0.80583 0.592148 560.479 949.231)" fill="#FBDAB8"/>
<ellipse cx="12.1945" cy="20.3343" rx="12.1945" ry="20.3343" transform="matrix(-0.592166 0.805816 0.80583 0.592148 560.479 949.231)" fill="#FBDAB8"/>
<ellipse cx="12.1945" cy="20.3343" rx="12.1945" ry="20.3343" transform="matrix(-0.592166 0.805816 0.80583 0.592148 560.479 949.231)" fill="#FBDAB8"/>
<ellipse cx="12.1945" cy="20.3343" rx="12.1945" ry="20.3343" transform="matrix(-0.592166 0.805816 0.80583 0.592148 560.479 949.231)" fill="#FBDAB8"/>
<path d="M498.748 1006.37C504.668 1015.91 516.081 1022.4 521.804 1018.85C527.527 1015.3 527.366 1004.69 521.445 995.143C515.524 985.6 506.139 981.403 500.417 984.953C494.694 988.504 492.827 996.83 498.748 1006.37Z" fill="#FBDAB8"/>
<path d="M498.748 1006.37C504.668 1015.91 516.081 1022.4 521.804 1018.85C527.527 1015.3 527.366 1004.69 521.445 995.143C515.524 985.6 506.139 981.403 500.417 984.953C494.694 988.504 492.827 996.83 498.748 1006.37Z" fill="#FBDAB8"/>
<path d="M498.748 1006.37C504.668 1015.91 516.081 1022.4 521.804 1018.85C527.527 1015.3 527.366 1004.69 521.445 995.143C515.524 985.6 506.139 981.403 500.417 984.953C494.694 988.504 492.827 996.83 498.748 1006.37Z" fill="#FBDAB8"/>
<path d="M498.748 1006.37C504.668 1015.91 516.081 1022.4 521.804 1018.85C527.527 1015.3 527.366 1004.69 521.445 995.143C515.524 985.6 506.139 981.403 500.417 984.953C494.694 988.504 492.827 996.83 498.748 1006.37Z" fill="#FBDAB8"/>
<path d="M505.424 1036.41C510.259 1046.55 519.853 1052.31 525.932 1049.41C532.011 1046.51 533.018 1035.94 528.182 1025.8C523.346 1015.67 514.283 1009.04 508.205 1011.94C502.126 1014.84 500.588 1026.28 505.424 1036.41Z" fill="#FBDAB8"/>
<path d="M505.424 1036.41C510.259 1046.55 519.853 1052.31 525.932 1049.41C532.011 1046.51 533.018 1035.94 528.182 1025.8C523.346 1015.67 514.283 1009.04 508.205 1011.94C502.126 1014.84 500.588 1026.28 505.424 1036.41Z" fill="#FBDAB8"/>
<path d="M505.424 1036.41C510.259 1046.55 519.853 1052.31 525.932 1049.41C532.011 1046.51 533.018 1035.94 528.182 1025.8C523.346 1015.67 514.283 1009.04 508.205 1011.94C502.126 1014.84 500.588 1026.28 505.424 1036.41Z" fill="#FBDAB8"/>
<path d="M505.424 1036.41C510.259 1046.55 519.853 1052.31 525.932 1049.41C532.011 1046.51 533.018 1035.94 528.182 1025.8C523.346 1015.67 514.283 1009.04 508.205 1011.94C502.126 1014.84 500.588 1026.28 505.424 1036.41Z" fill="#FBDAB8"/>
<ellipse cx="12.1946" cy="20.3341" rx="12.1946" ry="20.3341" transform="matrix(-0.934396 0.356237 0.356251 0.93439 523.405 1012.22)" fill="#FBDAB8"/>
<ellipse cx="12.1946" cy="20.3341" rx="12.1946" ry="20.3341" transform="matrix(-0.934396 0.356237 0.356251 0.93439 523.405 1012.22)" fill="#FBDAB8"/>
<ellipse cx="12.1946" cy="20.3341" rx="12.1946" ry="20.3341" transform="matrix(-0.934396 0.356237 0.356251 0.93439 523.405 1012.22)" fill="#FBDAB8"/>
<ellipse cx="12.1946" cy="20.3341" rx="12.1946" ry="20.3341" transform="matrix(-0.934396 0.356237 0.356251 0.93439 523.405 1012.22)" fill="#FBDAB8"/>
<path d="M519.053 1064.23C523.889 1074.37 534.171 1082.85 540.249 1079.95C546.328 1077.05 547.335 1066.48 542.499 1056.35C537.664 1046.21 528.816 1040.35 522.737 1043.24C516.659 1046.14 514.218 1054.1 519.053 1064.23Z" fill="#FBDAB8"/>
<path d="M519.053 1064.23C523.889 1074.37 534.171 1082.85 540.249 1079.95C546.328 1077.05 547.335 1066.48 542.499 1056.35C537.664 1046.21 528.816 1040.35 522.737 1043.24C516.659 1046.14 514.218 1054.1 519.053 1064.23Z" fill="#FBDAB8"/>
<path d="M519.053 1064.23C523.889 1074.37 534.171 1082.85 540.249 1079.95C546.328 1077.05 547.335 1066.48 542.499 1056.35C537.664 1046.21 528.816 1040.35 522.737 1043.24C516.659 1046.14 514.218 1054.1 519.053 1064.23Z" fill="#FBDAB8"/>
<path d="M519.053 1064.23C523.889 1074.37 534.171 1082.85 540.249 1079.95C546.328 1077.05 547.335 1066.48 542.499 1056.35C537.664 1046.21 528.816 1040.35 522.737 1043.24C516.659 1046.14 514.218 1054.1 519.053 1064.23Z" fill="#FBDAB8"/>
<ellipse cx="10.0351" cy="16.2385" rx="10.0351" ry="16.2385" transform="matrix(0.0481609 0.99884 0.99884 -0.0481586 527.395 1063.42)" fill="#FBDAB8"/>
<ellipse cx="10.0351" cy="16.2385" rx="10.0351" ry="16.2385" transform="matrix(0.0481609 0.99884 0.99884 -0.0481586 527.395 1063.42)" fill="#FBDAB8"/>
<ellipse cx="10.0351" cy="16.2385" rx="10.0351" ry="16.2385" transform="matrix(0.0481609 0.99884 0.99884 -0.0481586 527.395 1063.42)" fill="#FBDAB8"/>
<ellipse cx="10.0351" cy="16.2385" rx="10.0351" ry="16.2385" transform="matrix(0.0481609 0.99884 0.99884 -0.0481586 527.395 1063.42)" fill="#FBDAB8"/>
<ellipse cx="10.0351" cy="16.2385" rx="10.0351" ry="16.2385" transform="matrix(0.0481609 0.99884 0.99884 -0.0481586 535.985 1063.42)" fill="#FBDAB8"/>
<ellipse cx="10.0351" cy="16.2385" rx="10.0351" ry="16.2385" transform="matrix(0.0481609 0.99884 0.99884 -0.0481586 535.985 1063.42)" fill="#FBDAB8"/>
<ellipse cx="10.0351" cy="16.2385" rx="10.0351" ry="16.2385" transform="matrix(0.0481609 0.99884 0.99884 -0.0481586 535.985 1063.42)" fill="#FBDAB8"/>
<ellipse cx="10.0351" cy="16.2385" rx="10.0351" ry="16.2385" transform="matrix(0.0481609 0.99884 0.99884 -0.0481586 535.985 1063.42)" fill="#FBDAB8"/>
<path d="M617.797 1015.09C624.56 978.166 566.857 956.911 568.041 957.544C547.269 918.705 530.361 928.775 536.641 957.544L538.573 965.699" stroke="black" stroke-width="2"/>
<path d="M567.762 1081.9H535.272C535.272 1081.9 475.07 1042.86 568.718 1017M544.828 1048.98C548.11 1051.09 549.568 1052.51 548.172 1057.44" stroke="black" stroke-width="2"/>
<path d="M543.903 1049.45C576.301 1039.07 588.546 1029.88 568.599 1017" stroke="black" stroke-width="2"/>
<path d="M553.447 993.136C511.496 1003.34 483.671 1014.04 516.022 1052.31" stroke="black" stroke-width="2"/>
<path d="M578.262 1030.36C579.892 1033.75 581.424 1035.29 585.897 1037.04" stroke="black" stroke-width="2"/>
<path d="M557.439 984.213C559.467 985.314 560.589 985.67 562.93 984.722C561.186 988.953 561.57 991.405 564.161 994.422" stroke="black" stroke-width="2"/>
<path d="M565.854 958.776C570.099 961.07 571.526 961.972 571.581 962.594" stroke="#FBDAB8" stroke-width="2"/>
<path d="M617.802 1014.72C617.802 1014.72 605.577 1071 567.763 1081.9" stroke="black" stroke-width="2"/>
<path d="M502.085 973.549L515.994 974.662" stroke="black" stroke-width="2"/>
<path d="M538.176 965.457C502.75 979.496 482.299 988.505 504.38 1014.13" stroke="black" stroke-width="2"/>
<path d="M556.328 986.344L553.644 991.708L552.711 993.299L560.5 993.855L556.328 986.344Z" fill="#A56300"/>
<path d="M552.488 993.135C563.398 975.288 558.788 968.657 538.176 965.457" stroke="black" stroke-width="2"/>
<path d="M568.468 1017C581.743 1000.63 575.697 995.263 552.493 993.136" stroke="black" stroke-width="2"/>
<path d="M628.651 1031.13C635.827 1067.17 632.086 1088.29 603.078 1133.44" stroke="black" stroke-width="2"/>
</svg>
