<svg width="2030" height="1239" viewBox="0 0 2030 1239" fill="none" xmlns="http://www.w3.org/2000/svg">
<path d="M88.1139 1079.88L1954.67 1080.19L2029.39 1145.42H14.2999L88.1139 1079.88Z" fill="black"/>
<rect y="1145.42" width="2029.39" height="59.5828" fill="black"/>
<path d="M73.9013 1079.88L1942.66 1080.19L2017.47 1145.42H0L73.9013 1079.88Z" fill="black"/>
<rect x="1901.49" y="1089.24" width="1079.18" height="53.3176" transform="rotate(-89.8916 1901.49 1089.24)" fill="black"/>
<rect x="133.466" y="0.239014" width="1823.23" height="54.8162" fill="black"/>
<rect x="73.9014" y="1092.1" width="1092.1" height="62.0699" transform="rotate(-89.8916 73.9014 1092.1)" fill="black"/>
<path d="M137.711 55.0552H1897.12V1079.88H135.849L137.711 55.0552Z" fill="#256838"/>
<path d="M133.466 9.77222H1922.14V61.0134H133.466V9.77222Z" fill="#896023"/>
<rect x="10.725" y="1145.42" width="2009.13" height="51.2412" fill="#896023"/>
<path d="M84.9188 1079.88H1945.35L2019.86 1145.42H10.725L84.9188 1079.88Z" fill="#643D02"/>
<path d="M84.3207 1079.88L1945.35 1080.19L2019.86 1145.42H10.725L84.3207 1079.88Z" fill="#643D02"/>
<rect x="1893.44" y="1079.69" width="1069.64" height="51.5943" transform="rotate(-89.8916 1893.44 1079.69)" fill="#896023"/>
<rect x="84.4688" y="1079.64" width="1069.64" height="51.5263" transform="rotate(-89.8916 84.4688 1079.64)" fill="#896023"/>
<path d="M709.035 703.316V1123.97H499.304L709.035 703.316Z" fill="black"/>
<path d="M703.077 725.958V1120.4H506.454L703.077 725.958Z" fill="#FFF06D"/>
<path d="M664.944 882.064V1089.41H566.037L664.944 882.064Z" fill="#256838"/>
<rect x="108.64" y="1067.28" width="363.788" height="49.0431" fill="black"/>
<path d="M444.492 1072.86C444.492 1028.9 428.14 986.744 399.035 955.659C369.929 924.575 330.454 907.111 289.292 907.111C248.131 907.111 208.655 924.575 179.549 955.659C150.444 986.744 134.092 1028.9 134.092 1072.86L194.267 1072.86C194.267 1045.95 204.279 1020.14 222.099 1001.1C239.92 982.07 264.09 971.378 289.292 971.378C314.494 971.378 338.664 982.07 356.485 1001.1C374.305 1020.14 384.317 1045.95 384.317 1072.86H444.492Z" fill="black"/>
<path d="M444.492 1072.86C444.492 1031.7 428.14 992.228 399.035 963.122C369.929 934.016 330.454 917.665 289.292 917.665C248.131 917.665 208.655 934.016 179.549 963.122C150.444 992.228 134.092 1031.7 134.092 1072.86L194.267 1072.86C194.267 1047.66 204.279 1023.49 222.099 1005.67C239.92 987.851 264.09 977.84 289.292 977.84C314.494 977.84 338.664 987.851 356.485 1005.67C374.305 1023.49 384.317 1047.66 384.317 1072.86H444.492Z" fill="#0093E6"/>
<rect x="108.64" y="1072.86" width="363.788" height="49.0431" fill="#0093E5"/>
<path d="M288.982 947.774V974.779" stroke="black" stroke-width="3"/>
<line y1="-1" x2="18.9537" y2="-1" transform="matrix(0.1687 0.985667 0.988645 -0.15027 269.954 956.775)" stroke="black" stroke-width="2"/>
<line y1="-1" x2="18.0409" y2="-1" transform="matrix(0.248129 0.968727 0.975091 -0.221804 255.245 960.994)" stroke="black" stroke-width="2"/>
<line y1="-1.5" x2="25.0824" y2="-1.5" transform="matrix(0.407933 0.913012 0.929502 -0.368817 236.06 960.994)" stroke="black" stroke-width="3"/>
<line y1="-1" x2="19.0709" y2="-1" transform="matrix(0.570054 0.821607 0.85136 -0.524581 223.91 974.252)" stroke="black" stroke-width="2"/>
<line y1="-1" x2="19.7499" y2="-1" transform="matrix(0.712355 0.70182 0.742776 -0.66954 209.841 983.895)" stroke="black" stroke-width="2"/>
<line y1="-1.5" x2="27.3219" y2="-1.5" transform="matrix(0.819213 0.57349 0.619067 -0.785338 191.296 992.331)" stroke="black" stroke-width="3"/>
<line y1="-1" x2="18.9607" y2="-1" transform="matrix(0.910644 0.413192 0.454978 -0.890503 187.459 1013.42)" stroke="black" stroke-width="2"/>
<line y1="-1" x2="19.3111" y2="-1" transform="matrix(0.927233 0.374486 0.413978 -0.910287 181.064 1026.68)" stroke="black" stroke-width="2"/>
<line y1="-1.5" x2="28.5926" y2="-1.5" transform="matrix(0.961729 0.274001 0.305477 -0.952199 166.995 1039.94)" stroke="black" stroke-width="3"/>
<line y1="-1" x2="18.5845" y2="-1" transform="matrix(-0.997895 -0.0648546 -0.0729874 0.997333 191.296 1059.83)" stroke="black" stroke-width="2"/>
<line x1="189.888" y1="1054.73" x2="181.818" y2="1053.49" stroke="#FF9F9F"/>
<line x1="194.134" y1="1040.43" x2="184.202" y2="1036.71" stroke="#FF9F9F"/>
<line x1="199.079" y1="1027.38" x2="190.388" y2="1023.66" stroke="#FF9F9F"/>
<line x1="206.491" y1="1013.71" x2="197.179" y2="1008.74" stroke="#FF9F9F"/>
<line x1="216.354" y1="1001.87" x2="208.283" y2="995.661" stroke="#FF9F9F"/>
<line x1="227.455" y1="992.488" x2="219.385" y2="983.176" stroke="#FF9F9F"/>
<line x1="238.595" y1="984.994" x2="231.767" y2="975.061" stroke="#FF9F9F"/>
<line x1="250.947" y1="978.653" x2="247.222" y2="966.858" stroke="#FF9F9F"/>
<line x1="264.592" y1="974.881" x2="262.108" y2="963.086" stroke="#FF9F9F"/>
<line x1="280.103" y1="972.343" x2="278.862" y2="959.306" stroke="#FF9F9F"/>
<line x1="280.103" y1="972.343" x2="278.862" y2="959.306" stroke="#FF9F9F"/>
<line y1="-1" x2="19.3971" y2="-1" transform="matrix(-0.159816 0.987147 -0.987335 -0.15865 308.045 956.068)" stroke="black" stroke-width="2"/>
<line y1="-1" x2="18.4307" y2="-1" transform="matrix(-0.235475 0.97188 -0.972283 -0.233809 322.305 960.392)" stroke="black" stroke-width="2"/>
<line y1="-1.5" x2="25.4817" y2="-1.5" transform="matrix(-0.389297 0.921112 -0.922155 -0.38682 340.905 960.392)" stroke="black" stroke-width="3"/>
<line y1="-1" x2="19.2093" y2="-1" transform="matrix(-0.54869 0.836026 -0.837909 -0.545809 352.685 973.981)" stroke="black" stroke-width="2"/>
<line y1="-1" x2="19.6944" y2="-1" transform="matrix(-0.692578 0.721343 -0.723938 -0.689865 366.325 983.863)" stroke="black" stroke-width="2"/>
<line y1="-1.5" x2="26.9961" y2="-1.5" transform="matrix(-0.803814 0.59488 -0.597767 -0.80167 384.305 992.511)" stroke="black" stroke-width="3"/>
<line y1="-1" x2="18.5661" y2="-1" transform="matrix(-0.901637 0.432494 -0.43514 -0.900363 388.025 1014.13)" stroke="black" stroke-width="2"/>
<line y1="-1" x2="18.876" y2="-1" transform="matrix(-0.919679 0.39267 -0.395171 -0.918608 394.225 1027.72)" stroke="black" stroke-width="2"/>
<line y1="-1.5" x2="27.8428" y2="-1.5" transform="matrix(-0.957512 0.288395 -0.290387 -0.956909 407.865 1041.31)" stroke="black" stroke-width="3"/>
<line y1="-1" x2="18.0223" y2="-1" transform="matrix(0.997648 -0.0685453 0.0690598 0.997613 384.305 1061.69)" stroke="black" stroke-width="2"/>
<line y1="-0.5" x2="7.92708" y2="-0.5" transform="matrix(0.987031 -0.160532 -0.14401 -0.989576 385.596 1055.96)" stroke="#FF9F9F"/>
<line y1="-0.5" x2="10.359" y2="-0.5" transform="matrix(0.929614 -0.368535 -0.334311 -0.942463 381.382 1041.33)" stroke="#FF9F9F"/>
<line y1="-0.5" x2="9.25064" y2="-0.5" transform="matrix(0.910871 -0.412691 -0.375697 -0.926742 376.568 1027.97)" stroke="#FF9F9F"/>
<line y1="-0.5" x2="10.3641" y2="-0.5" transform="matrix(0.871082 -0.491137 -0.450419 -0.892817 369.345 1013.97)" stroke="#FF9F9F"/>
<line y1="-0.5" x2="10.0848" y2="-0.5" transform="matrix(0.775845 -0.630923 -0.588362 -0.808598 359.715 1001.88)" stroke="#FF9F9F"/>
<line y1="-0.5" x2="12.3414" y2="-0.5" transform="matrix(0.633987 -0.773344 -0.737321 -0.675543 348.882 992.336)" stroke="#FF9F9F"/>
<line y1="-0.5" x2="12.1438" y2="-0.5" transform="matrix(0.545178 -0.83832 -0.808916 -0.587924 338.048 984.701)" stroke="#FF9F9F"/>
<line y1="-0.5" x2="12.6171" y2="-0.5" transform="matrix(0.286216 -0.958165 -0.948538 -0.316663 326.011 978.338)" stroke="#FF9F9F"/>
<line y1="-0.5" x2="12.3266" y2="-0.5" transform="matrix(0.195307 -0.980742 -0.976117 -0.217246 312.77 974.521)" stroke="#FF9F9F"/>
<line y1="-0.5" x2="13.4159" y2="-0.5" transform="matrix(0.0897245 -0.995967 -0.99497 -0.100176 297.723 971.975)" stroke="#FF9F9F"/>
<line y1="-0.5" x2="13.4159" y2="-0.5" transform="matrix(0.0897245 -0.995967 -0.99497 -0.100176 297.723 971.975)" stroke="#FF9F9F"/>
<line x1="146.888" y1="1102.66" x2="146.888" y2="1121.29" stroke="black" stroke-width="2"/>
<line x1="136.334" y1="1102.66" x2="136.334" y2="1121.29" stroke="black" stroke-width="2"/>
<line x1="161.045" y1="1097.08" x2="161.045" y2="1121.29" stroke="black" stroke-width="3"/>
<line x1="152.837" y1="1116.32" x2="152.837" y2="1109.49" stroke="#FF9F9F"/>
<line x1="141.042" y1="1116.32" x2="141.042" y2="1109.49" stroke="#FF9F9F"/>
<line x1="179.79" y1="1102.66" x2="179.79" y2="1121.29" stroke="black" stroke-width="2"/>
<line x1="169.236" y1="1102.66" x2="169.236" y2="1121.29" stroke="black" stroke-width="2"/>
<line x1="193.948" y1="1097.08" x2="193.948" y2="1121.29" stroke="black" stroke-width="3"/>
<line x1="185.74" y1="1116.32" x2="185.74" y2="1109.49" stroke="#FF9F9F"/>
<line x1="173.944" y1="1116.32" x2="173.944" y2="1109.49" stroke="#FF9F9F"/>
<line x1="213.313" y1="1102.66" x2="213.313" y2="1121.29" stroke="black" stroke-width="2"/>
<line x1="202.76" y1="1102.66" x2="202.76" y2="1121.29" stroke="black" stroke-width="2"/>
<line x1="227.471" y1="1097.08" x2="227.471" y2="1121.29" stroke="black" stroke-width="3"/>
<line x1="219.263" y1="1116.32" x2="219.263" y2="1109.49" stroke="#FF9F9F"/>
<line x1="207.467" y1="1116.32" x2="207.467" y2="1109.49" stroke="#FF9F9F"/>
<line x1="248.078" y1="1102.66" x2="248.078" y2="1121.29" stroke="black" stroke-width="2"/>
<line x1="237.524" y1="1102.66" x2="237.524" y2="1121.29" stroke="black" stroke-width="2"/>
<line x1="262.235" y1="1097.08" x2="262.235" y2="1121.29" stroke="black" stroke-width="3"/>
<line x1="254.027" y1="1116.32" x2="254.027" y2="1109.49" stroke="#FF9F9F"/>
<line x1="242.232" y1="1116.32" x2="242.232" y2="1109.49" stroke="#FF9F9F"/>
<line x1="282.843" y1="1102.66" x2="282.843" y2="1121.29" stroke="black" stroke-width="2"/>
<line x1="272.289" y1="1102.66" x2="272.289" y2="1121.29" stroke="black" stroke-width="2"/>
<line x1="297" y1="1097.08" x2="297" y2="1121.29" stroke="black" stroke-width="3"/>
<line x1="288.792" y1="1116.32" x2="288.792" y2="1109.49" stroke="#FF9F9F"/>
<line x1="276.997" y1="1116.32" x2="276.997" y2="1109.49" stroke="#FF9F9F"/>
<line x1="317.607" y1="1102.66" x2="317.607" y2="1121.29" stroke="black" stroke-width="2"/>
<line x1="307.054" y1="1102.66" x2="307.054" y2="1121.29" stroke="black" stroke-width="2"/>
<line x1="331.765" y1="1097.08" x2="331.765" y2="1121.29" stroke="black" stroke-width="3"/>
<line x1="323.557" y1="1116.32" x2="323.557" y2="1109.49" stroke="#FF9F9F"/>
<line x1="311.762" y1="1116.32" x2="311.762" y2="1109.49" stroke="#FF9F9F"/>
<line x1="422.522" y1="1102.66" x2="422.522" y2="1121.29" stroke="black" stroke-width="2"/>
<line x1="411.969" y1="1102.66" x2="411.969" y2="1121.29" stroke="black" stroke-width="2"/>
<line x1="436.68" y1="1097.08" x2="436.68" y2="1121.29" stroke="black" stroke-width="3"/>
<line x1="428.472" y1="1116.32" x2="428.472" y2="1109.49" stroke="#FF9F9F"/>
<line x1="416.677" y1="1116.32" x2="416.677" y2="1109.49" stroke="#FF9F9F"/>
<line x1="387.757" y1="1102.66" x2="387.757" y2="1121.29" stroke="black" stroke-width="2"/>
<line x1="377.204" y1="1102.66" x2="377.204" y2="1121.29" stroke="black" stroke-width="2"/>
<line x1="401.915" y1="1097.08" x2="401.915" y2="1121.29" stroke="black" stroke-width="3"/>
<line x1="393.707" y1="1116.32" x2="393.707" y2="1109.49" stroke="#FF9F9F"/>
<line x1="381.912" y1="1116.32" x2="381.912" y2="1109.49" stroke="#FF9F9F"/>
<line x1="352.993" y1="1102.66" x2="352.993" y2="1121.29" stroke="black" stroke-width="2"/>
<line x1="342.439" y1="1102.66" x2="342.439" y2="1121.29" stroke="black" stroke-width="2"/>
<line x1="367.15" y1="1097.08" x2="367.15" y2="1121.29" stroke="black" stroke-width="3"/>
<line x1="358.942" y1="1116.32" x2="358.942" y2="1109.49" stroke="#FF9F9F"/>
<line x1="347.147" y1="1116.32" x2="347.147" y2="1109.49" stroke="#FF9F9F"/>
<line x1="701.885" y1="1094.49" x2="678.052" y2="1094.49" stroke="black" stroke-width="3"/>
<line x1="701.885" y1="1084.45" x2="687.586" y2="1084.45" stroke="black" stroke-width="2"/>
<line x1="701.885" y1="1076.11" x2="687.586" y2="1076.11" stroke="black" stroke-width="2"/>
<line x1="699.502" y1="1088.72" x2="694.736" y2="1088.72" stroke="#FF0000"/>
<line x1="699.502" y1="1079.19" x2="694.736" y2="1079.19" stroke="#FF0000"/>
<line x1="701.885" y1="1068.27" x2="678.052" y2="1068.27" stroke="black" stroke-width="3"/>
<line x1="701.885" y1="1059.43" x2="687.586" y2="1059.43" stroke="black" stroke-width="2"/>
<line x1="701.885" y1="1051.09" x2="687.586" y2="1051.09" stroke="black" stroke-width="2"/>
<line x1="699.502" y1="1063.7" x2="694.736" y2="1063.7" stroke="#FF0000"/>
<line x1="699.502" y1="1054.16" x2="694.736" y2="1054.16" stroke="#FF0000"/>
<line x1="701.885" y1="1043.25" x2="678.052" y2="1043.25" stroke="black" stroke-width="3"/>
<line x1="701.885" y1="1033.21" x2="687.586" y2="1033.21" stroke="black" stroke-width="2"/>
<line x1="701.885" y1="1024.87" x2="687.586" y2="1024.87" stroke="black" stroke-width="2"/>
<line x1="699.502" y1="1037.48" x2="694.736" y2="1037.48" stroke="#FF0000"/>
<line x1="699.502" y1="1029.14" x2="694.736" y2="1029.14" stroke="#FF0000"/>
<line x1="701.885" y1="1018.22" x2="678.052" y2="1018.22" stroke="black" stroke-width="3"/>
<line x1="701.885" y1="1008.19" x2="687.586" y2="1008.19" stroke="black" stroke-width="2"/>
<line x1="701.885" y1="999.847" x2="687.586" y2="999.847" stroke="black" stroke-width="2"/>
<line x1="699.502" y1="1012.46" x2="694.736" y2="1012.46" stroke="#FF0000"/>
<line x1="699.502" y1="1002.92" x2="694.736" y2="1002.92" stroke="#FF0000"/>
<line x1="701.885" y1="992.005" x2="678.052" y2="992.005" stroke="black" stroke-width="3"/>
<line x1="701.885" y1="983.164" x2="687.586" y2="983.164" stroke="black" stroke-width="2"/>
<line x1="701.885" y1="974.822" x2="687.586" y2="974.822" stroke="black" stroke-width="2"/>
<line x1="699.502" y1="987.43" x2="694.736" y2="987.43" stroke="#FF0000"/>
<line x1="699.502" y1="977.897" x2="694.736" y2="977.897" stroke="#FF0000"/>
<line x1="701.885" y1="966.98" x2="678.052" y2="966.98" stroke="black" stroke-width="3"/>
<line x1="701.885" y1="956.947" x2="687.586" y2="956.947" stroke="black" stroke-width="2"/>
<line x1="701.885" y1="948.605" x2="687.586" y2="948.605" stroke="black" stroke-width="2"/>
<line x1="699.502" y1="961.214" x2="694.736" y2="961.214" stroke="#FF0000"/>
<line x1="699.502" y1="952.872" x2="694.736" y2="952.872" stroke="#FF0000"/>
<line x1="701.885" y1="941.956" x2="678.052" y2="941.956" stroke="black" stroke-width="3"/>
<line x1="701.885" y1="931.922" x2="687.586" y2="931.922" stroke="black" stroke-width="2"/>
<line x1="701.885" y1="923.581" x2="687.586" y2="923.581" stroke="black" stroke-width="2"/>
<line x1="699.502" y1="936.189" x2="694.736" y2="936.189" stroke="#FF0000"/>
<line x1="699.502" y1="926.656" x2="694.736" y2="926.656" stroke="#FF0000"/>
<line x1="701.885" y1="915.739" x2="678.052" y2="915.739" stroke="black" stroke-width="3"/>
<line x1="701.885" y1="905.706" x2="687.586" y2="905.706" stroke="black" stroke-width="2"/>
<line x1="701.885" y1="898.556" x2="687.586" y2="898.556" stroke="black" stroke-width="2"/>
<line x1="699.502" y1="911.164" x2="694.736" y2="911.164" stroke="#FF0000"/>
<line x1="699.502" y1="901.631" x2="694.736" y2="901.631" stroke="#FF0000"/>
<line x1="701.885" y1="890.714" x2="678.052" y2="890.714" stroke="black" stroke-width="3"/>
<line x1="701.885" y1="880.682" x2="687.586" y2="880.682" stroke="black" stroke-width="2"/>
<line x1="701.885" y1="872.34" x2="687.586" y2="872.34" stroke="black" stroke-width="2"/>
<line x1="699.502" y1="884.948" x2="694.736" y2="884.948" stroke="#FF0000"/>
<line x1="699.502" y1="875.415" x2="694.736" y2="875.415" stroke="#FF0000"/>
<line x1="701.885" y1="865.69" x2="678.052" y2="865.69" stroke="black" stroke-width="3"/>
<line x1="701.885" y1="855.657" x2="687.586" y2="855.657" stroke="black" stroke-width="2"/>
<line x1="701.885" y1="847.315" x2="687.586" y2="847.315" stroke="black" stroke-width="2"/>
<line x1="699.502" y1="859.923" x2="694.736" y2="859.923" stroke="#FF0000"/>
<line x1="699.502" y1="850.39" x2="694.736" y2="850.39" stroke="#FF0000"/>
<line x1="701.885" y1="814.449" x2="678.052" y2="814.449" stroke="black" stroke-width="3"/>
<line x1="701.885" y1="804.416" x2="687.586" y2="804.416" stroke="black" stroke-width="2"/>
<line x1="701.885" y1="796.074" x2="687.586" y2="796.074" stroke="black" stroke-width="2"/>
<line x1="699.502" y1="808.682" x2="694.736" y2="808.682" stroke="#FF0000"/>
<line x1="699.502" y1="799.148" x2="694.736" y2="799.148" stroke="#FF0000"/>
<line x1="701.885" y1="839.474" x2="678.052" y2="839.474" stroke="black" stroke-width="3"/>
<line x1="701.885" y1="829.44" x2="687.586" y2="829.44" stroke="black" stroke-width="2"/>
<line x1="701.885" y1="822.29" x2="687.586" y2="822.29" stroke="black" stroke-width="2"/>
<line x1="699.502" y1="834.898" x2="694.736" y2="834.898" stroke="#FF0000"/>
<line x1="699.502" y1="825.365" x2="694.736" y2="825.365" stroke="#FF0000"/>
<path d="M569.746 1082.17L664.944 1078.69V1089.41H566.037L569.746 1082.17Z" fill="black"/>
<path d="M88.1139 1079.88L1954.67 1080.19L2029.39 1145.42H14.2999L88.1139 1079.88Z" fill="black"/>
<rect y="1145.42" width="2029.39" height="59.5828" fill="black"/>
<path d="M73.9013 1079.88L1942.66 1080.19L2017.47 1145.42H0L73.9013 1079.88Z" fill="black"/>
<rect x="1901.49" y="1089.24" width="1079.18" height="53.3176" transform="rotate(-89.8916 1901.49 1089.24)" fill="black"/>
<rect x="133.466" y="0.239014" width="1823.23" height="54.8162" fill="black"/>
<rect x="73.9014" y="1092.1" width="1092.1" height="62.0699" transform="rotate(-89.8916 73.9014 1092.1)" fill="black"/>
<path d="M137.711 55.0552H1897.12V1079.88H135.849L137.711 55.0552Z" fill="#256838"/>
<path d="M133.466 9.77222H1922.14V61.0134H133.466V9.77222Z" fill="#896023"/>
<rect x="10.725" y="1145.42" width="2009.13" height="51.2412" fill="#896023"/>
<path d="M84.9188 1079.88H1945.35L2019.86 1145.42H10.725L84.9188 1079.88Z" fill="#643D02"/>
<path d="M84.3207 1079.88L1945.35 1080.19L2019.86 1145.42H10.725L84.3207 1079.88Z" fill="#643D02"/>
<rect x="1893.44" y="1079.69" width="1069.64" height="51.5943" transform="rotate(-89.8916 1893.44 1079.69)" fill="#896023"/>
<rect x="84.4688" y="1079.64" width="1069.64" height="51.5263" transform="rotate(-89.8916 84.4688 1079.64)" fill="#896023"/>
<path d="M709.035 703.316V1123.97H499.304L709.035 703.316Z" fill="black"/>
<path d="M703.077 725.958V1120.4H506.454L703.077 725.958Z" fill="#FFF06D"/>
<path d="M664.944 882.064V1089.41H566.037L664.944 882.064Z" fill="#256838"/>
<rect x="108.64" y="1067.28" width="363.788" height="49.0431" fill="black"/>
<path d="M444.492 1072.86C444.492 1028.9 428.14 986.744 399.035 955.659C369.929 924.575 330.454 907.111 289.292 907.111C248.131 907.111 208.655 924.575 179.549 955.659C150.444 986.744 134.092 1028.9 134.092 1072.86L194.267 1072.86C194.267 1045.95 204.279 1020.14 222.099 1001.1C239.92 982.07 264.09 971.378 289.292 971.378C314.494 971.378 338.664 982.07 356.485 1001.1C374.305 1020.14 384.317 1045.95 384.317 1072.86H444.492Z" fill="black"/>
<path d="M444.492 1072.86C444.492 1031.7 428.14 992.228 399.035 963.122C369.929 934.016 330.454 917.665 289.292 917.665C248.131 917.665 208.655 934.016 179.549 963.122C150.444 992.228 134.092 1031.7 134.092 1072.86L194.267 1072.86C194.267 1047.66 204.279 1023.49 222.099 1005.67C239.92 987.851 264.09 977.84 289.292 977.84C314.494 977.84 338.664 987.851 356.485 1005.67C374.305 1023.49 384.317 1047.66 384.317 1072.86H444.492Z" fill="#0093E6"/>
<rect x="108.64" y="1072.86" width="363.788" height="49.0431" fill="#0093E5"/>
<path d="M288.982 947.774V974.779" stroke="black" stroke-width="3"/>
<line y1="-1" x2="18.9537" y2="-1" transform="matrix(0.1687 0.985667 0.988645 -0.15027 269.954 956.775)" stroke="black" stroke-width="2"/>
<line y1="-1" x2="18.0409" y2="-1" transform="matrix(0.248129 0.968727 0.975091 -0.221804 255.245 960.994)" stroke="black" stroke-width="2"/>
<line y1="-1.5" x2="25.0824" y2="-1.5" transform="matrix(0.407933 0.913012 0.929502 -0.368817 236.06 960.994)" stroke="black" stroke-width="3"/>
<line y1="-1" x2="19.0709" y2="-1" transform="matrix(0.570054 0.821607 0.85136 -0.524581 223.91 974.252)" stroke="black" stroke-width="2"/>
<line y1="-1" x2="19.7499" y2="-1" transform="matrix(0.712355 0.70182 0.742776 -0.66954 209.841 983.895)" stroke="black" stroke-width="2"/>
<line y1="-1.5" x2="27.3219" y2="-1.5" transform="matrix(0.819213 0.57349 0.619067 -0.785338 191.296 992.331)" stroke="black" stroke-width="3"/>
<line y1="-1" x2="18.9607" y2="-1" transform="matrix(0.910644 0.413192 0.454978 -0.890503 187.459 1013.42)" stroke="black" stroke-width="2"/>
<line y1="-1" x2="19.3111" y2="-1" transform="matrix(0.927233 0.374486 0.413978 -0.910287 181.064 1026.68)" stroke="black" stroke-width="2"/>
<line y1="-1.5" x2="28.5926" y2="-1.5" transform="matrix(0.961729 0.274001 0.305477 -0.952199 166.995 1039.94)" stroke="black" stroke-width="3"/>
<line y1="-1" x2="18.5845" y2="-1" transform="matrix(-0.997895 -0.0648546 -0.0729874 0.997333 191.296 1059.83)" stroke="black" stroke-width="2"/>
<line x1="189.888" y1="1054.73" x2="181.818" y2="1053.49" stroke="#FF9F9F"/>
<line x1="194.134" y1="1040.43" x2="184.202" y2="1036.71" stroke="#FF9F9F"/>
<line x1="199.079" y1="1027.38" x2="190.388" y2="1023.66" stroke="#FF9F9F"/>
<line x1="206.491" y1="1013.71" x2="197.179" y2="1008.74" stroke="#FF9F9F"/>
<line x1="216.354" y1="1001.87" x2="208.283" y2="995.661" stroke="#FF9F9F"/>
<line x1="227.455" y1="992.488" x2="219.385" y2="983.176" stroke="#FF9F9F"/>
<line x1="238.595" y1="984.994" x2="231.767" y2="975.061" stroke="#FF9F9F"/>
<line x1="250.947" y1="978.653" x2="247.222" y2="966.858" stroke="#FF9F9F"/>
<line x1="264.592" y1="974.881" x2="262.108" y2="963.086" stroke="#FF9F9F"/>
<line x1="280.103" y1="972.343" x2="278.862" y2="959.306" stroke="#FF9F9F"/>
<line x1="280.103" y1="972.343" x2="278.862" y2="959.306" stroke="#FF9F9F"/>
<line y1="-1" x2="19.3971" y2="-1" transform="matrix(-0.159816 0.987147 -0.987335 -0.15865 308.045 956.068)" stroke="black" stroke-width="2"/>
<line y1="-1" x2="18.4307" y2="-1" transform="matrix(-0.235475 0.97188 -0.972283 -0.233809 322.305 960.392)" stroke="black" stroke-width="2"/>
<line y1="-1.5" x2="25.4817" y2="-1.5" transform="matrix(-0.389297 0.921112 -0.922155 -0.38682 340.905 960.392)" stroke="black" stroke-width="3"/>
<line y1="-1" x2="19.2093" y2="-1" transform="matrix(-0.54869 0.836026 -0.837909 -0.545809 352.685 973.981)" stroke="black" stroke-width="2"/>
<line y1="-1" x2="19.6944" y2="-1" transform="matrix(-0.692578 0.721343 -0.723938 -0.689865 366.325 983.863)" stroke="black" stroke-width="2"/>
<line y1="-1.5" x2="26.9961" y2="-1.5" transform="matrix(-0.803814 0.59488 -0.597767 -0.80167 384.305 992.511)" stroke="black" stroke-width="3"/>
<line y1="-1" x2="18.5661" y2="-1" transform="matrix(-0.901637 0.432494 -0.43514 -0.900363 388.025 1014.13)" stroke="black" stroke-width="2"/>
<line y1="-1" x2="18.876" y2="-1" transform="matrix(-0.919679 0.39267 -0.395171 -0.918608 394.225 1027.72)" stroke="black" stroke-width="2"/>
<line y1="-1.5" x2="27.8428" y2="-1.5" transform="matrix(-0.957512 0.288395 -0.290387 -0.956909 407.865 1041.31)" stroke="black" stroke-width="3"/>
<line y1="-1" x2="18.0223" y2="-1" transform="matrix(0.997648 -0.0685453 0.0690598 0.997613 384.305 1061.69)" stroke="black" stroke-width="2"/>
<line y1="-0.5" x2="7.92708" y2="-0.5" transform="matrix(0.987031 -0.160532 -0.14401 -0.989576 385.596 1055.96)" stroke="#FF9F9F"/>
<line y1="-0.5" x2="10.359" y2="-0.5" transform="matrix(0.929614 -0.368535 -0.334311 -0.942463 381.382 1041.33)" stroke="#FF9F9F"/>
<line y1="-0.5" x2="9.25064" y2="-0.5" transform="matrix(0.910871 -0.412691 -0.375697 -0.926742 376.568 1027.97)" stroke="#FF9F9F"/>
<line y1="-0.5" x2="10.3641" y2="-0.5" transform="matrix(0.871082 -0.491137 -0.450419 -0.892817 369.345 1013.97)" stroke="#FF9F9F"/>
<line y1="-0.5" x2="10.0848" y2="-0.5" transform="matrix(0.775845 -0.630923 -0.588362 -0.808598 359.715 1001.88)" stroke="#FF9F9F"/>
<line y1="-0.5" x2="12.3414" y2="-0.5" transform="matrix(0.633987 -0.773344 -0.737321 -0.675543 348.882 992.336)" stroke="#FF9F9F"/>
<line y1="-0.5" x2="12.1438" y2="-0.5" transform="matrix(0.545178 -0.83832 -0.808916 -0.587924 338.048 984.701)" stroke="#FF9F9F"/>
<line y1="-0.5" x2="12.6171" y2="-0.5" transform="matrix(0.286216 -0.958165 -0.948538 -0.316663 326.011 978.338)" stroke="#FF9F9F"/>
<line y1="-0.5" x2="12.3266" y2="-0.5" transform="matrix(0.195307 -0.980742 -0.976117 -0.217246 312.77 974.521)" stroke="#FF9F9F"/>
<line y1="-0.5" x2="13.4159" y2="-0.5" transform="matrix(0.0897245 -0.995967 -0.99497 -0.100176 297.723 971.975)" stroke="#FF9F9F"/>
<line y1="-0.5" x2="13.4159" y2="-0.5" transform="matrix(0.0897245 -0.995967 -0.99497 -0.100176 297.723 971.975)" stroke="#FF9F9F"/>
<line x1="146.888" y1="1102.66" x2="146.888" y2="1121.29" stroke="black" stroke-width="2"/>
<line x1="136.334" y1="1102.66" x2="136.334" y2="1121.29" stroke="black" stroke-width="2"/>
<line x1="161.045" y1="1097.08" x2="161.045" y2="1121.29" stroke="black" stroke-width="3"/>
<line x1="152.837" y1="1116.32" x2="152.837" y2="1109.49" stroke="#FF9F9F"/>
<line x1="141.042" y1="1116.32" x2="141.042" y2="1109.49" stroke="#FF9F9F"/>
<line x1="179.79" y1="1102.66" x2="179.79" y2="1121.29" stroke="black" stroke-width="2"/>
<line x1="169.236" y1="1102.66" x2="169.236" y2="1121.29" stroke="black" stroke-width="2"/>
<line x1="193.948" y1="1097.08" x2="193.948" y2="1121.29" stroke="black" stroke-width="3"/>
<line x1="185.74" y1="1116.32" x2="185.74" y2="1109.49" stroke="#FF9F9F"/>
<line x1="173.944" y1="1116.32" x2="173.944" y2="1109.49" stroke="#FF9F9F"/>
<line x1="213.313" y1="1102.66" x2="213.313" y2="1121.29" stroke="black" stroke-width="2"/>
<line x1="202.76" y1="1102.66" x2="202.76" y2="1121.29" stroke="black" stroke-width="2"/>
<line x1="227.471" y1="1097.08" x2="227.471" y2="1121.29" stroke="black" stroke-width="3"/>
<line x1="219.263" y1="1116.32" x2="219.263" y2="1109.49" stroke="#FF9F9F"/>
<line x1="207.467" y1="1116.32" x2="207.467" y2="1109.49" stroke="#FF9F9F"/>
<line x1="248.078" y1="1102.66" x2="248.078" y2="1121.29" stroke="black" stroke-width="2"/>
<line x1="237.524" y1="1102.66" x2="237.524" y2="1121.29" stroke="black" stroke-width="2"/>
<line x1="262.235" y1="1097.08" x2="262.235" y2="1121.29" stroke="black" stroke-width="3"/>
<line x1="254.027" y1="1116.32" x2="254.027" y2="1109.49" stroke="#FF9F9F"/>
<line x1="242.232" y1="1116.32" x2="242.232" y2="1109.49" stroke="#FF9F9F"/>
<line x1="282.843" y1="1102.66" x2="282.843" y2="1121.29" stroke="black" stroke-width="2"/>
<line x1="272.289" y1="1102.66" x2="272.289" y2="1121.29" stroke="black" stroke-width="2"/>
<line x1="297" y1="1097.08" x2="297" y2="1121.29" stroke="black" stroke-width="3"/>
<line x1="288.792" y1="1116.32" x2="288.792" y2="1109.49" stroke="#FF9F9F"/>
<line x1="276.997" y1="1116.32" x2="276.997" y2="1109.49" stroke="#FF9F9F"/>
<line x1="317.607" y1="1102.66" x2="317.607" y2="1121.29" stroke="black" stroke-width="2"/>
<line x1="307.054" y1="1102.66" x2="307.054" y2="1121.29" stroke="black" stroke-width="2"/>
<line x1="331.765" y1="1097.08" x2="331.765" y2="1121.29" stroke="black" stroke-width="3"/>
<line x1="323.557" y1="1116.32" x2="323.557" y2="1109.49" stroke="#FF9F9F"/>
<line x1="311.762" y1="1116.32" x2="311.762" y2="1109.49" stroke="#FF9F9F"/>
<line x1="422.522" y1="1102.66" x2="422.522" y2="1121.29" stroke="black" stroke-width="2"/>
<line x1="411.969" y1="1102.66" x2="411.969" y2="1121.29" stroke="black" stroke-width="2"/>
<line x1="436.68" y1="1097.08" x2="436.68" y2="1121.29" stroke="black" stroke-width="3"/>
<line x1="428.472" y1="1116.32" x2="428.472" y2="1109.49" stroke="#FF9F9F"/>
<line x1="416.677" y1="1116.32" x2="416.677" y2="1109.49" stroke="#FF9F9F"/>
<line x1="387.757" y1="1102.66" x2="387.757" y2="1121.29" stroke="black" stroke-width="2"/>
<line x1="377.204" y1="1102.66" x2="377.204" y2="1121.29" stroke="black" stroke-width="2"/>
<line x1="401.915" y1="1097.08" x2="401.915" y2="1121.29" stroke="black" stroke-width="3"/>
<line x1="393.707" y1="1116.32" x2="393.707" y2="1109.49" stroke="#FF9F9F"/>
<line x1="381.912" y1="1116.32" x2="381.912" y2="1109.49" stroke="#FF9F9F"/>
<line x1="352.993" y1="1102.66" x2="352.993" y2="1121.29" stroke="black" stroke-width="2"/>
<line x1="342.439" y1="1102.66" x2="342.439" y2="1121.29" stroke="black" stroke-width="2"/>
<line x1="367.15" y1="1097.08" x2="367.15" y2="1121.29" stroke="black" stroke-width="3"/>
<line x1="358.942" y1="1116.32" x2="358.942" y2="1109.49" stroke="#FF9F9F"/>
<line x1="347.147" y1="1116.32" x2="347.147" y2="1109.49" stroke="#FF9F9F"/>
<line x1="701.885" y1="1094.49" x2="678.052" y2="1094.49" stroke="black" stroke-width="3"/>
<line x1="701.885" y1="1084.45" x2="687.586" y2="1084.45" stroke="black" stroke-width="2"/>
<line x1="701.885" y1="1076.11" x2="687.586" y2="1076.11" stroke="black" stroke-width="2"/>
<line x1="699.502" y1="1088.72" x2="694.736" y2="1088.72" stroke="#FF0000"/>
<line x1="699.502" y1="1079.19" x2="694.736" y2="1079.19" stroke="#FF0000"/>
<line x1="701.885" y1="1068.27" x2="678.052" y2="1068.27" stroke="black" stroke-width="3"/>
<line x1="701.885" y1="1059.43" x2="687.586" y2="1059.43" stroke="black" stroke-width="2"/>
<line x1="701.885" y1="1051.09" x2="687.586" y2="1051.09" stroke="black" stroke-width="2"/>
<line x1="699.502" y1="1063.7" x2="694.736" y2="1063.7" stroke="#FF0000"/>
<line x1="699.502" y1="1054.16" x2="694.736" y2="1054.16" stroke="#FF0000"/>
<line x1="701.885" y1="1043.25" x2="678.052" y2="1043.25" stroke="black" stroke-width="3"/>
<line x1="701.885" y1="1033.21" x2="687.586" y2="1033.21" stroke="black" stroke-width="2"/>
<line x1="701.885" y1="1024.87" x2="687.586" y2="1024.87" stroke="black" stroke-width="2"/>
<line x1="699.502" y1="1037.48" x2="694.736" y2="1037.48" stroke="#FF0000"/>
<line x1="699.502" y1="1029.14" x2="694.736" y2="1029.14" stroke="#FF0000"/>
<line x1="701.885" y1="1018.22" x2="678.052" y2="1018.22" stroke="black" stroke-width="3"/>
<line x1="701.885" y1="1008.19" x2="687.586" y2="1008.19" stroke="black" stroke-width="2"/>
<line x1="701.885" y1="999.847" x2="687.586" y2="999.847" stroke="black" stroke-width="2"/>
<line x1="699.502" y1="1012.46" x2="694.736" y2="1012.46" stroke="#FF0000"/>
<line x1="699.502" y1="1002.92" x2="694.736" y2="1002.92" stroke="#FF0000"/>
<line x1="701.885" y1="992.005" x2="678.052" y2="992.005" stroke="black" stroke-width="3"/>
<line x1="701.885" y1="983.164" x2="687.586" y2="983.164" stroke="black" stroke-width="2"/>
<line x1="701.885" y1="974.822" x2="687.586" y2="974.822" stroke="black" stroke-width="2"/>
<line x1="699.502" y1="987.43" x2="694.736" y2="987.43" stroke="#FF0000"/>
<line x1="699.502" y1="977.897" x2="694.736" y2="977.897" stroke="#FF0000"/>
<line x1="701.885" y1="966.98" x2="678.052" y2="966.98" stroke="black" stroke-width="3"/>
<line x1="701.885" y1="956.947" x2="687.586" y2="956.947" stroke="black" stroke-width="2"/>
<line x1="701.885" y1="948.605" x2="687.586" y2="948.605" stroke="black" stroke-width="2"/>
<line x1="699.502" y1="961.214" x2="694.736" y2="961.214" stroke="#FF0000"/>
<line x1="699.502" y1="952.872" x2="694.736" y2="952.872" stroke="#FF0000"/>
<line x1="701.885" y1="941.956" x2="678.052" y2="941.956" stroke="black" stroke-width="3"/>
<line x1="701.885" y1="931.922" x2="687.586" y2="931.922" stroke="black" stroke-width="2"/>
<line x1="701.885" y1="923.581" x2="687.586" y2="923.581" stroke="black" stroke-width="2"/>
<line x1="699.502" y1="936.189" x2="694.736" y2="936.189" stroke="#FF0000"/>
<line x1="699.502" y1="926.656" x2="694.736" y2="926.656" stroke="#FF0000"/>
<line x1="701.885" y1="915.739" x2="678.052" y2="915.739" stroke="black" stroke-width="3"/>
<line x1="701.885" y1="905.706" x2="687.586" y2="905.706" stroke="black" stroke-width="2"/>
<line x1="701.885" y1="898.556" x2="687.586" y2="898.556" stroke="black" stroke-width="2"/>
<line x1="699.502" y1="911.164" x2="694.736" y2="911.164" stroke="#FF0000"/>
<line x1="699.502" y1="901.631" x2="694.736" y2="901.631" stroke="#FF0000"/>
<line x1="701.885" y1="890.714" x2="678.052" y2="890.714" stroke="black" stroke-width="3"/>
<line x1="701.885" y1="880.682" x2="687.586" y2="880.682" stroke="black" stroke-width="2"/>
<line x1="701.885" y1="872.34" x2="687.586" y2="872.34" stroke="black" stroke-width="2"/>
<line x1="699.502" y1="884.948" x2="694.736" y2="884.948" stroke="#FF0000"/>
<line x1="699.502" y1="875.415" x2="694.736" y2="875.415" stroke="#FF0000"/>
<line x1="701.885" y1="865.69" x2="678.052" y2="865.69" stroke="black" stroke-width="3"/>
<line x1="701.885" y1="855.657" x2="687.586" y2="855.657" stroke="black" stroke-width="2"/>
<line x1="701.885" y1="847.315" x2="687.586" y2="847.315" stroke="black" stroke-width="2"/>
<line x1="699.502" y1="859.923" x2="694.736" y2="859.923" stroke="#FF0000"/>
<line x1="699.502" y1="850.39" x2="694.736" y2="850.39" stroke="#FF0000"/>
<line x1="701.885" y1="814.449" x2="678.052" y2="814.449" stroke="black" stroke-width="3"/>
<line x1="701.885" y1="804.416" x2="687.586" y2="804.416" stroke="black" stroke-width="2"/>
<line x1="701.885" y1="796.074" x2="687.586" y2="796.074" stroke="black" stroke-width="2"/>
<line x1="699.502" y1="808.682" x2="694.736" y2="808.682" stroke="#FF0000"/>
<line x1="699.502" y1="799.148" x2="694.736" y2="799.148" stroke="#FF0000"/>
<line x1="701.885" y1="839.474" x2="678.052" y2="839.474" stroke="black" stroke-width="3"/>
<line x1="701.885" y1="829.44" x2="687.586" y2="829.44" stroke="black" stroke-width="2"/>
<line x1="701.885" y1="822.29" x2="687.586" y2="822.29" stroke="black" stroke-width="2"/>
<line x1="699.502" y1="834.898" x2="694.736" y2="834.898" stroke="#FF0000"/>
<line x1="699.502" y1="825.365" x2="694.736" y2="825.365" stroke="#FF0000"/>
<path d="M569.746 1082.17L664.944 1078.69V1089.41H566.037L569.746 1082.17Z" fill="black"/>
</svg>
