<svg width="829" height="817" viewBox="0 0 829 817" fill="none" xmlns="http://www.w3.org/2000/svg">
<path d="M823.649 713.544L812.522 698.317L808.375 713.544L800.74 731.604L788.332 749.189L776.879 758.695L763.565 764.798L774.691 776.481L784.705 790.111L798.354 816.202L818.874 780.557L826.509 754.417L826.987 733.506L823.649 713.544Z" fill="black"/>
<ellipse cx="56.2727" cy="29.2073" rx="56.2727" ry="29.2073" transform="matrix(0.412043 0.911164 0.911172 -0.412027 692.327 672.994)" fill="#FBDAB8"/>
<ellipse cx="56.2727" cy="29.2073" rx="56.2727" ry="29.2073" transform="matrix(0.412043 0.911164 0.911172 -0.412027 692.327 672.994)" fill="#FBDAB8"/>
<ellipse cx="56.2727" cy="29.2073" rx="56.2727" ry="29.2073" transform="matrix(0.412043 0.911164 0.911172 -0.412027 692.327 672.994)" fill="#FBDAB8"/>
<ellipse cx="56.2727" cy="29.2073" rx="56.2727" ry="29.2073" transform="matrix(0.412043 0.911164 0.911172 -0.412027 692.327 672.994)" fill="black"/>
<ellipse cx="22.4295" cy="31.422" rx="22.4295" ry="31.422" transform="matrix(-0.841466 -0.540311 -0.540329 0.841454 816.207 708.728)" fill="#FBDAB8"/>
<ellipse cx="22.4295" cy="31.422" rx="22.4295" ry="31.422" transform="matrix(-0.841466 -0.540311 -0.540329 0.841454 816.207 708.728)" fill="#FBDAB8"/>
<ellipse cx="22.4295" cy="31.422" rx="22.4295" ry="31.422" transform="matrix(-0.841466 -0.540311 -0.540329 0.841454 816.207 708.728)" fill="#FBDAB8"/>
<ellipse cx="22.4295" cy="31.422" rx="22.4295" ry="31.422" transform="matrix(-0.841466 -0.540311 -0.540329 0.841454 816.207 708.728)" fill="black"/>
<ellipse cx="9.87811" cy="19.6071" rx="9.87811" ry="19.6071" transform="matrix(-0.626224 -0.779643 -0.779657 0.626207 798.057 746.439)" fill="#FBDAB8"/>
<ellipse cx="9.87811" cy="19.6071" rx="9.87811" ry="19.6071" transform="matrix(-0.626224 -0.779643 -0.779657 0.626207 798.057 746.439)" fill="#FBDAB8"/>
<ellipse cx="9.87811" cy="19.6071" rx="9.87811" ry="19.6071" transform="matrix(-0.626224 -0.779643 -0.779657 0.626207 798.057 746.439)" fill="#FBDAB8"/>
<ellipse cx="9.87811" cy="19.6071" rx="9.87811" ry="19.6071" transform="matrix(-0.626224 -0.779643 -0.779657 0.626207 798.057 746.439)" fill="black"/>
<rect width="20.9979" height="551.301" transform="matrix(-0.878118 0.478444 0.478461 0.878109 525.706 254.356)" fill="#5F3900"/>
<rect width="12.4572" height="547.945" transform="matrix(-0.878118 0.478444 0.478461 0.878109 521.926 256.284)" fill="#AB6700"/>
<rect width="20.9979" height="566.632" transform="matrix(-0.437141 0.899393 0.899402 0.437123 9.17871 0.0793457)" fill="#5F3900"/>
<rect width="12.4572" height="558.248" transform="matrix(-0.437141 0.899393 0.899402 0.437123 14.8557 7.55493)" fill="#AB6700"/>
<path d="M718.224 651.307L708.165 656.347L710.435 657.983L719.807 654.575L718.224 651.307Z" fill="black"/>
<ellipse cx="19.7497" cy="15.0209" rx="19.7497" ry="15.0209" transform="matrix(-1 0 0 1 722.396 627.384)" fill="black"/>
<ellipse cx="18.6114" cy="13.8393" rx="18.6114" ry="13.8393" transform="matrix(-1 0 0 1 721.044 628.179)" fill="black"/>
<path d="M824.123 714.078L812.669 697.853" stroke="black" stroke-width="2"/>
<path d="M763.039 764.663C780.794 781.307 789.784 796.35 798.335 816.537" stroke="black" stroke-width="2"/>
<ellipse cx="25.168" cy="37.6472" rx="25.168" ry="37.6472" transform="matrix(-0.899683 0.436544 0.436561 0.899675 795.452 647.268)" fill="black"/>
<ellipse cx="25.168" cy="37.6472" rx="25.168" ry="37.6472" transform="matrix(-0.899683 0.436544 0.436561 0.899675 795.452 647.268)" fill="black"/>
<ellipse cx="25.168" cy="37.6472" rx="25.168" ry="37.6472" transform="matrix(-0.899683 0.436544 0.436561 0.899675 795.452 647.268)" fill="black"/>
<ellipse cx="25.168" cy="37.6472" rx="25.168" ry="37.6472" transform="matrix(-0.899683 0.436544 0.436561 0.899675 795.452 647.268)" fill="black"/>
<ellipse cx="9.25085" cy="16.2419" rx="9.25085" ry="16.2419" transform="matrix(-0.841466 -0.540311 -0.540329 0.841454 816.416 705.828)" fill="#FBDAB8"/>
<ellipse cx="9.25085" cy="16.2419" rx="9.25085" ry="16.2419" transform="matrix(-0.841466 -0.540311 -0.540329 0.841454 816.416 705.828)" fill="#FBDAB8"/>
<ellipse cx="9.25085" cy="16.2419" rx="9.25085" ry="16.2419" transform="matrix(-0.841466 -0.540311 -0.540329 0.841454 816.416 705.828)" fill="#FBDAB8"/>
<ellipse cx="9.25085" cy="16.2419" rx="9.25085" ry="16.2419" transform="matrix(-0.841466 -0.540311 -0.540329 0.841454 816.416 705.828)" fill="black"/>
<path d="M757.621 700.565C762.685 709.059 768.578 712.596 772.466 710.278C776.354 707.96 776.766 700.665 771.702 692.171C766.638 683.676 759.38 678.669 755.492 680.987C751.604 683.305 752.557 692.07 757.621 700.565Z" fill="#FBDAB8"/>
<path d="M757.621 700.565C762.685 709.059 768.578 712.596 772.466 710.278C776.354 707.96 776.766 700.665 771.702 692.171C766.638 683.676 759.38 678.669 755.492 680.987C751.604 683.305 752.557 692.07 757.621 700.565Z" fill="#FBDAB8"/>
<path d="M757.621 700.565C762.685 709.059 768.578 712.596 772.466 710.278C776.354 707.96 776.766 700.665 771.702 692.171C766.638 683.676 759.38 678.669 755.492 680.987C751.604 683.305 752.557 692.07 757.621 700.565Z" fill="#FBDAB8"/>
<path d="M757.621 700.565C762.685 709.059 768.578 712.596 772.466 710.278C776.354 707.96 776.766 700.665 771.702 692.171C766.638 683.676 759.38 678.669 755.492 680.987C751.604 683.305 752.557 692.07 757.621 700.565Z" fill="black"/>
<path d="M759.671 724.464C768.93 720.989 775.239 714.514 773.023 708.609C770.806 702.704 761.542 698.714 752.283 702.189C743.024 705.664 737.315 713.268 739.532 719.173C741.748 725.078 750.412 727.94 759.671 724.464Z" fill="#FBDAB8"/>
<path d="M759.671 724.464C768.93 720.989 775.239 714.514 773.023 708.609C770.806 702.704 761.542 698.714 752.283 702.189C743.024 705.664 737.315 713.268 739.532 719.173C741.748 725.078 750.412 727.94 759.671 724.464Z" fill="#FBDAB8"/>
<path d="M759.671 724.464C768.93 720.989 775.239 714.514 773.023 708.609C770.806 702.704 761.542 698.714 752.283 702.189C743.024 705.664 737.315 713.268 739.532 719.173C741.748 725.078 750.412 727.94 759.671 724.464Z" fill="#FBDAB8"/>
<path d="M759.671 724.464C768.93 720.989 775.239 714.514 773.023 708.609C770.806 702.704 761.542 698.714 752.283 702.189C743.024 705.664 737.315 713.268 739.532 719.173C741.748 725.078 750.412 727.94 759.671 724.464Z" fill="black"/>
<ellipse cx="11.4202" cy="19.3328" rx="11.4202" ry="19.3328" transform="matrix(-0.924032 0.382315 0.38233 0.924026 749.368 667.427)" fill="#FBDAB8"/>
<ellipse cx="11.4202" cy="19.3328" rx="11.4202" ry="19.3328" transform="matrix(-0.924032 0.382315 0.38233 0.924026 749.368 667.427)" fill="#FBDAB8"/>
<ellipse cx="11.4202" cy="19.3328" rx="11.4202" ry="19.3328" transform="matrix(-0.924032 0.382315 0.38233 0.924026 749.368 667.427)" fill="#FBDAB8"/>
<ellipse cx="11.4202" cy="19.3328" rx="11.4202" ry="19.3328" transform="matrix(-0.924032 0.382315 0.38233 0.924026 749.368 667.427)" fill="black"/>
<path d="M760.228 688.575C775.016 697.656 801.867 695.799 808.349 685.243C814.832 674.687 798.491 659.43 783.703 650.349C768.915 641.267 751.671 642.463 745.189 653.018C738.706 663.574 745.439 679.493 760.228 688.575Z" fill="black"/>
<path d="M760.228 688.575C775.016 697.656 801.867 695.799 808.349 685.243C814.832 674.687 798.491 659.43 783.703 650.349C768.915 641.267 751.671 642.463 745.189 653.018C738.706 663.574 745.439 679.493 760.228 688.575Z" fill="black"/>
<path d="M760.228 688.575C775.016 697.656 801.867 695.799 808.349 685.243C814.832 674.687 798.491 659.43 783.703 650.349C768.915 641.267 751.671 642.463 745.189 653.018C738.706 663.574 745.439 679.493 760.228 688.575Z" fill="black"/>
<path d="M760.228 688.575C775.016 697.656 801.867 695.799 808.349 685.243C814.832 674.687 798.491 659.43 783.703 650.349C768.915 641.267 751.671 642.463 745.189 653.018C738.706 663.574 745.439 679.493 760.228 688.575Z" fill="black"/>
<path d="M737.974 685.521C755.098 677.778 746.231 661.613 742.702 653.811C739.174 646.008 734.792 646.933 717.667 654.676C700.543 662.42 688.548 671.599 692.076 679.401C695.605 687.204 720.849 693.265 737.974 685.521Z" fill="black"/>
<path d="M737.974 685.521C755.098 677.778 746.231 661.613 742.702 653.811C739.174 646.008 734.792 646.933 717.667 654.676C700.543 662.42 688.548 671.599 692.076 679.401C695.605 687.204 720.849 693.265 737.974 685.521Z" fill="black"/>
<path d="M737.974 685.521C755.098 677.778 746.231 661.613 742.702 653.811C739.174 646.008 734.792 646.933 717.667 654.676C700.543 662.42 688.548 671.599 692.076 679.401C695.605 687.204 720.849 693.265 737.974 685.521Z" fill="black"/>
<path d="M737.974 685.521C755.098 677.778 746.231 661.613 742.702 653.811C739.174 646.008 734.792 646.933 717.667 654.676C700.543 662.42 688.548 671.599 692.076 679.401C695.605 687.204 720.849 693.265 737.974 685.521Z" fill="black"/>
<path d="M732.479 638.622C735.822 649.343 743.744 656.41 750.174 654.405C756.603 652.4 760.232 643.391 756.89 632.67C753.547 621.949 743.29 613.14 736.861 615.145C730.431 617.15 729.136 627.901 732.479 638.622Z" fill="black"/>
<path d="M732.479 638.622C735.822 649.343 743.744 656.41 750.174 654.405C756.603 652.4 760.232 643.391 756.89 632.67C753.547 621.949 743.29 613.14 736.861 615.145C730.431 617.15 729.136 627.901 732.479 638.622Z" fill="black"/>
<path d="M732.479 638.622C735.822 649.343 743.744 656.41 750.174 654.405C756.603 652.4 760.232 643.391 756.89 632.67C753.547 621.949 743.29 613.14 736.861 615.145C730.431 617.15 729.136 627.901 732.479 638.622Z" fill="black"/>
<path d="M732.479 638.622C735.822 649.343 743.744 656.41 750.174 654.405C756.603 652.4 760.232 643.391 756.89 632.67C753.547 621.949 743.29 613.14 736.861 615.145C730.431 617.15 729.136 627.901 732.479 638.622Z" fill="black"/>
<path d="M733.689 646.941C734.535 649.654 737.384 651.18 740.051 650.348C742.719 649.517 744.195 646.643 743.349 643.929C742.503 641.215 734.952 633.825 732.285 634.656C729.618 635.488 732.843 644.227 733.689 646.941Z" fill="#FBDAB8"/>
<path d="M733.689 646.941C734.535 649.654 737.384 651.18 740.051 650.348C742.719 649.517 744.195 646.643 743.349 643.929C742.503 641.215 734.952 633.825 732.285 634.656C729.618 635.488 732.843 644.227 733.689 646.941Z" fill="#FBDAB8"/>
<path d="M733.689 646.941C734.535 649.654 737.384 651.18 740.051 650.348C742.719 649.517 744.195 646.643 743.349 643.929C742.503 641.215 734.952 633.825 732.285 634.656C729.618 635.488 732.843 644.227 733.689 646.941Z" fill="#FBDAB8"/>
<path d="M733.689 646.941C734.535 649.654 737.384 651.18 740.051 650.348C742.719 649.517 744.195 646.643 743.349 643.929C742.503 641.215 734.952 633.825 732.285 634.656C729.618 635.488 732.843 644.227 733.689 646.941Z" fill="black"/>
<ellipse cx="12.1947" cy="20.334" rx="12.1947" ry="20.334" transform="matrix(-0.986782 0.162055 0.162062 0.986781 759.984 623.407)" fill="black"/>
<ellipse cx="12.1947" cy="20.334" rx="12.1947" ry="20.334" transform="matrix(-0.986782 0.162055 0.162062 0.986781 759.984 623.407)" fill="black"/>
<ellipse cx="12.1947" cy="20.334" rx="12.1947" ry="20.334" transform="matrix(-0.986782 0.162055 0.162062 0.986781 759.984 623.407)" fill="black"/>
<ellipse cx="12.1947" cy="20.334" rx="12.1947" ry="20.334" transform="matrix(-0.986782 0.162055 0.162062 0.986781 759.984 623.407)" fill="black"/>
<ellipse cx="12.1945" cy="20.3343" rx="12.1945" ry="20.3343" transform="matrix(-0.592166 0.805816 0.80583 0.592148 755.755 631.997)" fill="black"/>
<ellipse cx="12.1945" cy="20.3343" rx="12.1945" ry="20.3343" transform="matrix(-0.592166 0.805816 0.80583 0.592148 755.755 631.997)" fill="black"/>
<ellipse cx="12.1945" cy="20.3343" rx="12.1945" ry="20.3343" transform="matrix(-0.592166 0.805816 0.80583 0.592148 755.755 631.997)" fill="black"/>
<ellipse cx="12.1945" cy="20.3343" rx="12.1945" ry="20.3343" transform="matrix(-0.592166 0.805816 0.80583 0.592148 755.755 631.997)" fill="black"/>
<path d="M694.023 689.137C699.944 698.68 711.356 705.166 717.079 701.615C722.802 698.065 722.642 687.451 716.721 677.908C710.8 668.365 701.415 664.168 695.692 667.719C689.969 671.269 688.102 679.595 694.023 689.137Z" fill="#FBDAB8"/>
<path d="M694.023 689.137C699.944 698.68 711.356 705.166 717.079 701.615C722.802 698.065 722.642 687.451 716.721 677.908C710.8 668.365 701.415 664.168 695.692 667.719C689.969 671.269 688.102 679.595 694.023 689.137Z" fill="#FBDAB8"/>
<path d="M694.023 689.137C699.944 698.68 711.356 705.166 717.079 701.615C722.802 698.065 722.642 687.451 716.721 677.908C710.8 668.365 701.415 664.168 695.692 667.719C689.969 671.269 688.102 679.595 694.023 689.137Z" fill="#FBDAB8"/>
<path d="M694.023 689.137C699.944 698.68 711.356 705.166 717.079 701.615C722.802 698.065 722.642 687.451 716.721 677.908C710.8 668.365 701.415 664.168 695.692 667.719C689.969 671.269 688.102 679.595 694.023 689.137Z" fill="black"/>
<path d="M700.143 718.623C704.979 728.759 715.129 735.073 721.208 732.173C727.287 729.273 728.294 718.705 723.458 708.57C718.623 698.434 709.56 691.801 703.481 694.701C697.402 697.601 695.307 708.487 700.143 718.623Z" fill="#FBDAB8"/>
<path d="M700.143 718.623C704.979 728.759 715.129 735.073 721.208 732.173C727.287 729.273 728.294 718.705 723.458 708.57C718.623 698.434 709.56 691.801 703.481 694.701C697.402 697.601 695.307 708.487 700.143 718.623Z" fill="#FBDAB8"/>
<path d="M700.143 718.623C704.979 728.759 715.129 735.073 721.208 732.173C727.287 729.273 728.294 718.705 723.458 708.57C718.623 698.434 709.56 691.801 703.481 694.701C697.402 697.601 695.307 708.487 700.143 718.623Z" fill="#FBDAB8"/>
<path d="M700.143 718.623C704.979 728.759 715.129 735.073 721.208 732.173C727.287 729.273 728.294 718.705 723.458 708.57C718.623 698.434 709.56 691.801 703.481 694.701C697.402 697.601 695.307 708.487 700.143 718.623Z" fill="black"/>
<ellipse cx="12.1946" cy="20.3341" rx="12.1946" ry="20.3341" transform="matrix(-0.934396 0.356237 0.356251 0.93439 718.681 694.99)" fill="#FBDAB8"/>
<ellipse cx="12.1946" cy="20.3341" rx="12.1946" ry="20.3341" transform="matrix(-0.934396 0.356237 0.356251 0.93439 718.681 694.99)" fill="#FBDAB8"/>
<ellipse cx="12.1946" cy="20.3341" rx="12.1946" ry="20.3341" transform="matrix(-0.934396 0.356237 0.356251 0.93439 718.681 694.99)" fill="#FBDAB8"/>
<ellipse cx="12.1946" cy="20.3341" rx="12.1946" ry="20.3341" transform="matrix(-0.934396 0.356237 0.356251 0.93439 718.681 694.99)" fill="black"/>
<path d="M714.329 746.996C719.165 757.131 729.446 765.614 735.525 762.714C741.604 759.814 742.611 749.247 737.775 739.111C732.94 728.975 724.092 723.11 718.013 726.01C711.935 728.91 709.494 736.86 714.329 746.996Z" fill="#FBDAB8"/>
<path d="M714.329 746.996C719.165 757.131 729.446 765.614 735.525 762.714C741.604 759.814 742.611 749.247 737.775 739.111C732.94 728.975 724.092 723.11 718.013 726.01C711.935 728.91 709.494 736.86 714.329 746.996Z" fill="#FBDAB8"/>
<path d="M714.329 746.996C719.165 757.131 729.446 765.614 735.525 762.714C741.604 759.814 742.611 749.247 737.775 739.111C732.94 728.975 724.092 723.11 718.013 726.01C711.935 728.91 709.494 736.86 714.329 746.996Z" fill="#FBDAB8"/>
<path d="M714.329 746.996C719.165 757.131 729.446 765.614 735.525 762.714C741.604 759.814 742.611 749.247 737.775 739.111C732.94 728.975 724.092 723.11 718.013 726.01C711.935 728.91 709.494 736.86 714.329 746.996Z" fill="black"/>
<ellipse cx="10.0351" cy="16.2385" rx="10.0351" ry="16.2385" transform="matrix(0.0481609 0.99884 0.99884 -0.0481586 722.67 746.184)" fill="#FBDAB8"/>
<ellipse cx="10.0351" cy="16.2385" rx="10.0351" ry="16.2385" transform="matrix(0.0481609 0.99884 0.99884 -0.0481586 722.67 746.184)" fill="#FBDAB8"/>
<ellipse cx="10.0351" cy="16.2385" rx="10.0351" ry="16.2385" transform="matrix(0.0481609 0.99884 0.99884 -0.0481586 722.67 746.184)" fill="#FBDAB8"/>
<ellipse cx="10.0351" cy="16.2385" rx="10.0351" ry="16.2385" transform="matrix(0.0481609 0.99884 0.99884 -0.0481586 722.67 746.184)" fill="black"/>
<ellipse cx="10.0351" cy="16.2385" rx="10.0351" ry="16.2385" transform="matrix(0.0481609 0.99884 0.99884 -0.0481586 731.26 746.184)" fill="#FBDAB8"/>
<ellipse cx="10.0351" cy="16.2385" rx="10.0351" ry="16.2385" transform="matrix(0.0481609 0.99884 0.99884 -0.0481586 731.26 746.184)" fill="#FBDAB8"/>
<ellipse cx="10.0351" cy="16.2385" rx="10.0351" ry="16.2385" transform="matrix(0.0481609 0.99884 0.99884 -0.0481586 731.26 746.184)" fill="#FBDAB8"/>
<ellipse cx="10.0351" cy="16.2385" rx="10.0351" ry="16.2385" transform="matrix(0.0481609 0.99884 0.99884 -0.0481586 731.26 746.184)" fill="black"/>
<path d="M763.309 640.297C763.293 640.294 763.295 640.298 763.316 640.309C763.314 640.305 763.312 640.301 763.309 640.297Z" fill="black"/>
<path d="M763.309 640.297C763.293 640.294 763.295 640.298 763.316 640.309C763.314 640.305 763.312 640.301 763.309 640.297Z" fill="black"/>
<path d="M763.309 640.297C763.293 640.294 763.295 640.298 763.316 640.309C763.314 640.305 763.312 640.301 763.309 640.297Z" fill="black"/>
<path d="M763.309 640.297C763.293 640.294 763.295 640.298 763.316 640.309C763.314 640.305 763.312 640.301 763.309 640.297Z" fill="black"/>
<path d="M813.073 697.852C819.836 660.931 762.133 639.676 763.316 640.309C742.544 601.47 725.637 611.54 731.917 640.309L733.849 648.464" stroke="black" stroke-width="2"/>
<path d="M763.038 764.663H730.548C730.548 764.663 670.346 725.628 763.993 699.761M740.104 731.742C743.386 733.855 744.844 735.271 743.448 740.207" stroke="black" stroke-width="2"/>
<path d="M739.178 732.212C771.577 721.838 783.822 712.646 763.875 699.761" stroke="black" stroke-width="2"/>
<path d="M748.723 675.901C706.772 686.107 678.947 696.803 711.298 735.075" stroke="black" stroke-width="2"/>
<path d="M773.538 713.124C775.168 716.517 776.7 718.059 781.173 719.805" stroke="black" stroke-width="2"/>
<path d="M752.715 666.979C754.743 668.08 755.865 668.436 758.206 667.488C756.462 671.719 756.846 674.171 759.437 677.187" stroke="black" stroke-width="2"/>
<path d="M761.13 641.541C765.375 643.835 766.802 644.737 766.857 645.359" stroke="black" stroke-width="2"/>
<path d="M813.078 697.482C813.078 697.482 800.853 753.763 763.039 764.663" stroke="black" stroke-width="2"/>
<path d="M697.362 656.314L711.27 657.426" stroke="black" stroke-width="2"/>
<path d="M733.452 648.222C698.026 662.26 678.062 671.298 700.143 696.926" stroke="black" stroke-width="2"/>
<path d="M751.604 669.109L748.92 674.472L747.987 676.064L755.776 676.62L751.604 669.109Z" fill="#A56300"/>
<path d="M747.764 675.9C758.673 658.053 754.063 651.422 733.452 648.222" stroke="black" stroke-width="2"/>
<path d="M763.744 699.761C777.019 683.396 770.973 678.027 747.768 675.901" stroke="black" stroke-width="2"/>
<path d="M823.927 713.894C831.103 749.933 827.362 771.059 798.354 816.202" stroke="black" stroke-width="2"/>
</svg>
