<svg width="565" height="749" viewBox="0 0 565 749" fill="none" xmlns="http://www.w3.org/2000/svg">
<path d="M561.209 166.791C561.209 166.791 469.766 187.622 480.699 296.723" stroke="white" stroke-width="5"/>
<path d="M10.5611 368.331C10.5611 555.774 101.03 730.127 257.065 730.127C381.404 732.169 448.987 570.793 486.127 380.96C486.127 193.517 413.1 51.3354 257.065 51.3354C101.03 51.3354 10.5611 180.888 10.5611 368.331Z" fill="#FBDAB8"/>
<path d="M0.62084 382.458C0.62084 571.991 93.0201 748.288 252.383 748.288C379.374 750.353 448.399 587.177 486.331 395.228C486.331 205.694 411.746 61.928 252.383 61.928C93.0201 61.928 0.62084 192.925 0.62084 382.458Z" fill="black"/>
<ellipse cx="43.9464" cy="67.2004" rx="43.9464" ry="67.2004" transform="matrix(-1 0 0 1 166.063 302.911)" fill="white"/>
<path d="M264.043 370.112C264.043 407.225 283.718 437.312 307.989 437.312C332.26 437.312 351.936 407.225 351.936 370.112C351.936 332.998 332.26 302.911 307.989 302.911C283.718 302.911 264.043 332.998 264.043 370.112Z" fill="white"/>
<path d="M214.32 363.072C154.395 482.181 100.347 577.066 214.32 537.521" stroke="black" stroke-width="6"/>
<path d="M286.879 616.963C286.879 616.963 220.324 701.59 125.859 625.426" stroke="black" stroke-width="6"/>
<path d="M231.88 488.091L307.421 574.241" stroke="black"/>
<path d="M147.725 512.452L102.91 586.838" stroke="black"/>
<path d="M55.6193 288.603C55.6193 288.603 121.22 263.181 165.948 288.603" stroke="white" stroke-width="20"/>
<path d="M258.385 294.252C258.385 294.252 323.986 268.83 368.714 294.252" stroke="white" stroke-width="20"/>
<ellipse cx="243.807" cy="115.596" rx="37.1075" ry="57.1983" fill="#D9D9D9"/>
<ellipse cx="243.476" cy="108.181" rx="50.6914" ry="64.6129" fill="white"/>
<path d="M59.9266 162.908C59.9266 162.908 185.496 2.96389 202.061 142.076" stroke="white" stroke-width="5"/>
<path d="M283.896 144.547C342.54 109.24 411.122 117.008 386.273 217.634" stroke="white" stroke-width="5"/>
<path d="M412.447 203.864L465.894 187.623L490.307 356.545L441.272 372.282L440.609 362.748L431.995 276.245L428.351 246.94L428.682 244.821L412.447 203.864Z" fill="white"/>
<path d="M430.67 252.589C424.375 203.865 385.28 218.694 385.28 218.694" stroke="white" stroke-width="5"/>
<path d="M60.9207 161.142C60.9207 161.142 145.075 -198.994 562.534 167.144" stroke="white" stroke-width="5"/>
<path d="M80.7997 106.768L102.335 73.2262L127.184 45.3332L157.665 23.4425L189.472 10.0256L223.597 2.96411H257.723L295.162 7.20102L366.726 32.2694L427.357 64.7524L514.162 126.894L556.57 163.261L560.877 166.791L544.643 172.441L527.414 181.267L508.861 197.862L492.958 219.047L483.681 244.115L478.38 276.245L467.777 219.047L417.086 207.748L421.724 225.049L409.134 217.281H387.93L390.541 196.375L392.237 181.621L389.255 162.201L384.617 146.313L374.015 134.308L366.726 130.425L352.148 125.481H331.275L284.891 141.723L194.773 106.768L188.871 98.1831L170.918 84.8777H157.665L139.636 90.1163L98.0281 121.245L62.0277 159.379L80.7997 106.768Z" fill="white"/>
<path d="M513.168 357.805C494.559 384.992 509.91 381.108 480.423 405.118C464.19 405.118 457.838 357.67 457.838 334.855C457.838 312.041 474.075 294.252 490.307 294.252C524.966 294.252 531.777 330.619 513.168 357.805Z" fill="black"/>
<path d="M46.3425 381.938L162.415 391.358L162.882 451.809L51.0508 441.389L46.3425 381.938Z" fill="#D9D9D9"/>
<path d="M203.718 393.513L319.79 402.933L320.257 463.384L208.426 452.964L203.718 393.513Z" fill="#D9D9D9"/>
<path d="M217.302 428.255C217.302 422.158 213.974 416.305 208.039 411.965C202.103 407.625 194.038 405.146 185.589 405.065C177.14 404.985 168.987 407.308 162.895 411.534C156.802 415.759 153.261 421.546 153.038 427.642L162.536 427.823C162.693 423.53 165.188 419.454 169.479 416.478C173.77 413.502 179.512 411.865 185.463 411.922C191.415 411.978 197.095 413.724 201.276 416.781C205.456 419.838 207.8 423.96 207.8 428.255H217.302Z" fill="#D9D9D9"/>
</svg>
