<svg width="564" height="749" viewBox="0 0 564 749" fill="none" xmlns="http://www.w3.org/2000/svg">
<path d="M560.741 167.029C560.741 167.029 469.298 187.86 480.231 296.961" stroke="white" stroke-width="5"/>
<path d="M10.0932 368.57C10.0932 556.013 100.563 730.366 256.597 730.366C380.936 732.407 448.519 571.031 485.659 381.198C485.659 193.755 412.632 51.574 256.597 51.574C100.563 51.574 10.0932 181.127 10.0932 368.57Z" fill="#FBDAB8"/>
<path d="M0.153127 382.697C0.153127 572.23 92.5524 748.527 251.915 748.527C378.907 750.591 447.931 587.416 485.863 395.466C485.863 205.933 411.278 62.1663 251.915 62.1663C92.5524 62.1663 0.153127 193.163 0.153127 382.697Z" fill="#FBDAB8"/>
<ellipse cx="43.9464" cy="67.2004" rx="43.9464" ry="67.2004" transform="matrix(-1 0 0 1 165.595 303.149)" fill="black"/>
<ellipse cx="43.9464" cy="67.2004" rx="43.9464" ry="67.2004" transform="matrix(-1 0 0 1 351.468 303.149)" fill="black"/>
<path d="M213.852 363.31C153.927 482.42 99.8793 577.304 213.852 537.759" stroke="black" stroke-width="6"/>
<path d="M286.411 617.202C286.411 617.202 219.856 701.829 125.391 625.664" stroke="black" stroke-width="6"/>
<path d="M231.412 488.33L306.953 574.479" stroke="black"/>
<path d="M147.257 512.691L102.442 587.076" stroke="black"/>
<path d="M55.1517 288.841C55.1517 288.841 120.752 263.419 165.48 288.841" stroke="white" stroke-width="20"/>
<path d="M257.917 294.49C257.917 294.49 323.518 269.068 368.246 294.49" stroke="white" stroke-width="20"/>
<ellipse cx="243.339" cy="115.834" rx="37.1075" ry="57.1983" fill="#D9D9D9"/>
<ellipse cx="243.008" cy="108.419" rx="50.6914" ry="64.6129" fill="white"/>
<path d="M59.4588 163.146C59.4588 163.146 185.028 3.20217 201.594 142.314" stroke="white" stroke-width="5"/>
<path d="M283.429 144.785C342.072 109.479 410.654 117.246 385.806 217.873" stroke="white" stroke-width="5"/>
<path d="M411.98 204.103L465.426 187.861L489.839 356.783L440.804 372.52L440.142 362.987L431.527 276.483L427.883 247.178L428.214 245.059L411.98 204.103Z" fill="white"/>
<path d="M430.202 252.827C423.907 204.103 384.812 218.932 384.812 218.932" stroke="white" stroke-width="5"/>
<path d="M60.4527 161.38C60.4527 161.38 144.607 -198.756 562.066 167.383" stroke="white" stroke-width="5"/>
<path d="M80.3316 107.006L101.867 73.4643L126.716 45.5713L157.197 23.6806L189.003 10.2637L223.129 3.20215H257.255L294.694 7.43906L366.258 32.5075L426.889 64.9904L513.694 127.132L556.102 163.499L560.409 167.029L544.175 172.679L526.946 181.505L508.393 198.1L492.49 219.285L483.213 244.353L477.912 276.483L467.309 219.285L416.618 207.986L421.256 225.287L408.666 217.519H387.462L390.073 196.614L391.769 181.859L388.787 162.439L384.149 146.551L373.547 134.546L366.258 130.663L351.68 125.719H330.807L284.423 141.961L194.305 107.006L188.403 98.4211L170.45 85.1158H157.197L139.168 90.3543L97.5601 121.483L61.5597 159.618L80.3316 107.006Z" fill="white"/>
<path d="M512.7 358.044C494.091 385.231 509.442 381.347 479.955 405.356C463.723 405.356 457.37 357.909 457.37 335.094C457.37 312.279 473.607 294.49 489.839 294.49C524.498 294.49 531.309 330.857 512.7 358.044Z" fill="#FBDAB8"/>
<path d="M45.8748 382.177L161.948 391.596L162.414 452.048L50.583 441.628L45.8748 382.177Z" fill="#D9D9D9"/>
<path d="M203.25 393.752L319.323 403.171L319.789 463.623L207.958 453.203L203.25 393.752Z" fill="#D9D9D9"/>
<path d="M216.834 428.494C216.834 422.396 213.506 416.544 207.571 412.203C201.636 407.863 193.571 405.384 185.122 405.304C176.673 405.223 168.519 407.547 162.427 411.772C156.335 415.998 152.794 421.785 152.57 427.88L162.068 428.062C162.226 423.768 164.72 419.692 169.011 416.716C173.302 413.74 179.045 412.103 184.996 412.16C190.947 412.217 196.628 413.963 200.808 417.02C204.989 420.077 207.332 424.199 207.332 428.494H216.834Z" fill="#D9D9D9"/>
</svg>
