<svg width="341" height="348" viewBox="0 0 341 348" fill="none" xmlns="http://www.w3.org/2000/svg">
<path d="M193.489 61.2596C210.102 80.4799 149.166 130.053 116.783 158.042C99.4896 167.76 55.2114 167.325 20.7112 158.042C-1.28894 116.682 42.3293 101.671 74.7114 73.6818C122.711 43.6818 177.211 14.1817 193.489 61.2596Z" fill="#B76301"/>
<path d="M29.7111 145.182L186.49 51.2559L327 224L29.7111 145.182Z" fill="black"/>
<ellipse cx="16.9469" cy="12.1036" rx="16.9469" ry="12.1036" transform="matrix(0.978302 0.207185 -0.185474 0.982649 154.201 72.1816)" fill="#AF3828"/>
<path d="M180.114 155.096C178.874 161.664 170.447 165.417 161.29 163.478C152.134 161.539 145.716 154.642 146.956 148.073C148.196 141.505 156.624 137.752 165.78 139.691C174.936 141.63 181.354 148.527 180.114 155.096Z" fill="#AF3828"/>
<path d="M252.219 162.498C250.979 169.066 242.551 172.819 233.395 170.88C224.238 168.941 217.821 162.044 219.061 155.476C220.3 148.907 228.728 145.154 237.885 147.093C247.041 149.032 253.459 155.929 252.219 162.498Z" fill="#AF3828"/>
<ellipse cx="16.9469" cy="12.1036" rx="16.9469" ry="12.1036" transform="matrix(0.978302 0.207185 -0.185474 0.982649 260.201 179.182)" fill="#AF3828"/>
<ellipse cx="16.9469" cy="12.1036" rx="16.9469" ry="12.1036" transform="matrix(0.978302 0.207185 -0.185474 0.982649 89.2008 121.182)" fill="#AF3828"/>
<ellipse cx="16.9469" cy="12.1036" rx="16.9469" ry="12.1036" transform="matrix(0.978302 0.207185 -0.185474 0.982649 127.201 103.182)" fill="#AF3828"/>
<ellipse cx="199.211" cy="142.182" rx="5.5" ry="5" fill="black"/>
<ellipse cx="232.211" cy="133.182" rx="5.5" ry="5" fill="black"/>
<ellipse cx="208.211" cy="173.182" rx="5.5" ry="5" fill="black"/>
<ellipse cx="139.211" cy="137.182" rx="5.5" ry="5" fill="black"/>
<ellipse cx="161.211" cy="166.182" rx="5.5" ry="5" fill="black"/>
<ellipse cx="190.211" cy="85.1816" rx="5.5" ry="5" fill="black"/>
<ellipse cx="215.211" cy="110.182" rx="5.5" ry="5" fill="black"/>
<ellipse cx="243.211" cy="152.182" rx="5.5" ry="5" fill="black"/>
<path d="M29.7107 160.181L29.7107 145.182L328.21 221.5L328.21 232.181L29.7107 160.181Z" fill="black"/>
<path d="M28.182 145L327.182 225" stroke="black" stroke-width="2"/>
<path d="M204.788 119.781C200.379 130.917 187.605 134.924 176.257 128.729C164.91 122.534 159.286 108.484 163.696 97.3467C168.105 86.2099 180.879 82.2037 192.227 88.3986C203.574 94.5936 209.198 108.644 204.788 119.781Z" fill="#F54A33"/>
<path d="M193.541 122.853C192.85 124.14 191.041 124.211 189.501 123.012C187.96 121.813 187.271 119.798 187.962 118.511C188.653 117.225 190.462 117.153 192.002 118.352C193.543 119.551 194.232 121.566 193.541 122.853Z" fill="black"/>
<path d="M193.541 122.853C192.85 124.14 191.041 124.211 189.501 123.012C187.96 121.813 187.271 119.798 187.962 118.511C188.653 117.225 190.462 117.153 192.002 118.352C193.543 119.551 194.232 121.566 193.541 122.853Z" fill="black"/>
<path d="M193.541 122.853C192.85 124.14 191.041 124.211 189.501 123.012C187.96 121.813 187.271 119.798 187.962 118.511C188.653 117.225 190.462 117.153 192.002 118.352C193.543 119.551 194.232 121.566 193.541 122.853Z" fill="black"/>
<path d="M193.541 122.853C192.85 124.14 191.041 124.211 189.501 123.012C187.96 121.813 187.271 119.798 187.962 118.511C188.653 117.225 190.462 117.153 192.002 118.352C193.543 119.551 194.232 121.566 193.541 122.853Z" fill="black"/>
<ellipse cx="4.39173" cy="2.13235" rx="4.39173" ry="2.13235" transform="matrix(0.0236158 0.999721 -0.979452 0.201678 180.888 118.182)" fill="black"/>
<ellipse cx="4.39173" cy="2.13235" rx="4.39173" ry="2.13235" transform="matrix(0.0236158 0.999721 -0.979452 0.201678 180.888 118.182)" fill="black"/>
<ellipse cx="4.39173" cy="2.13235" rx="4.39173" ry="2.13235" transform="matrix(0.0236158 0.999721 -0.979452 0.201678 180.888 118.182)" fill="black"/>
<ellipse cx="4.39173" cy="2.13235" rx="4.39173" ry="2.13235" transform="matrix(0.0236158 0.999721 -0.979452 0.201678 180.888 118.182)" fill="black"/>
<ellipse cx="3.4575" cy="2.68082" rx="3.4575" ry="2.68082" transform="matrix(-0.999893 0.0146533 0.0938056 -0.99559 174.625 111.52)" fill="black"/>
<ellipse cx="3.4575" cy="2.68082" rx="3.4575" ry="2.68082" transform="matrix(-0.999893 0.0146533 0.0938056 -0.99559 174.625 111.52)" fill="black"/>
<ellipse cx="3.4575" cy="2.68082" rx="3.4575" ry="2.68082" transform="matrix(-0.999893 0.0146533 0.0938056 -0.99559 174.625 111.52)" fill="black"/>
<ellipse cx="3.4575" cy="2.68082" rx="3.4575" ry="2.68082" transform="matrix(-0.999893 0.0146533 0.0938056 -0.99559 174.625 111.52)" fill="black"/>
<ellipse cx="3.84368" cy="2.4843" rx="3.84368" ry="2.4843" transform="matrix(-0.515299 -0.85701 0.691786 -0.722102 178.672 101.357)" fill="black"/>
<ellipse cx="3.84368" cy="2.4843" rx="3.84368" ry="2.4843" transform="matrix(-0.515299 -0.85701 0.691786 -0.722102 178.672 101.357)" fill="black"/>
<ellipse cx="3.84368" cy="2.4843" rx="3.84368" ry="2.4843" transform="matrix(-0.515299 -0.85701 0.691786 -0.722102 178.672 101.357)" fill="black"/>
<ellipse cx="3.84368" cy="2.4843" rx="3.84368" ry="2.4843" transform="matrix(-0.515299 -0.85701 0.691786 -0.722102 178.672 101.357)" fill="black"/>
<ellipse cx="4.42717" cy="2.1058" rx="4.42717" ry="2.1058" transform="matrix(0.0242627 -0.999706 0.991769 -0.128038 185.711 99.5728)" fill="black"/>
<ellipse cx="4.42717" cy="2.1058" rx="4.42717" ry="2.1058" transform="matrix(0.0242627 -0.999706 0.991769 -0.128038 185.711 99.5728)" fill="black"/>
<ellipse cx="4.42717" cy="2.1058" rx="4.42717" ry="2.1058" transform="matrix(0.0242627 -0.999706 0.991769 -0.128038 185.711 99.5728)" fill="black"/>
<ellipse cx="4.42717" cy="2.1058" rx="4.42717" ry="2.1058" transform="matrix(0.0242627 -0.999706 0.991769 -0.128038 185.711 99.5728)" fill="black"/>
<path d="M200.377 101.974C201.123 102.964 200.537 105.243 199.069 107.063C197.601 108.883 195.807 109.557 195.061 108.567C194.316 107.576 194.901 105.298 196.369 103.478C197.837 101.657 199.632 100.984 200.377 101.974Z" fill="black"/>
<path d="M200.377 101.974C201.123 102.964 200.537 105.243 199.069 107.063C197.601 108.883 195.807 109.557 195.061 108.567C194.316 107.576 194.901 105.298 196.369 103.478C197.837 101.657 199.632 100.984 200.377 101.974Z" fill="black"/>
<path d="M200.377 101.974C201.123 102.964 200.537 105.243 199.069 107.063C197.601 108.883 195.807 109.557 195.061 108.567C194.316 107.576 194.901 105.298 196.369 103.478C197.837 101.657 199.632 100.984 200.377 101.974Z" fill="black"/>
<path d="M200.377 101.974C201.123 102.964 200.537 105.243 199.069 107.063C197.601 108.883 195.807 109.557 195.061 108.567C194.316 107.576 194.901 105.298 196.369 103.478C197.837 101.657 199.632 100.984 200.377 101.974Z" fill="black"/>
<ellipse cx="7.56675" cy="1.75251" rx="7.56675" ry="1.75251" transform="matrix(0.757197 0.653187 -0.501788 0.864991 168.47 95.1816)" fill="#FBE3E3"/>
<ellipse cx="8.44139" cy="1.60423" rx="8.44139" ry="1.60423" transform="matrix(0.787207 -0.616688 0.379439 0.925217 168.711 120.593)" fill="#FFF3F3"/>
<ellipse cx="9.34668" cy="1.41458" rx="9.34668" ry="1.41458" transform="matrix(-0.00547563 -0.999985 0.984702 -0.174244 183.813 130.368)" fill="#FFFDFD"/>
<ellipse cx="9.22124" cy="1.44355" rx="9.22124" ry="1.44355" transform="matrix(0.0763828 0.997079 -0.960568 0.278046 184.484 88.1816)" fill="#FFF2F2"/>
<ellipse cx="9.31769" cy="1.42137" rx="9.31769" ry="1.42137" transform="matrix(-0.49016 0.871632 -0.77032 -0.637657 198.035 91.9941)" fill="#FCEBEB"/>
<ellipse cx="7.4053" cy="1.77686" rx="7.4053" ry="1.77686" transform="matrix(-0.973076 -0.230483 0.362815 -0.931861 201.731 116.995)" fill="#FFF8F8"/>
<path d="M193.489 56.2596C210.102 75.4799 149.166 125.053 116.783 153.042C99.4896 162.76 55.2114 162.325 20.7112 153.042C-1.28894 111.682 42.3293 96.6714 74.7114 68.6818C122.711 38.6818 177.211 9.18167 193.489 56.2596Z" fill="#B76301"/>
<path d="M29.7111 140.182L186.49 46.2559L328.99 220.256L29.7111 140.182Z" fill="#FDCA7D"/>
<ellipse cx="16.9469" cy="12.1036" rx="16.9469" ry="12.1036" transform="matrix(0.978302 0.207185 -0.185474 0.982649 154.201 67.1816)" fill="#AF3828"/>
<path d="M180.114 150.096C178.874 156.664 170.447 160.417 161.29 158.478C152.134 156.539 145.716 149.642 146.956 143.073C148.196 136.505 156.624 132.752 165.78 134.691C174.936 136.63 181.354 143.527 180.114 150.096Z" fill="#AF3828"/>
<path d="M252.219 157.498C250.979 164.066 242.551 167.819 233.395 165.88C224.238 163.941 217.821 157.044 219.061 150.476C220.3 143.907 228.728 140.154 237.885 142.093C247.041 144.032 253.459 150.929 252.219 157.498Z" fill="#AF3828"/>
<ellipse cx="16.9469" cy="12.1036" rx="16.9469" ry="12.1036" transform="matrix(0.978302 0.207185 -0.185474 0.982649 260.201 174.182)" fill="#AF3828"/>
<ellipse cx="16.9469" cy="12.1036" rx="16.9469" ry="12.1036" transform="matrix(0.978302 0.207185 -0.185474 0.982649 89.2008 116.182)" fill="#AF3828"/>
<ellipse cx="16.9469" cy="12.1036" rx="16.9469" ry="12.1036" transform="matrix(0.978302 0.207185 -0.185474 0.982649 127.201 98.1816)" fill="#AF3828"/>
<ellipse cx="199.211" cy="137.182" rx="5.5" ry="5" fill="#216D29"/>
<ellipse cx="232.211" cy="128.182" rx="5.5" ry="5" fill="#216D29"/>
<ellipse cx="208.211" cy="168.182" rx="5.5" ry="5" fill="#216D29"/>
<ellipse cx="139.211" cy="132.182" rx="5.5" ry="5" fill="#216D29"/>
<ellipse cx="161.211" cy="161.182" rx="5.5" ry="5" fill="#216D29"/>
<ellipse cx="190.211" cy="80.1816" rx="5.5" ry="5" fill="#216D29"/>
<ellipse cx="215.211" cy="105.182" rx="5.5" ry="5" fill="#216D29"/>
<ellipse cx="243.211" cy="147.182" rx="5.5" ry="5" fill="#216D29"/>
<path d="M29.7107 155.181L29.7107 140.182L328.711 220.182L328.21 227.181L29.7107 155.181Z" fill="#FDCA7D"/>
<path d="M29.7111 140.182L328.711 220.182" stroke="#D68916" stroke-width="2"/>
<path d="M204.788 114.781C200.379 125.917 187.605 129.924 176.257 123.729C164.91 117.534 159.286 103.484 163.696 92.3467C168.105 81.2099 180.879 77.2037 192.227 83.3986C203.574 89.5936 209.198 103.644 204.788 114.781Z" fill="#F54A33"/>
<path d="M193.541 117.853C192.85 119.14 191.041 119.211 189.501 118.012C187.96 116.813 187.271 114.798 187.962 113.511C188.653 112.225 190.462 112.153 192.002 113.352C193.543 114.551 194.232 116.566 193.541 117.853Z" fill="#F88D8D"/>
<path d="M193.541 117.853C192.85 119.14 191.041 119.211 189.501 118.012C187.96 116.813 187.271 114.798 187.962 113.511C188.653 112.225 190.462 112.153 192.002 113.352C193.543 114.551 194.232 116.566 193.541 117.853Z" fill="#F88D8D"/>
<path d="M193.541 117.853C192.85 119.14 191.041 119.211 189.501 118.012C187.96 116.813 187.271 114.798 187.962 113.511C188.653 112.225 190.462 112.153 192.002 113.352C193.543 114.551 194.232 116.566 193.541 117.853Z" fill="#F88D8D"/>
<path d="M193.541 117.853C192.85 119.14 191.041 119.211 189.501 118.012C187.96 116.813 187.271 114.798 187.962 113.511C188.653 112.225 190.462 112.153 192.002 113.352C193.543 114.551 194.232 116.566 193.541 117.853Z" fill="#F88D8D"/>
<ellipse cx="4.39173" cy="2.13235" rx="4.39173" ry="2.13235" transform="matrix(0.0236158 0.999721 -0.979452 0.201678 180.888 113.182)" fill="#F88D8D"/>
<ellipse cx="4.39173" cy="2.13235" rx="4.39173" ry="2.13235" transform="matrix(0.0236158 0.999721 -0.979452 0.201678 180.888 113.182)" fill="#F88D8D"/>
<ellipse cx="4.39173" cy="2.13235" rx="4.39173" ry="2.13235" transform="matrix(0.0236158 0.999721 -0.979452 0.201678 180.888 113.182)" fill="#F88D8D"/>
<ellipse cx="4.39173" cy="2.13235" rx="4.39173" ry="2.13235" transform="matrix(0.0236158 0.999721 -0.979452 0.201678 180.888 113.182)" fill="#F88D8D"/>
<ellipse cx="3.4575" cy="2.68082" rx="3.4575" ry="2.68082" transform="matrix(-0.999893 0.0146533 0.0938056 -0.99559 174.625 106.52)" fill="#F88D8D"/>
<ellipse cx="3.4575" cy="2.68082" rx="3.4575" ry="2.68082" transform="matrix(-0.999893 0.0146533 0.0938056 -0.99559 174.625 106.52)" fill="#F88D8D"/>
<ellipse cx="3.4575" cy="2.68082" rx="3.4575" ry="2.68082" transform="matrix(-0.999893 0.0146533 0.0938056 -0.99559 174.625 106.52)" fill="#F88D8D"/>
<ellipse cx="3.4575" cy="2.68082" rx="3.4575" ry="2.68082" transform="matrix(-0.999893 0.0146533 0.0938056 -0.99559 174.625 106.52)" fill="#F88D8D"/>
<ellipse cx="3.84368" cy="2.4843" rx="3.84368" ry="2.4843" transform="matrix(-0.515299 -0.85701 0.691786 -0.722102 178.672 96.3574)" fill="#F88D8D"/>
<ellipse cx="3.84368" cy="2.4843" rx="3.84368" ry="2.4843" transform="matrix(-0.515299 -0.85701 0.691786 -0.722102 178.672 96.3574)" fill="#F88D8D"/>
<ellipse cx="3.84368" cy="2.4843" rx="3.84368" ry="2.4843" transform="matrix(-0.515299 -0.85701 0.691786 -0.722102 178.672 96.3574)" fill="#F88D8D"/>
<ellipse cx="3.84368" cy="2.4843" rx="3.84368" ry="2.4843" transform="matrix(-0.515299 -0.85701 0.691786 -0.722102 178.672 96.3574)" fill="#F88D8D"/>
<ellipse cx="4.42717" cy="2.1058" rx="4.42717" ry="2.1058" transform="matrix(0.0242627 -0.999706 0.991769 -0.128038 185.711 94.5728)" fill="#F88D8D"/>
<ellipse cx="4.42717" cy="2.1058" rx="4.42717" ry="2.1058" transform="matrix(0.0242627 -0.999706 0.991769 -0.128038 185.711 94.5728)" fill="#F88D8D"/>
<ellipse cx="4.42717" cy="2.1058" rx="4.42717" ry="2.1058" transform="matrix(0.0242627 -0.999706 0.991769 -0.128038 185.711 94.5728)" fill="#F88D8D"/>
<ellipse cx="4.42717" cy="2.1058" rx="4.42717" ry="2.1058" transform="matrix(0.0242627 -0.999706 0.991769 -0.128038 185.711 94.5728)" fill="#F88D8D"/>
<path d="M200.377 96.9743C201.123 97.9643 200.537 100.243 199.069 102.063C197.601 103.883 195.807 104.557 195.061 103.567C194.316 102.576 194.901 100.298 196.369 98.4778C197.837 96.6574 199.632 95.9843 200.377 96.9743Z" fill="#F88D8D"/>
<path d="M200.377 96.9743C201.123 97.9643 200.537 100.243 199.069 102.063C197.601 103.883 195.807 104.557 195.061 103.567C194.316 102.576 194.901 100.298 196.369 98.4778C197.837 96.6574 199.632 95.9843 200.377 96.9743Z" fill="#F88D8D"/>
<path d="M200.377 96.9743C201.123 97.9643 200.537 100.243 199.069 102.063C197.601 103.883 195.807 104.557 195.061 103.567C194.316 102.576 194.901 100.298 196.369 98.4778C197.837 96.6574 199.632 95.9843 200.377 96.9743Z" fill="#F88D8D"/>
<path d="M200.377 96.9743C201.123 97.9643 200.537 100.243 199.069 102.063C197.601 103.883 195.807 104.557 195.061 103.567C194.316 102.576 194.901 100.298 196.369 98.4778C197.837 96.6574 199.632 95.9843 200.377 96.9743Z" fill="#F88D8D"/>
<ellipse cx="7.56675" cy="1.75251" rx="7.56675" ry="1.75251" transform="matrix(0.757197 0.653187 -0.501788 0.864991 168.47 90.1816)" fill="#FBE3E3"/>
<ellipse cx="8.44139" cy="1.60423" rx="8.44139" ry="1.60423" transform="matrix(0.787207 -0.616688 0.379439 0.925217 168.711 115.593)" fill="#FFF3F3"/>
<ellipse cx="9.34668" cy="1.41458" rx="9.34668" ry="1.41458" transform="matrix(-0.00547563 -0.999985 0.984702 -0.174244 183.813 125.368)" fill="#FFFDFD"/>
<ellipse cx="9.22124" cy="1.44355" rx="9.22124" ry="1.44355" transform="matrix(0.0763828 0.997079 -0.960568 0.278046 184.484 83.1816)" fill="#FFF2F2"/>
<ellipse cx="9.31769" cy="1.42137" rx="9.31769" ry="1.42137" transform="matrix(-0.49016 0.871632 -0.77032 -0.637657 198.035 86.9941)" fill="#FCEBEB"/>
<ellipse cx="7.4053" cy="1.77686" rx="7.4053" ry="1.77686" transform="matrix(-0.973076 -0.230483 0.362815 -0.931861 201.731 111.995)" fill="#FFF8F8"/>
</svg>
