<svg width="3269" height="1996" viewBox="0 0 3269 1996" fill="none" xmlns="http://www.w3.org/2000/svg">
<path d="M141.903 1739.2L3148.63 1739.7L3269 1845.2H23L141.903 1739.2Z" fill="black"/>
<rect y="1845.2" width="3269" height="96" fill="black"/>
<path d="M119.013 1739.2L3128.52 1739.7L3249 1845.2H0L119.013 1739.2Z" fill="black"/>
<rect x="3062.97" y="1754.58" width="1738.38" height="85.8855" transform="rotate(-89.8916 3062.97 1754.58)" fill="black"/>
<rect x="215" y="0.200195" width="2937" height="89" fill="black"/>
<rect x="119.043" y="1759.19" width="1759.19" height="99.984" transform="rotate(-89.8916 119.043 1759.19)" fill="black"/>
<path d="M222 88.2002H3056V1739.2H219L222 88.2002Z" fill="#256838"/>
<path d="M215 16.2002H3097V99.2002H215V16.2002Z" fill="#896023"/>
<rect x="18" y="1845.2" width="3236" height="83" fill="#896023"/>
<path d="M137.463 1739.2H3133.04L3253 1845.2H18L137.463 1739.2Z" fill="#643D02"/>
<path d="M136.537 1739.2L3134 1739.7L3254 1845.2H18L136.537 1739.2Z" fill="#643D02"/>
<rect x="3050" y="1739.2" width="1723" height="83.1096" transform="rotate(-89.8916 3050 1739.2)" fill="#896023"/>
<rect x="136.064" y="1739.12" width="1723.01" height="83" transform="rotate(-89.8916 136.064 1739.12)" fill="#896023"/>
<path d="M1143 1132.2V1811.2H805L1143 1132.2Z" fill="black"/>
<path d="M1132 1170.2V1804.2H815L1132 1170.2Z" fill="#FFF06D"/>
<path d="M1071 1420.2V1755.2H911L1071 1420.2Z" fill="#256838"/>
<rect x="175" y="1719.2" width="586" height="79" fill="black"/>
<path d="M716 1728.2C716 1657.39 689.661 1589.47 642.777 1539.4C595.893 1489.33 532.304 1461.2 466 1461.2C399.696 1461.2 336.107 1489.33 289.223 1539.4C242.339 1589.47 216 1657.39 216 1728.2L312.931 1728.2C312.931 1684.84 329.058 1643.26 357.764 1612.6C386.47 1581.95 425.404 1564.72 466 1564.72C506.596 1564.72 545.53 1581.95 574.236 1612.6C602.942 1643.26 619.069 1684.84 619.069 1728.2H716Z" fill="black"/>
<path d="M716 1728.2C716 1661.9 689.661 1598.31 642.777 1551.42C595.893 1504.54 532.304 1478.2 466 1478.2C399.696 1478.2 336.107 1504.54 289.223 1551.42C242.339 1598.31 216 1661.9 216 1728.2L312.931 1728.2C312.931 1687.6 329.058 1648.67 357.764 1619.96C386.47 1591.26 425.404 1575.13 466 1575.13C506.596 1575.13 545.53 1591.26 574.236 1619.96C602.942 1648.67 619.069 1687.6 619.069 1728.2H716Z" fill="#0093E6"/>
<rect x="175" y="1728.2" width="586" height="79" fill="#0093E5"/>
<path d="M465.5 1526.7V1570.2" stroke="black" stroke-width="3"/>
<line y1="-1" x2="30.5312" y2="-1" transform="matrix(0.1687 0.985667 0.988645 -0.15027 434.85 1541.2)" stroke="black" stroke-width="2"/>
<line y1="-1" x2="29.0609" y2="-1" transform="matrix(0.248129 0.968727 0.975091 -0.221804 411.156 1548)" stroke="black" stroke-width="2"/>
<line y1="-1.5" x2="40.4035" y2="-1.5" transform="matrix(0.407933 0.913012 0.929502 -0.368817 380.253 1548)" stroke="black" stroke-width="3"/>
<line y1="-1" x2="30.72" y2="-1" transform="matrix(0.570054 0.821607 0.85136 -0.524581 360.681 1569.35)" stroke="black" stroke-width="2"/>
<line y1="-1" x2="31.8137" y2="-1" transform="matrix(0.712355 0.70182 0.742776 -0.66954 338.018 1584.88)" stroke="black" stroke-width="2"/>
<line y1="-1.5" x2="44.0108" y2="-1.5" transform="matrix(0.819213 0.57349 0.619067 -0.785338 308.145 1598.47)" stroke="black" stroke-width="3"/>
<line y1="-1" x2="30.5424" y2="-1" transform="matrix(0.910644 0.413192 0.454978 -0.890503 301.964 1632.45)" stroke="black" stroke-width="2"/>
<line y1="-1" x2="31.1069" y2="-1" transform="matrix(0.927233 0.374486 0.413978 -0.910287 291.662 1653.81)" stroke="black" stroke-width="2"/>
<line y1="-1.5" x2="46.0578" y2="-1.5" transform="matrix(0.961729 0.274001 0.305477 -0.952199 269 1675.17)" stroke="black" stroke-width="3"/>
<line y1="-1" x2="29.9365" y2="-1" transform="matrix(-0.997895 -0.0648546 -0.0729874 0.997333 308.145 1707.2)" stroke="black" stroke-width="2"/>
<line x1="305.924" y1="1698.69" x2="292.924" y2="1696.69" stroke="#FF9F9F"/>
<line x1="312.824" y1="1675.67" x2="296.824" y2="1669.67" stroke="#FF9F9F"/>
<line x1="320.803" y1="1654.66" x2="306.803" y2="1648.66" stroke="#FF9F9F"/>
<line x1="332.765" y1="1632.64" x2="317.765" y2="1624.64" stroke="#FF9F9F"/>
<line x1="348.695" y1="1613.6" x2="335.695" y2="1603.6" stroke="#FF9F9F"/>
<line x1="366.622" y1="1598.53" x2="353.622" y2="1583.53" stroke="#FF9F9F"/>
<line x1="384.588" y1="1586.48" x2="373.588" y2="1570.48" stroke="#FF9F9F"/>
<line x1="404.523" y1="1576.35" x2="398.523" y2="1557.35" stroke="#FF9F9F"/>
<line x1="426.511" y1="1570.3" x2="422.511" y2="1551.3" stroke="#FF9F9F"/>
<line x1="451.502" y1="1566.25" x2="449.502" y2="1545.25" stroke="#FF9F9F"/>
<line x1="451.502" y1="1566.25" x2="449.502" y2="1545.25" stroke="#FF9F9F"/>
<line y1="-1" x2="31.2454" y2="-1" transform="matrix(-0.159816 0.987147 -0.987335 -0.15865 496.208 1540.06)" stroke="black" stroke-width="2"/>
<line y1="-1" x2="29.6887" y2="-1" transform="matrix(-0.235475 0.97188 -0.972283 -0.233809 519.179 1547.03)" stroke="black" stroke-width="2"/>
<line y1="-1.5" x2="41.0466" y2="-1.5" transform="matrix(-0.389297 0.921112 -0.922155 -0.38682 549.14 1547.03)" stroke="black" stroke-width="3"/>
<line y1="-1" x2="30.9428" y2="-1" transform="matrix(-0.54869 0.836026 -0.837909 -0.545809 568.115 1568.92)" stroke="black" stroke-width="2"/>
<line y1="-1" x2="31.7243" y2="-1" transform="matrix(-0.692578 0.721343 -0.723938 -0.689865 590.087 1584.83)" stroke="black" stroke-width="2"/>
<line y1="-1.5" x2="43.4861" y2="-1.5" transform="matrix(-0.803814 0.59488 -0.597767 -0.80167 619.049 1598.76)" stroke="black" stroke-width="3"/>
<line y1="-1" x2="29.9068" y2="-1" transform="matrix(-0.901637 0.432494 -0.43514 -0.900363 625.041 1633.59)" stroke="black" stroke-width="2"/>
<line y1="-1" x2="30.406" y2="-1" transform="matrix(-0.919679 0.39267 -0.395171 -0.918608 635.028 1655.48)" stroke="black" stroke-width="2"/>
<line y1="-1.5" x2="44.85" y2="-1.5" transform="matrix(-0.957512 0.288395 -0.290387 -0.956909 657 1677.37)" stroke="black" stroke-width="3"/>
<line y1="-1" x2="29.0308" y2="-1" transform="matrix(0.997648 -0.0685453 0.0690598 0.997613 619.049 1710.2)" stroke="black" stroke-width="2"/>
<line y1="-0.5" x2="12.7692" y2="-0.5" transform="matrix(0.987031 -0.160532 -0.14401 -0.989576 621.129 1700.98)" stroke="#FF9F9F"/>
<line y1="-0.5" x2="16.6866" y2="-0.5" transform="matrix(0.929614 -0.368535 -0.334311 -0.942463 614.342 1677.4)" stroke="#FF9F9F"/>
<line y1="-0.5" x2="14.9012" y2="-0.5" transform="matrix(0.910871 -0.412691 -0.375697 -0.926742 606.586 1655.88)" stroke="#FF9F9F"/>
<line y1="-0.5" x2="16.6948" y2="-0.5" transform="matrix(0.871082 -0.491137 -0.450419 -0.892817 594.951 1633.33)" stroke="#FF9F9F"/>
<line y1="-0.5" x2="16.2449" y2="-0.5" transform="matrix(0.775845 -0.630923 -0.588362 -0.808598 579.439 1613.86)" stroke="#FF9F9F"/>
<line y1="-0.5" x2="19.8799" y2="-0.5" transform="matrix(0.633987 -0.773344 -0.737321 -0.675543 561.988 1598.48)" stroke="#FF9F9F"/>
<line y1="-0.5" x2="19.5616" y2="-0.5" transform="matrix(0.545178 -0.83832 -0.808916 -0.587924 544.537 1586.18)" stroke="#FF9F9F"/>
<line y1="-0.5" x2="20.3239" y2="-0.5" transform="matrix(0.286216 -0.958165 -0.948538 -0.316663 525.147 1575.93)" stroke="#FF9F9F"/>
<line y1="-0.5" x2="19.8561" y2="-0.5" transform="matrix(0.195307 -0.980742 -0.976117 -0.217246 503.818 1569.79)" stroke="#FF9F9F"/>
<line y1="-0.5" x2="21.6107" y2="-0.5" transform="matrix(0.0897245 -0.995967 -0.99497 -0.100176 479.58 1565.68)" stroke="#FF9F9F"/>
<line y1="-0.5" x2="21.6107" y2="-0.5" transform="matrix(0.0897245 -0.995967 -0.99497 -0.100176 479.58 1565.68)" stroke="#FF9F9F"/>
<line x1="236" y1="1776.2" x2="236" y2="1806.2" stroke="black" stroke-width="2"/>
<line x1="219" y1="1776.2" x2="219" y2="1806.2" stroke="black" stroke-width="2"/>
<line x1="258.5" y1="1767.2" x2="258.5" y2="1806.2" stroke="black" stroke-width="3"/>
<line x1="246.5" y1="1798.2" x2="246.5" y2="1787.2" stroke="#FF9F9F"/>
<line x1="227.5" y1="1798.2" x2="227.5" y2="1787.2" stroke="#FF9F9F"/>
<line x1="289" y1="1776.2" x2="289" y2="1806.2" stroke="black" stroke-width="2"/>
<line x1="272" y1="1776.2" x2="272" y2="1806.2" stroke="black" stroke-width="2"/>
<line x1="311.5" y1="1767.2" x2="311.5" y2="1806.2" stroke="black" stroke-width="3"/>
<line x1="299.5" y1="1798.2" x2="299.5" y2="1787.2" stroke="#FF9F9F"/>
<line x1="280.5" y1="1798.2" x2="280.5" y2="1787.2" stroke="#FF9F9F"/>
<line x1="343" y1="1776.2" x2="343" y2="1806.2" stroke="black" stroke-width="2"/>
<line x1="326" y1="1776.2" x2="326" y2="1806.2" stroke="black" stroke-width="2"/>
<line x1="365.5" y1="1767.2" x2="365.5" y2="1806.2" stroke="black" stroke-width="3"/>
<line x1="353.5" y1="1798.2" x2="353.5" y2="1787.2" stroke="#FF9F9F"/>
<line x1="334.5" y1="1798.2" x2="334.5" y2="1787.2" stroke="#FF9F9F"/>
<line x1="399" y1="1776.2" x2="399" y2="1806.2" stroke="black" stroke-width="2"/>
<line x1="382" y1="1776.2" x2="382" y2="1806.2" stroke="black" stroke-width="2"/>
<line x1="421.5" y1="1767.2" x2="421.5" y2="1806.2" stroke="black" stroke-width="3"/>
<line x1="409.5" y1="1798.2" x2="409.5" y2="1787.2" stroke="#FF9F9F"/>
<line x1="390.5" y1="1798.2" x2="390.5" y2="1787.2" stroke="#FF9F9F"/>
<line x1="455" y1="1776.2" x2="455" y2="1806.2" stroke="black" stroke-width="2"/>
<line x1="438" y1="1776.2" x2="438" y2="1806.2" stroke="black" stroke-width="2"/>
<line x1="477.5" y1="1767.2" x2="477.5" y2="1806.2" stroke="black" stroke-width="3"/>
<line x1="465.5" y1="1798.2" x2="465.5" y2="1787.2" stroke="#FF9F9F"/>
<line x1="446.5" y1="1798.2" x2="446.5" y2="1787.2" stroke="#FF9F9F"/>
<line x1="511" y1="1776.2" x2="511" y2="1806.2" stroke="black" stroke-width="2"/>
<line x1="494" y1="1776.2" x2="494" y2="1806.2" stroke="black" stroke-width="2"/>
<line x1="533.5" y1="1767.2" x2="533.5" y2="1806.2" stroke="black" stroke-width="3"/>
<line x1="521.5" y1="1798.2" x2="521.5" y2="1787.2" stroke="#FF9F9F"/>
<line x1="502.5" y1="1798.2" x2="502.5" y2="1787.2" stroke="#FF9F9F"/>
<line x1="680" y1="1776.2" x2="680" y2="1806.2" stroke="black" stroke-width="2"/>
<line x1="663" y1="1776.2" x2="663" y2="1806.2" stroke="black" stroke-width="2"/>
<line x1="702.5" y1="1767.2" x2="702.5" y2="1806.2" stroke="black" stroke-width="3"/>
<line x1="690.5" y1="1798.2" x2="690.5" y2="1787.2" stroke="#FF9F9F"/>
<line x1="671.5" y1="1798.2" x2="671.5" y2="1787.2" stroke="#FF9F9F"/>
<line x1="624" y1="1776.2" x2="624" y2="1806.2" stroke="black" stroke-width="2"/>
<line x1="607" y1="1776.2" x2="607" y2="1806.2" stroke="black" stroke-width="2"/>
<line x1="646.5" y1="1767.2" x2="646.5" y2="1806.2" stroke="black" stroke-width="3"/>
<line x1="634.5" y1="1798.2" x2="634.5" y2="1787.2" stroke="#FF9F9F"/>
<line x1="615.5" y1="1798.2" x2="615.5" y2="1787.2" stroke="#FF9F9F"/>
<line x1="568" y1="1776.2" x2="568" y2="1806.2" stroke="black" stroke-width="2"/>
<line x1="551" y1="1776.2" x2="551" y2="1806.2" stroke="black" stroke-width="2"/>
<line x1="590.5" y1="1767.2" x2="590.5" y2="1806.2" stroke="black" stroke-width="3"/>
<line x1="578.5" y1="1798.2" x2="578.5" y2="1787.2" stroke="#FF9F9F"/>
<line x1="559.5" y1="1798.2" x2="559.5" y2="1787.2" stroke="#FF9F9F"/>
<line x1="1130" y1="1761.7" x2="1092" y2="1761.7" stroke="black" stroke-width="3"/>
<line x1="1130" y1="1746.2" x2="1107" y2="1746.2" stroke="black" stroke-width="2"/>
<line x1="1130" y1="1733.2" x2="1107" y2="1733.2" stroke="black" stroke-width="2"/>
<line x1="1127" y1="1753.7" x2="1119" y2="1753.7" stroke="#FF0000"/>
<line x1="1127" y1="1738.7" x2="1119" y2="1738.7" stroke="#FF0000"/>
<line x1="1130" y1="1720.7" x2="1092" y2="1720.7" stroke="black" stroke-width="3"/>
<line x1="1130" y1="1705.2" x2="1107" y2="1705.2" stroke="black" stroke-width="2"/>
<line x1="1130" y1="1692.2" x2="1107" y2="1692.2" stroke="black" stroke-width="2"/>
<line x1="1127" y1="1712.7" x2="1119" y2="1712.7" stroke="#FF0000"/>
<line x1="1127" y1="1697.7" x2="1119" y2="1697.7" stroke="#FF0000"/>
<line x1="1130" y1="1679.7" x2="1092" y2="1679.7" stroke="black" stroke-width="3"/>
<line x1="1130" y1="1664.2" x2="1107" y2="1664.2" stroke="black" stroke-width="2"/>
<line x1="1130" y1="1651.2" x2="1107" y2="1651.2" stroke="black" stroke-width="2"/>
<line x1="1127" y1="1671.7" x2="1119" y2="1671.7" stroke="#FF0000"/>
<line x1="1127" y1="1656.7" x2="1119" y2="1656.7" stroke="#FF0000"/>
<line x1="1130" y1="1638.7" x2="1092" y2="1638.7" stroke="black" stroke-width="3"/>
<line x1="1130" y1="1623.2" x2="1107" y2="1623.2" stroke="black" stroke-width="2"/>
<line x1="1130" y1="1610.2" x2="1107" y2="1610.2" stroke="black" stroke-width="2"/>
<line x1="1127" y1="1630.7" x2="1119" y2="1630.7" stroke="#FF0000"/>
<line x1="1127" y1="1615.7" x2="1119" y2="1615.7" stroke="#FF0000"/>
<line x1="1130" y1="1597.7" x2="1092" y2="1597.7" stroke="black" stroke-width="3"/>
<line x1="1130" y1="1582.2" x2="1107" y2="1582.2" stroke="black" stroke-width="2"/>
<line x1="1130" y1="1569.2" x2="1107" y2="1569.2" stroke="black" stroke-width="2"/>
<line x1="1127" y1="1589.7" x2="1119" y2="1589.7" stroke="#FF0000"/>
<line x1="1127" y1="1574.7" x2="1119" y2="1574.7" stroke="#FF0000"/>
<line x1="1130" y1="1556.7" x2="1092" y2="1556.7" stroke="black" stroke-width="3"/>
<line x1="1130" y1="1541.2" x2="1107" y2="1541.2" stroke="black" stroke-width="2"/>
<line x1="1130" y1="1528.2" x2="1107" y2="1528.2" stroke="black" stroke-width="2"/>
<line x1="1127" y1="1548.7" x2="1119" y2="1548.7" stroke="#FF0000"/>
<line x1="1127" y1="1533.7" x2="1119" y2="1533.7" stroke="#FF0000"/>
<line x1="1130" y1="1515.7" x2="1092" y2="1515.7" stroke="black" stroke-width="3"/>
<line x1="1130" y1="1500.2" x2="1107" y2="1500.2" stroke="black" stroke-width="2"/>
<line x1="1130" y1="1487.2" x2="1107" y2="1487.2" stroke="black" stroke-width="2"/>
<line x1="1127" y1="1507.7" x2="1119" y2="1507.7" stroke="#FF0000"/>
<line x1="1127" y1="1492.7" x2="1119" y2="1492.7" stroke="#FF0000"/>
<line x1="1130" y1="1474.7" x2="1092" y2="1474.7" stroke="black" stroke-width="3"/>
<line x1="1130" y1="1459.2" x2="1107" y2="1459.2" stroke="black" stroke-width="2"/>
<line x1="1130" y1="1446.2" x2="1107" y2="1446.2" stroke="black" stroke-width="2"/>
<line x1="1127" y1="1466.7" x2="1119" y2="1466.7" stroke="#FF0000"/>
<line x1="1127" y1="1451.7" x2="1119" y2="1451.7" stroke="#FF0000"/>
<line x1="1130" y1="1433.7" x2="1092" y2="1433.7" stroke="black" stroke-width="3"/>
<line x1="1130" y1="1418.2" x2="1107" y2="1418.2" stroke="black" stroke-width="2"/>
<line x1="1130" y1="1405.2" x2="1107" y2="1405.2" stroke="black" stroke-width="2"/>
<line x1="1127" y1="1425.7" x2="1119" y2="1425.7" stroke="#FF0000"/>
<line x1="1127" y1="1410.7" x2="1119" y2="1410.7" stroke="#FF0000"/>
<line x1="1130" y1="1392.7" x2="1092" y2="1392.7" stroke="black" stroke-width="3"/>
<line x1="1130" y1="1377.2" x2="1107" y2="1377.2" stroke="black" stroke-width="2"/>
<line x1="1130" y1="1364.2" x2="1107" y2="1364.2" stroke="black" stroke-width="2"/>
<line x1="1127" y1="1384.7" x2="1119" y2="1384.7" stroke="#FF0000"/>
<line x1="1127" y1="1369.7" x2="1119" y2="1369.7" stroke="#FF0000"/>
<line x1="1130" y1="1310.7" x2="1092" y2="1310.7" stroke="black" stroke-width="3"/>
<line x1="1130" y1="1295.2" x2="1107" y2="1295.2" stroke="black" stroke-width="2"/>
<line x1="1130" y1="1282.2" x2="1107" y2="1282.2" stroke="black" stroke-width="2"/>
<line x1="1127" y1="1302.7" x2="1119" y2="1302.7" stroke="#FF0000"/>
<line x1="1127" y1="1287.7" x2="1119" y2="1287.7" stroke="#FF0000"/>
<line x1="1130" y1="1351.7" x2="1092" y2="1351.7" stroke="black" stroke-width="3"/>
<line x1="1130" y1="1336.2" x2="1107" y2="1336.2" stroke="black" stroke-width="2"/>
<line x1="1130" y1="1323.2" x2="1107" y2="1323.2" stroke="black" stroke-width="2"/>
<line x1="1127" y1="1343.7" x2="1119" y2="1343.7" stroke="#FF0000"/>
<line x1="1127" y1="1328.7" x2="1119" y2="1328.7" stroke="#FF0000"/>
<path d="M917 1742.7L1071 1736.7V1755.2H911L917 1742.7Z" fill="black"/>
<path d="M141.903 1739.2L3148.63 1739.7L3269 1845.2H23L141.903 1739.2Z" fill="black"/>
<rect y="1845.2" width="3269" height="96" fill="black"/>
<path d="M119.013 1739.2L3128.52 1739.7L3249 1845.2H0L119.013 1739.2Z" fill="black"/>
<rect x="3062.97" y="1754.58" width="1738.38" height="85.8855" transform="rotate(-89.8916 3062.97 1754.58)" fill="black"/>
<rect x="215" y="0.200195" width="2937" height="89" fill="black"/>
<rect x="119.043" y="1759.19" width="1759.19" height="99.984" transform="rotate(-89.8916 119.043 1759.19)" fill="black"/>
<path d="M222 88.2002H3056V1739.2H219L222 88.2002Z" fill="#1C1D1C"/>
<path d="M215 16.2002H3097V99.2002H215V16.2002Z" fill="#503916"/>
<rect x="18" y="1845.2" width="3236" height="83" fill="#503916"/>
<path d="M137.463 1739.2H3133.04L3253 1845.2H18L137.463 1739.2Z" fill="#643D02"/>
<path d="M136.537 1739.2L3134 1739.7L3254 1845.2H18L136.537 1739.2Z" fill="#342103"/>
<rect x="3050" y="1739.2" width="1723" height="83.1096" transform="rotate(-89.8916 3050 1739.2)" fill="#503916"/>
<rect x="136.064" y="1739.12" width="1723.01" height="83" transform="rotate(-89.8916 136.064 1739.12)" fill="#503916"/>
<path d="M1143 1132.2V1811.2H805L1143 1132.2Z" fill="black"/>
<path d="M1132 1170.2V1804.2H815L1132 1170.2Z" fill="#7C7535"/>
<path d="M1071 1420.2V1755.2H911L1071 1420.2Z" fill="#1C1D1C"/>
<rect x="175" y="1719.2" width="586" height="79" fill="black"/>
<path d="M716 1728.2C716 1657.39 689.661 1589.47 642.777 1539.4C595.893 1489.33 532.304 1461.2 466 1461.2C399.696 1461.2 336.107 1489.33 289.223 1539.4C242.339 1589.47 216 1657.39 216 1728.2L312.931 1728.2C312.931 1684.84 329.058 1643.26 357.764 1612.6C386.47 1581.95 425.404 1564.72 466 1564.72C506.596 1564.72 545.53 1581.95 574.236 1612.6C602.942 1643.26 619.069 1684.84 619.069 1728.2H716Z" fill="black"/>
<path d="M716 1728.2C716 1661.9 689.661 1598.31 642.777 1551.42C595.893 1504.54 532.304 1478.2 466 1478.2C399.696 1478.2 336.107 1504.54 289.223 1551.42C242.339 1598.31 216 1661.9 216 1728.2L312.931 1728.2C312.931 1687.6 329.058 1648.67 357.764 1619.96C386.47 1591.26 425.404 1575.13 466 1575.13C506.596 1575.13 545.53 1591.26 574.236 1619.96C602.942 1648.67 619.069 1687.6 619.069 1728.2H716Z" fill="#003B5C"/>
<rect x="175" y="1728.2" width="586" height="79" fill="#003B5C"/>
<path d="M465.5 1526.7V1570.2" stroke="black" stroke-width="3"/>
<line y1="-1" x2="30.5312" y2="-1" transform="matrix(0.1687 0.985667 0.988645 -0.15027 434.85 1541.2)" stroke="black" stroke-width="2"/>
<line y1="-1" x2="29.0609" y2="-1" transform="matrix(0.248129 0.968727 0.975091 -0.221804 411.156 1548)" stroke="black" stroke-width="2"/>
<line y1="-1.5" x2="40.4035" y2="-1.5" transform="matrix(0.407933 0.913012 0.929502 -0.368817 380.253 1548)" stroke="black" stroke-width="3"/>
<line y1="-1" x2="30.72" y2="-1" transform="matrix(0.570054 0.821607 0.85136 -0.524581 360.681 1569.35)" stroke="black" stroke-width="2"/>
<line y1="-1" x2="31.8137" y2="-1" transform="matrix(0.712355 0.70182 0.742776 -0.66954 338.018 1584.88)" stroke="black" stroke-width="2"/>
<line y1="-1.5" x2="44.0108" y2="-1.5" transform="matrix(0.819213 0.57349 0.619067 -0.785338 308.145 1598.47)" stroke="black" stroke-width="3"/>
<line y1="-1" x2="30.5424" y2="-1" transform="matrix(0.910644 0.413192 0.454978 -0.890503 301.964 1632.45)" stroke="black" stroke-width="2"/>
<line y1="-1" x2="31.1069" y2="-1" transform="matrix(0.927233 0.374486 0.413978 -0.910287 291.662 1653.81)" stroke="black" stroke-width="2"/>
<line y1="-1.5" x2="46.0578" y2="-1.5" transform="matrix(0.961729 0.274001 0.305477 -0.952199 269 1675.17)" stroke="black" stroke-width="3"/>
<line y1="-1" x2="29.9365" y2="-1" transform="matrix(-0.997895 -0.0648546 -0.0729874 0.997333 308.145 1707.2)" stroke="black" stroke-width="2"/>
<line x1="305.924" y1="1698.69" x2="292.924" y2="1696.69" stroke="#FF9F9F"/>
<line x1="312.824" y1="1675.67" x2="296.824" y2="1669.67" stroke="#FF9F9F"/>
<line x1="320.803" y1="1654.66" x2="306.803" y2="1648.66" stroke="#FF9F9F"/>
<line x1="332.765" y1="1632.64" x2="317.765" y2="1624.64" stroke="#FF9F9F"/>
<line x1="348.695" y1="1613.6" x2="335.695" y2="1603.6" stroke="#FF9F9F"/>
<line x1="366.622" y1="1598.53" x2="353.622" y2="1583.53" stroke="#FF9F9F"/>
<line x1="384.588" y1="1586.48" x2="373.588" y2="1570.48" stroke="#FF9F9F"/>
<line x1="404.523" y1="1576.35" x2="398.523" y2="1557.35" stroke="#FF9F9F"/>
<line x1="426.511" y1="1570.3" x2="422.511" y2="1551.3" stroke="#FF9F9F"/>
<line x1="451.502" y1="1566.25" x2="449.502" y2="1545.25" stroke="#FF9F9F"/>
<line x1="451.502" y1="1566.25" x2="449.502" y2="1545.25" stroke="#FF9F9F"/>
<line y1="-1" x2="31.2454" y2="-1" transform="matrix(-0.159816 0.987147 -0.987335 -0.15865 496.208 1540.06)" stroke="black" stroke-width="2"/>
<line y1="-1" x2="29.6887" y2="-1" transform="matrix(-0.235475 0.97188 -0.972283 -0.233809 519.179 1547.03)" stroke="black" stroke-width="2"/>
<line y1="-1.5" x2="41.0466" y2="-1.5" transform="matrix(-0.389297 0.921112 -0.922155 -0.38682 549.14 1547.03)" stroke="black" stroke-width="3"/>
<line y1="-1" x2="30.9428" y2="-1" transform="matrix(-0.54869 0.836026 -0.837909 -0.545809 568.115 1568.92)" stroke="black" stroke-width="2"/>
<line y1="-1" x2="31.7243" y2="-1" transform="matrix(-0.692578 0.721343 -0.723938 -0.689865 590.087 1584.83)" stroke="black" stroke-width="2"/>
<line y1="-1.5" x2="43.4861" y2="-1.5" transform="matrix(-0.803814 0.59488 -0.597767 -0.80167 619.049 1598.76)" stroke="black" stroke-width="3"/>
<line y1="-1" x2="29.9068" y2="-1" transform="matrix(-0.901637 0.432494 -0.43514 -0.900363 625.041 1633.59)" stroke="black" stroke-width="2"/>
<line y1="-1" x2="30.406" y2="-1" transform="matrix(-0.919679 0.39267 -0.395171 -0.918608 635.028 1655.48)" stroke="black" stroke-width="2"/>
<line y1="-1.5" x2="44.85" y2="-1.5" transform="matrix(-0.957512 0.288395 -0.290387 -0.956909 657 1677.37)" stroke="black" stroke-width="3"/>
<line y1="-1" x2="29.0308" y2="-1" transform="matrix(0.997648 -0.0685453 0.0690598 0.997613 619.049 1710.2)" stroke="black" stroke-width="2"/>
<line y1="-0.5" x2="12.7692" y2="-0.5" transform="matrix(0.987031 -0.160532 -0.14401 -0.989576 621.129 1700.98)" stroke="#FF9F9F"/>
<line y1="-0.5" x2="16.6866" y2="-0.5" transform="matrix(0.929614 -0.368535 -0.334311 -0.942463 614.342 1677.4)" stroke="#FF9F9F"/>
<line y1="-0.5" x2="14.9012" y2="-0.5" transform="matrix(0.910871 -0.412691 -0.375697 -0.926742 606.586 1655.88)" stroke="#FF9F9F"/>
<line y1="-0.5" x2="16.6948" y2="-0.5" transform="matrix(0.871082 -0.491137 -0.450419 -0.892817 594.951 1633.33)" stroke="#FF9F9F"/>
<line y1="-0.5" x2="16.2449" y2="-0.5" transform="matrix(0.775845 -0.630923 -0.588362 -0.808598 579.439 1613.86)" stroke="#FF9F9F"/>
<line y1="-0.5" x2="19.8799" y2="-0.5" transform="matrix(0.633987 -0.773344 -0.737321 -0.675543 561.988 1598.48)" stroke="#FF9F9F"/>
<line y1="-0.5" x2="19.5616" y2="-0.5" transform="matrix(0.545178 -0.83832 -0.808916 -0.587924 544.537 1586.18)" stroke="#FF9F9F"/>
<line y1="-0.5" x2="20.3239" y2="-0.5" transform="matrix(0.286216 -0.958165 -0.948538 -0.316663 525.147 1575.93)" stroke="#FF9F9F"/>
<line y1="-0.5" x2="19.8561" y2="-0.5" transform="matrix(0.195307 -0.980742 -0.976117 -0.217246 503.818 1569.79)" stroke="#FF9F9F"/>
<line y1="-0.5" x2="21.6107" y2="-0.5" transform="matrix(0.0897245 -0.995967 -0.99497 -0.100176 479.58 1565.68)" stroke="#FF9F9F"/>
<line y1="-0.5" x2="21.6107" y2="-0.5" transform="matrix(0.0897245 -0.995967 -0.99497 -0.100176 479.58 1565.68)" stroke="#FF9F9F"/>
<line x1="236" y1="1776.2" x2="236" y2="1806.2" stroke="black" stroke-width="2"/>
<line x1="219" y1="1776.2" x2="219" y2="1806.2" stroke="black" stroke-width="2"/>
<line x1="258.5" y1="1767.2" x2="258.5" y2="1806.2" stroke="black" stroke-width="3"/>
<line x1="246.5" y1="1798.2" x2="246.5" y2="1787.2" stroke="#FF9F9F"/>
<line x1="227.5" y1="1798.2" x2="227.5" y2="1787.2" stroke="#FF9F9F"/>
<line x1="289" y1="1776.2" x2="289" y2="1806.2" stroke="black" stroke-width="2"/>
<line x1="272" y1="1776.2" x2="272" y2="1806.2" stroke="black" stroke-width="2"/>
<line x1="311.5" y1="1767.2" x2="311.5" y2="1806.2" stroke="black" stroke-width="3"/>
<line x1="299.5" y1="1798.2" x2="299.5" y2="1787.2" stroke="#FF9F9F"/>
<line x1="280.5" y1="1798.2" x2="280.5" y2="1787.2" stroke="#FF9F9F"/>
<line x1="343" y1="1776.2" x2="343" y2="1806.2" stroke="black" stroke-width="2"/>
<line x1="326" y1="1776.2" x2="326" y2="1806.2" stroke="black" stroke-width="2"/>
<line x1="365.5" y1="1767.2" x2="365.5" y2="1806.2" stroke="black" stroke-width="3"/>
<line x1="353.5" y1="1798.2" x2="353.5" y2="1787.2" stroke="#FF9F9F"/>
<line x1="334.5" y1="1798.2" x2="334.5" y2="1787.2" stroke="#FF9F9F"/>
<line x1="399" y1="1776.2" x2="399" y2="1806.2" stroke="black" stroke-width="2"/>
<line x1="382" y1="1776.2" x2="382" y2="1806.2" stroke="black" stroke-width="2"/>
<line x1="421.5" y1="1767.2" x2="421.5" y2="1806.2" stroke="black" stroke-width="3"/>
<line x1="409.5" y1="1798.2" x2="409.5" y2="1787.2" stroke="#FF9F9F"/>
<line x1="390.5" y1="1798.2" x2="390.5" y2="1787.2" stroke="#FF9F9F"/>
<line x1="455" y1="1776.2" x2="455" y2="1806.2" stroke="black" stroke-width="2"/>
<line x1="438" y1="1776.2" x2="438" y2="1806.2" stroke="black" stroke-width="2"/>
<line x1="477.5" y1="1767.2" x2="477.5" y2="1806.2" stroke="black" stroke-width="3"/>
<line x1="465.5" y1="1798.2" x2="465.5" y2="1787.2" stroke="#FF9F9F"/>
<line x1="446.5" y1="1798.2" x2="446.5" y2="1787.2" stroke="#FF9F9F"/>
<line x1="511" y1="1776.2" x2="511" y2="1806.2" stroke="black" stroke-width="2"/>
<line x1="494" y1="1776.2" x2="494" y2="1806.2" stroke="black" stroke-width="2"/>
<line x1="533.5" y1="1767.2" x2="533.5" y2="1806.2" stroke="black" stroke-width="3"/>
<line x1="521.5" y1="1798.2" x2="521.5" y2="1787.2" stroke="#FF9F9F"/>
<line x1="502.5" y1="1798.2" x2="502.5" y2="1787.2" stroke="#FF9F9F"/>
<line x1="680" y1="1776.2" x2="680" y2="1806.2" stroke="black" stroke-width="2"/>
<line x1="663" y1="1776.2" x2="663" y2="1806.2" stroke="black" stroke-width="2"/>
<line x1="702.5" y1="1767.2" x2="702.5" y2="1806.2" stroke="black" stroke-width="3"/>
<line x1="690.5" y1="1798.2" x2="690.5" y2="1787.2" stroke="#FF9F9F"/>
<line x1="671.5" y1="1798.2" x2="671.5" y2="1787.2" stroke="#FF9F9F"/>
<line x1="624" y1="1776.2" x2="624" y2="1806.2" stroke="black" stroke-width="2"/>
<line x1="607" y1="1776.2" x2="607" y2="1806.2" stroke="black" stroke-width="2"/>
<line x1="646.5" y1="1767.2" x2="646.5" y2="1806.2" stroke="black" stroke-width="3"/>
<line x1="634.5" y1="1798.2" x2="634.5" y2="1787.2" stroke="#FF9F9F"/>
<line x1="615.5" y1="1798.2" x2="615.5" y2="1787.2" stroke="#FF9F9F"/>
<line x1="568" y1="1776.2" x2="568" y2="1806.2" stroke="black" stroke-width="2"/>
<line x1="551" y1="1776.2" x2="551" y2="1806.2" stroke="black" stroke-width="2"/>
<line x1="590.5" y1="1767.2" x2="590.5" y2="1806.2" stroke="black" stroke-width="3"/>
<line x1="578.5" y1="1798.2" x2="578.5" y2="1787.2" stroke="#FF9F9F"/>
<line x1="559.5" y1="1798.2" x2="559.5" y2="1787.2" stroke="#FF9F9F"/>
<line x1="1130" y1="1761.7" x2="1092" y2="1761.7" stroke="black" stroke-width="3"/>
<line x1="1130" y1="1746.2" x2="1107" y2="1746.2" stroke="black" stroke-width="2"/>
<line x1="1130" y1="1733.2" x2="1107" y2="1733.2" stroke="black" stroke-width="2"/>
<line x1="1127" y1="1753.7" x2="1119" y2="1753.7" stroke="#FF0000"/>
<line x1="1127" y1="1738.7" x2="1119" y2="1738.7" stroke="#FF0000"/>
<line x1="1130" y1="1720.7" x2="1092" y2="1720.7" stroke="black" stroke-width="3"/>
<line x1="1130" y1="1705.2" x2="1107" y2="1705.2" stroke="black" stroke-width="2"/>
<line x1="1130" y1="1692.2" x2="1107" y2="1692.2" stroke="black" stroke-width="2"/>
<line x1="1127" y1="1712.7" x2="1119" y2="1712.7" stroke="#FF0000"/>
<line x1="1127" y1="1697.7" x2="1119" y2="1697.7" stroke="#FF0000"/>
<line x1="1130" y1="1679.7" x2="1092" y2="1679.7" stroke="black" stroke-width="3"/>
<line x1="1130" y1="1664.2" x2="1107" y2="1664.2" stroke="black" stroke-width="2"/>
<line x1="1130" y1="1651.2" x2="1107" y2="1651.2" stroke="black" stroke-width="2"/>
<line x1="1127" y1="1671.7" x2="1119" y2="1671.7" stroke="#FF0000"/>
<line x1="1127" y1="1656.7" x2="1119" y2="1656.7" stroke="#FF0000"/>
<line x1="1130" y1="1638.7" x2="1092" y2="1638.7" stroke="black" stroke-width="3"/>
<line x1="1130" y1="1623.2" x2="1107" y2="1623.2" stroke="black" stroke-width="2"/>
<line x1="1130" y1="1610.2" x2="1107" y2="1610.2" stroke="black" stroke-width="2"/>
<line x1="1127" y1="1630.7" x2="1119" y2="1630.7" stroke="#FF0000"/>
<line x1="1127" y1="1615.7" x2="1119" y2="1615.7" stroke="#FF0000"/>
<line x1="1130" y1="1597.7" x2="1092" y2="1597.7" stroke="black" stroke-width="3"/>
<line x1="1130" y1="1582.2" x2="1107" y2="1582.2" stroke="black" stroke-width="2"/>
<line x1="1130" y1="1569.2" x2="1107" y2="1569.2" stroke="black" stroke-width="2"/>
<line x1="1127" y1="1589.7" x2="1119" y2="1589.7" stroke="#FF0000"/>
<line x1="1127" y1="1574.7" x2="1119" y2="1574.7" stroke="#FF0000"/>
<line x1="1130" y1="1556.7" x2="1092" y2="1556.7" stroke="black" stroke-width="3"/>
<line x1="1130" y1="1541.2" x2="1107" y2="1541.2" stroke="black" stroke-width="2"/>
<line x1="1130" y1="1528.2" x2="1107" y2="1528.2" stroke="black" stroke-width="2"/>
<line x1="1127" y1="1548.7" x2="1119" y2="1548.7" stroke="#FF0000"/>
<line x1="1127" y1="1533.7" x2="1119" y2="1533.7" stroke="#FF0000"/>
<line x1="1130" y1="1515.7" x2="1092" y2="1515.7" stroke="black" stroke-width="3"/>
<line x1="1130" y1="1500.2" x2="1107" y2="1500.2" stroke="black" stroke-width="2"/>
<line x1="1130" y1="1487.2" x2="1107" y2="1487.2" stroke="black" stroke-width="2"/>
<line x1="1127" y1="1507.7" x2="1119" y2="1507.7" stroke="#FF0000"/>
<line x1="1127" y1="1492.7" x2="1119" y2="1492.7" stroke="#FF0000"/>
<line x1="1130" y1="1474.7" x2="1092" y2="1474.7" stroke="black" stroke-width="3"/>
<line x1="1130" y1="1459.2" x2="1107" y2="1459.2" stroke="black" stroke-width="2"/>
<line x1="1130" y1="1446.2" x2="1107" y2="1446.2" stroke="black" stroke-width="2"/>
<line x1="1127" y1="1466.7" x2="1119" y2="1466.7" stroke="#FF0000"/>
<line x1="1127" y1="1451.7" x2="1119" y2="1451.7" stroke="#FF0000"/>
<line x1="1130" y1="1433.7" x2="1092" y2="1433.7" stroke="black" stroke-width="3"/>
<line x1="1130" y1="1418.2" x2="1107" y2="1418.2" stroke="black" stroke-width="2"/>
<line x1="1130" y1="1405.2" x2="1107" y2="1405.2" stroke="black" stroke-width="2"/>
<line x1="1127" y1="1425.7" x2="1119" y2="1425.7" stroke="#FF0000"/>
<line x1="1127" y1="1410.7" x2="1119" y2="1410.7" stroke="#FF0000"/>
<line x1="1130" y1="1392.7" x2="1092" y2="1392.7" stroke="black" stroke-width="3"/>
<line x1="1130" y1="1377.2" x2="1107" y2="1377.2" stroke="black" stroke-width="2"/>
<line x1="1130" y1="1364.2" x2="1107" y2="1364.2" stroke="black" stroke-width="2"/>
<line x1="1127" y1="1384.7" x2="1119" y2="1384.7" stroke="#FF0000"/>
<line x1="1127" y1="1369.7" x2="1119" y2="1369.7" stroke="#FF0000"/>
<line x1="1130" y1="1310.7" x2="1092" y2="1310.7" stroke="black" stroke-width="3"/>
<line x1="1130" y1="1295.2" x2="1107" y2="1295.2" stroke="black" stroke-width="2"/>
<line x1="1130" y1="1282.2" x2="1107" y2="1282.2" stroke="black" stroke-width="2"/>
<line x1="1127" y1="1302.7" x2="1119" y2="1302.7" stroke="#FF0000"/>
<line x1="1127" y1="1287.7" x2="1119" y2="1287.7" stroke="#FF0000"/>
<line x1="1130" y1="1351.7" x2="1092" y2="1351.7" stroke="black" stroke-width="3"/>
<line x1="1130" y1="1336.2" x2="1107" y2="1336.2" stroke="black" stroke-width="2"/>
<line x1="1130" y1="1323.2" x2="1107" y2="1323.2" stroke="black" stroke-width="2"/>
<line x1="1127" y1="1343.7" x2="1119" y2="1343.7" stroke="#FF0000"/>
<line x1="1127" y1="1328.7" x2="1119" y2="1328.7" stroke="#FF0000"/>
<path d="M917 1742.7L1071 1736.7V1755.2H911L917 1742.7Z" fill="black"/>
</svg>
