<svg width="509" height="647" viewBox="0 0 509 647" fill="none" xmlns="http://www.w3.org/2000/svg">
<path d="M453.587 323.078C453.587 490.573 376.451 646.371 243.413 646.371C110.374 646.371 36.5073 503.311 36.5073 335.816C36.5073 168.321 110.374 39.818 243.413 39.818C376.451 39.818 453.587 155.583 453.587 323.078Z" fill="black"/>
<path d="M447.629 321.644C447.629 486.178 372.807 639.221 243.76 639.221C114.713 639.221 43.0614 498.69 43.0614 334.157C43.0614 169.624 114.713 43.3928 243.76 43.3928C372.807 43.3928 447.629 157.111 447.629 321.644Z" fill="#FBDAB8"/>
<ellipse cx="351.7" cy="316.878" rx="36.3455" ry="58.987" fill="#572A00"/>
<ellipse cx="197.977" cy="316.878" rx="36.3455" ry="58.987" fill="#572A00"/>
<path d="M271.859 306.153C321.42 410.705 331.506 453.43 271.859 459.281" stroke="black" stroke-width="3"/>
<path d="M356.275 126.915C369.873 104.373 399.169 97.1234 421.711 110.722C444.252 124.32 451.502 153.616 437.904 176.158C424.306 198.699 395.009 205.949 372.468 192.351C349.926 178.753 342.676 149.456 356.275 126.915Z" fill="#010101"/>
<path d="M311.257 136.234C320.039 134.922 329.013 136.09 337.167 139.605C345.322 143.12 352.332 148.843 357.408 156.128C362.485 163.414 365.425 171.972 365.898 180.84C366.37 189.707 364.357 198.529 360.084 206.314C355.812 214.098 349.45 220.533 341.715 224.896C333.981 229.258 325.182 231.373 316.31 231.002C307.438 230.632 298.846 227.79 291.502 222.798C284.159 217.806 278.355 210.862 274.747 202.749L285.066 198.159C287.82 204.35 292.248 209.649 297.851 213.458C303.455 217.267 310.011 219.435 316.781 219.718C323.551 220.001 330.265 218.387 336.167 215.058C342.069 211.73 346.923 206.819 350.184 200.879C353.444 194.939 354.98 188.207 354.62 181.441C354.259 174.675 352.015 168.144 348.142 162.585C344.268 157.025 338.919 152.658 332.697 149.976C326.475 147.294 319.627 146.403 312.925 147.404L311.257 136.234Z" fill="#010101"/>
<path d="M243.631 132.846C251.615 138.481 257.673 146.433 260.987 155.627C264.3 164.82 264.708 174.809 262.155 184.242C259.602 193.675 254.211 202.095 246.714 208.362C239.216 214.629 229.973 218.44 220.237 219.279C210.501 220.118 200.743 217.944 192.283 213.053C183.823 208.161 177.072 200.787 172.943 191.931C168.813 183.074 167.506 173.162 169.198 163.537C170.889 153.913 175.498 145.041 182.4 138.123L190.395 146.1C185.129 151.378 181.612 158.148 180.321 165.492C179.03 172.837 180.028 180.4 183.179 187.158C186.33 193.916 191.482 199.543 197.937 203.276C204.392 207.008 211.838 208.667 219.267 208.027C226.696 207.386 233.749 204.478 239.471 199.696C245.192 194.914 249.305 188.489 251.253 181.291C253.201 174.094 252.89 166.471 250.362 159.456C247.833 152.441 243.21 146.373 237.118 142.073L243.631 132.846Z" fill="#010101"/>
<circle cx="359.554" cy="62.5669" r="47.6662" transform="rotate(168.649 359.554 62.5669)" fill="#010101"/>
<circle cx="270.718" cy="119.113" r="47.6662" transform="rotate(6.94308 270.718 119.113)" fill="#010101"/>
<path d="M233.427 143.942C230.245 170.074 206.48 188.679 180.348 185.496C154.216 182.314 135.611 158.55 138.793 132.418C141.976 106.285 165.74 87.6806 191.872 90.8629C218.005 94.0452 236.609 117.809 233.427 143.942Z" fill="#010101"/>
<path d="M188.144 102.234C184.962 128.366 161.198 146.971 135.065 143.788C108.933 140.606 90.3284 116.842 93.5106 90.7095C96.6929 64.5772 120.457 45.9726 146.589 49.1549C172.722 52.3372 191.326 76.1013 188.144 102.234Z" fill="#010101"/>
<circle cx="207.178" cy="73.4487" r="47.6662" transform="rotate(179.681 207.178 73.4487)" fill="#010101"/>
<path d="M415.871 108.966C419.457 102.473 424.509 96.9066 430.624 92.7093C436.74 88.512 443.751 85.7999 451.099 84.7889C458.448 83.7778 465.931 84.4956 472.953 86.8853C479.975 89.2749 486.342 93.2704 491.549 98.5538C496.755 103.837 500.656 110.263 502.943 117.319C505.229 124.376 505.836 131.868 504.717 139.201C503.598 146.534 500.784 153.504 496.497 159.558C492.21 165.611 486.57 170.58 480.025 174.07L474.71 164.105C479.705 161.442 484.009 157.65 487.28 153.03C490.551 148.411 492.699 143.093 493.553 137.497C494.407 131.902 493.943 126.185 492.198 120.8C490.454 115.416 487.477 110.513 483.504 106.481C479.531 102.449 474.673 99.4006 469.314 97.5772C463.956 95.7537 458.246 95.206 452.639 95.9775C447.032 96.749 441.682 98.8185 437.015 102.021C432.348 105.224 428.494 109.472 425.757 114.426L415.871 108.966Z" fill="#010101"/>
<path d="M104.255 157.155C121.313 177.206 118.888 207.289 98.8375 224.347C78.787 241.406 48.704 238.981 31.6453 218.93C14.5865 198.88 17.0119 168.797 37.0624 151.738C57.1129 134.679 87.1959 137.105 104.255 157.155Z" fill="#010101"/>
<circle cx="93.0346" cy="130.903" r="47.6662" transform="rotate(29.2171 93.0346 130.903)" fill="#010101"/>
<circle cx="410.015" cy="99.9201" r="47.6662" transform="rotate(29.2171 410.015 99.9201)" fill="#010101"/>
<circle cx="117.559" cy="160.194" r="47.6662" transform="rotate(-87.0346 117.559 160.194)" fill="#010101"/>
<path d="M390.939 77.0616C388.083 69.7618 387.071 61.8702 387.993 54.0859C388.915 46.3015 391.743 38.8647 396.225 32.4342C400.708 26.0036 406.708 20.7779 413.692 17.2198C420.677 13.6617 428.431 11.881 436.269 12.0356C444.106 12.1902 451.784 14.2753 458.623 18.106C465.462 21.9368 471.251 27.3951 475.476 33.9974C479.702 40.5997 482.234 48.1423 482.848 55.9569C483.462 63.7716 482.14 71.6171 478.998 78.7986L468.651 74.2716C471.049 68.7917 472.058 62.8051 471.589 56.8421C471.12 50.879 469.188 45.1236 465.964 40.0856C462.739 35.0477 458.322 30.8827 453.104 27.9596C447.885 25.0364 442.026 23.4454 436.046 23.3275C430.066 23.2095 424.148 24.5682 418.819 27.2833C413.489 29.9983 408.911 33.9859 405.491 38.8928C402.07 43.7997 399.912 49.4744 399.209 55.4143C398.505 61.3542 399.277 67.376 401.457 72.9462L390.939 77.0616Z" fill="#010101"/>
<path d="M396.365 143.968C404.07 139.695 412.809 137.641 421.611 138.035C430.413 138.428 438.934 141.253 446.227 146.197C453.52 151.141 459.301 158.009 462.926 166.039C466.552 174.07 467.881 182.948 466.765 191.688C465.65 200.428 462.133 208.688 456.607 215.55C451.081 222.413 443.761 227.609 435.459 230.562C427.158 233.515 418.201 234.11 409.582 232.28C400.963 230.45 393.02 226.267 386.636 220.195L394.418 212.011C399.29 216.644 405.351 219.836 411.928 221.232C418.505 222.629 425.339 222.175 431.674 219.921C438.008 217.668 443.594 213.703 447.811 208.466C452.028 203.23 454.711 196.927 455.562 190.258C456.413 183.589 455.399 176.814 452.633 170.687C449.866 164.559 445.455 159.318 439.89 155.546C434.325 151.774 427.823 149.618 421.107 149.317C414.39 149.017 407.722 150.584 401.842 153.845L396.365 143.968Z" fill="#010101"/>
<circle cx="278.538" cy="66.1583" r="47.6662" transform="rotate(58.0661 278.538 66.1583)" fill="#010101"/>
<circle cx="351.229" cy="87.6081" r="47.6662" transform="rotate(58.0661 351.229 87.6081)" fill="#010101"/>
<circle cx="347.654" cy="129.316" r="47.6662" transform="rotate(58.0661 347.654 129.316)" fill="#010101"/>
<path d="M206.914 539.122C206.914 539.122 262.326 580.83 340.975 543.293" stroke="black" stroke-width="3"/>
</svg>
